ISO-10303-21;
HEADER;
/* Generated by software containing ST-Developer
 * from STEP Tools, Inc. (www.steptools.com) 
 */

FILE_DESCRIPTION(
/* description */ (''),
/* implementation_level */ '2;1');

FILE_NAME(
/* name */ 'Cannon Mount.step',
/* time_stamp */ '2026-07-01T22:03:19+09:00',
/* author */ (''),
/* organization */ (''),
/* preprocessor_version */ 'ST-DEVELOPER v20.1',
/* originating_system */ 'Autodesk Translation Framework v15.8.0.0',
/* authorisation */ '');

FILE_SCHEMA (('AUTOMOTIVE_DESIGN { 1 0 10303 214 3 1 1 }'));
ENDSEC;

DATA;
#10=MECHANICAL_DESIGN_GEOMETRIC_PRESENTATION_REPRESENTATION('',(#20,#21),
#772);
#11=SHAPE_REPRESENTATION_RELATIONSHIP('SRR','None',#778,#12);
#12=ADVANCED_BREP_SHAPE_REPRESENTATION('',(#22,#23),#771);
#13=FACE_BOUND('',#79,.T.);
#14=FACE_BOUND('',#81,.T.);
#15=FACE_BOUND('',#91,.T.);
#16=FACE_BOUND('',#92,.T.);
#17=B_SPLINE_CURVE_WITH_KNOTS('',3,(#700,#701,#702,#703),.UNSPECIFIED.,
 .F.,.F.,(4,4),(0.6258919313467,0.899009932470734),.UNSPECIFIED.);
#18=B_SPLINE_CURVE_WITH_KNOTS('',3,(#707,#708,#709,#710),.UNSPECIFIED.,
 .F.,.F.,(4,4),(0.,0.273118001124034),.UNSPECIFIED.);
#19=TOROIDAL_SURFACE('',#477,4.,1.);
#20=STYLED_ITEM('',(#787),#22);
#21=STYLED_ITEM('',(#787),#23);
#22=MANIFOLD_SOLID_BREP('Body1',#454);
#23=MANIFOLD_SOLID_BREP('Body2',#455);
#24=PLANE('',#460);
#25=PLANE('',#462);
#26=PLANE('',#465);
#27=PLANE('',#468);
#28=PLANE('',#469);
#29=PLANE('',#472);
#30=PLANE('',#475);
#31=PLANE('',#476);
#32=PLANE('',#483);
#33=PLANE('',#485);
#34=PLANE('',#489);
#35=PLANE('',#492);
#36=PLANE('',#497);
#37=PLANE('',#500);
#38=PLANE('',#501);
#39=FACE_OUTER_BOUND('',#64,.T.);
#40=FACE_OUTER_BOUND('',#65,.T.);
#41=FACE_OUTER_BOUND('',#66,.T.);
#42=FACE_OUTER_BOUND('',#67,.T.);
#43=FACE_OUTER_BOUND('',#68,.T.);
#44=FACE_OUTER_BOUND('',#69,.T.);
#45=FACE_OUTER_BOUND('',#70,.T.);
#46=FACE_OUTER_BOUND('',#71,.T.);
#47=FACE_OUTER_BOUND('',#72,.T.);
#48=FACE_OUTER_BOUND('',#73,.T.);
#49=FACE_OUTER_BOUND('',#74,.T.);
#50=FACE_OUTER_BOUND('',#75,.T.);
#51=FACE_OUTER_BOUND('',#76,.T.);
#52=FACE_OUTER_BOUND('',#77,.T.);
#53=FACE_OUTER_BOUND('',#78,.T.);
#54=FACE_OUTER_BOUND('',#80,.T.);
#55=FACE_OUTER_BOUND('',#82,.T.);
#56=FACE_OUTER_BOUND('',#83,.T.);
#57=FACE_OUTER_BOUND('',#84,.T.);
#58=FACE_OUTER_BOUND('',#85,.T.);
#59=FACE_OUTER_BOUND('',#86,.T.);
#60=FACE_OUTER_BOUND('',#87,.T.);
#61=FACE_OUTER_BOUND('',#88,.T.);
#62=FACE_OUTER_BOUND('',#89,.T.);
#63=FACE_OUTER_BOUND('',#90,.T.);
#64=EDGE_LOOP('',(#296,#297,#298,#299));
#65=EDGE_LOOP('',(#300,#301,#302,#303));
#66=EDGE_LOOP('',(#304,#305,#306,#307,#308,#309,#310,#311));
#67=EDGE_LOOP('',(#312,#313,#314,#315,#316,#317));
#68=EDGE_LOOP('',(#318,#319,#320,#321));
#69=EDGE_LOOP('',(#322,#323,#324,#325,#326,#327));
#70=EDGE_LOOP('',(#328,#329,#330,#331));
#71=EDGE_LOOP('',(#332,#333,#334,#335));
#72=EDGE_LOOP('',(#336,#337,#338,#339));
#73=EDGE_LOOP('',(#340,#341,#342,#343));
#74=EDGE_LOOP('',(#344,#345,#346,#347));
#75=EDGE_LOOP('',(#348,#349,#350,#351,#352,#353,#354,#355));
#76=EDGE_LOOP('',(#356,#357,#358,#359));
#77=EDGE_LOOP('',(#360,#361,#362,#363,#364,#365,#366));
#78=EDGE_LOOP('',(#367));
#79=EDGE_LOOP('',(#368));
#80=EDGE_LOOP('',(#369,#370,#371,#372));
#81=EDGE_LOOP('',(#373,#374,#375,#376));
#82=EDGE_LOOP('',(#377,#378,#379,#380));
#83=EDGE_LOOP('',(#381,#382,#383,#384));
#84=EDGE_LOOP('',(#385,#386,#387,#388));
#85=EDGE_LOOP('',(#389,#390,#391,#392));
#86=EDGE_LOOP('',(#393,#394,#395,#396));
#87=EDGE_LOOP('',(#397,#398,#399,#400,#401));
#88=EDGE_LOOP('',(#402,#403,#404,#405));
#89=EDGE_LOOP('',(#406,#407,#408,#409,#410));
#90=EDGE_LOOP('',(#411,#412,#413,#414));
#91=EDGE_LOOP('',(#415));
#92=EDGE_LOOP('',(#416,#417,#418,#419));
#93=LINE('',#640,#133);
#94=LINE('',#643,#134);
#95=LINE('',#648,#135);
#96=LINE('',#649,#136);
#97=LINE('',#652,#137);
#98=LINE('',#654,#138);
#99=LINE('',#658,#139);
#100=LINE('',#662,#140);
#101=LINE('',#663,#141);
#102=LINE('',#667,#142);
#103=LINE('',#668,#143);
#104=LINE('',#669,#144);
#105=LINE('',#673,#145);
#106=LINE('',#676,#146);
#107=LINE('',#677,#147);
#108=LINE('',#680,#148);
#109=LINE('',#681,#149);
#110=LINE('',#685,#150);
#111=LINE('',#688,#151);
#112=LINE('',#689,#152);
#113=LINE('',#693,#153);
#114=LINE('',#695,#154);
#115=LINE('',#715,#155);
#116=LINE('',#717,#156);
#117=LINE('',#720,#157);
#118=LINE('',#726,#158);
#119=LINE('',#729,#159);
#120=LINE('',#734,#160);
#121=LINE('',#737,#161);
#122=LINE('',#741,#162);
#123=LINE('',#742,#163);
#124=LINE('',#743,#164);
#125=LINE('',#747,#165);
#126=LINE('',#750,#166);
#127=LINE('',#751,#167);
#128=LINE('',#756,#168);
#129=LINE('',#760,#169);
#130=LINE('',#761,#170);
#131=LINE('',#765,#171);
#132=LINE('',#767,#172);
#133=VECTOR('',#508,10.);
#134=VECTOR('',#511,10.);
#135=VECTOR('',#516,10.);
#136=VECTOR('',#517,10.);
#137=VECTOR('',#520,10.);
#138=VECTOR('',#521,10.);
#139=VECTOR('',#524,10.);
#140=VECTOR('',#527,10.);
#141=VECTOR('',#528,10.);
#142=VECTOR('',#531,10.);
#143=VECTOR('',#532,10.);
#144=VECTOR('',#533,10.);
#145=VECTOR('',#538,10.);
#146=VECTOR('',#541,10.);
#147=VECTOR('',#542,10.);
#148=VECTOR('',#545,10.);
#149=VECTOR('',#546,10.);
#150=VECTOR('',#551,10.);
#151=VECTOR('',#554,10.);
#152=VECTOR('',#555,10.);
#153=VECTOR('',#560,10.);
#154=VECTOR('',#563,10.);
#155=VECTOR('',#576,3.);
#156=VECTOR('',#577,10.);
#157=VECTOR('',#580,10.);
#158=VECTOR('',#587,10.);
#159=VECTOR('',#590,10.);
#160=VECTOR('',#593,10.);
#161=VECTOR('',#596,10.);
#162=VECTOR('',#599,10.);
#163=VECTOR('',#600,10.);
#164=VECTOR('',#601,10.);
#165=VECTOR('',#606,10.);
#166=VECTOR('',#609,10.);
#167=VECTOR('',#610,10.);
#168=VECTOR('',#617,2.);
#169=VECTOR('',#622,10.);
#170=VECTOR('',#623,10.);
#171=VECTOR('',#628,10.);
#172=VECTOR('',#631,10.);
#173=CIRCLE('',#458,23.2);
#174=CIRCLE('',#459,23.2);
#175=CIRCLE('',#461,24.4);
#176=CIRCLE('',#463,16.4);
#177=CIRCLE('',#464,16.4);
#178=CIRCLE('',#467,24.4);
#179=CIRCLE('',#471,16.4);
#180=CIRCLE('',#474,16.4);
#181=CIRCLE('',#478,3.);
#182=CIRCLE('',#479,4.);
#183=CIRCLE('',#481,3.);
#184=CIRCLE('',#482,3.);
#185=CIRCLE('',#484,2.);
#186=CIRCLE('',#486,3.);
#187=CIRCLE('',#487,1.4);
#188=CIRCLE('',#488,1.4);
#189=CIRCLE('',#491,1.4);
#190=CIRCLE('',#494,1.4);
#191=CIRCLE('',#496,2.);
#192=CIRCLE('',#499,3.);
#193=VERTEX_POINT('',#636);
#194=VERTEX_POINT('',#637);
#195=VERTEX_POINT('',#639);
#196=VERTEX_POINT('',#641);
#197=VERTEX_POINT('',#645);
#198=VERTEX_POINT('',#646);
#199=VERTEX_POINT('',#651);
#200=VERTEX_POINT('',#653);
#201=VERTEX_POINT('',#655);
#202=VERTEX_POINT('',#657);
#203=VERTEX_POINT('',#659);
#204=VERTEX_POINT('',#661);
#205=VERTEX_POINT('',#665);
#206=VERTEX_POINT('',#666);
#207=VERTEX_POINT('',#671);
#208=VERTEX_POINT('',#675);
#209=VERTEX_POINT('',#679);
#210=VERTEX_POINT('',#683);
#211=VERTEX_POINT('',#687);
#212=VERTEX_POINT('',#691);
#213=VERTEX_POINT('',#698);
#214=VERTEX_POINT('',#699);
#215=VERTEX_POINT('',#704);
#216=VERTEX_POINT('',#706);
#217=VERTEX_POINT('',#713);
#218=VERTEX_POINT('',#716);
#219=VERTEX_POINT('',#718);
#220=VERTEX_POINT('',#722);
#221=VERTEX_POINT('',#725);
#222=VERTEX_POINT('',#727);
#223=VERTEX_POINT('',#730);
#224=VERTEX_POINT('',#731);
#225=VERTEX_POINT('',#733);
#226=VERTEX_POINT('',#735);
#227=VERTEX_POINT('',#739);
#228=VERTEX_POINT('',#740);
#229=VERTEX_POINT('',#745);
#230=VERTEX_POINT('',#749);
#231=VERTEX_POINT('',#755);
#232=VERTEX_POINT('',#759);
#233=VERTEX_POINT('',#763);
#234=EDGE_CURVE('',#193,#194,#173,.T.);
#235=EDGE_CURVE('',#193,#195,#93,.T.);
#236=EDGE_CURVE('',#196,#195,#174,.T.);
#237=EDGE_CURVE('',#194,#196,#94,.T.);
#238=EDGE_CURVE('',#197,#198,#175,.T.);
#239=EDGE_CURVE('',#198,#196,#95,.T.);
#240=EDGE_CURVE('',#195,#197,#96,.T.);
#241=EDGE_CURVE('',#194,#199,#97,.T.);
#242=EDGE_CURVE('',#199,#200,#98,.T.);
#243=EDGE_CURVE('',#200,#201,#176,.T.);
#244=EDGE_CURVE('',#201,#202,#99,.T.);
#245=EDGE_CURVE('',#202,#203,#177,.T.);
#246=EDGE_CURVE('',#203,#204,#100,.T.);
#247=EDGE_CURVE('',#204,#193,#101,.T.);
#248=EDGE_CURVE('',#205,#206,#102,.T.);
#249=EDGE_CURVE('',#206,#199,#103,.T.);
#250=EDGE_CURVE('',#205,#198,#104,.T.);
#251=EDGE_CURVE('',#205,#207,#178,.T.);
#252=EDGE_CURVE('',#207,#197,#105,.T.);
#253=EDGE_CURVE('',#208,#204,#106,.T.);
#254=EDGE_CURVE('',#208,#207,#107,.T.);
#255=EDGE_CURVE('',#209,#208,#108,.T.);
#256=EDGE_CURVE('',#209,#203,#109,.T.);
#257=EDGE_CURVE('',#210,#209,#179,.T.);
#258=EDGE_CURVE('',#210,#202,#110,.T.);
#259=EDGE_CURVE('',#211,#210,#111,.T.);
#260=EDGE_CURVE('',#211,#201,#112,.T.);
#261=EDGE_CURVE('',#212,#211,#180,.T.);
#262=EDGE_CURVE('',#212,#200,#113,.T.);
#263=EDGE_CURVE('',#212,#206,#114,.T.);
#264=EDGE_CURVE('',#213,#214,#17,.T.);
#265=EDGE_CURVE('',#214,#215,#181,.T.);
#266=EDGE_CURVE('',#215,#216,#18,.T.);
#267=EDGE_CURVE('',#216,#213,#182,.T.);
#268=EDGE_CURVE('',#217,#217,#183,.T.);
#269=EDGE_CURVE('',#217,#214,#115,.T.);
#270=EDGE_CURVE('',#218,#214,#116,.T.);
#271=EDGE_CURVE('',#219,#218,#184,.T.);
#272=EDGE_CURVE('',#219,#215,#117,.T.);
#273=EDGE_CURVE('',#220,#220,#185,.T.);
#274=EDGE_CURVE('',#216,#221,#118,.T.);
#275=EDGE_CURVE('',#221,#222,#186,.T.);
#276=EDGE_CURVE('',#222,#213,#119,.T.);
#277=EDGE_CURVE('',#223,#224,#187,.T.);
#278=EDGE_CURVE('',#224,#225,#120,.T.);
#279=EDGE_CURVE('',#225,#226,#188,.T.);
#280=EDGE_CURVE('',#226,#223,#121,.T.);
#281=EDGE_CURVE('',#227,#228,#122,.T.);
#282=EDGE_CURVE('',#227,#223,#123,.T.);
#283=EDGE_CURVE('',#228,#226,#124,.T.);
#284=EDGE_CURVE('',#228,#229,#189,.T.);
#285=EDGE_CURVE('',#229,#225,#125,.T.);
#286=EDGE_CURVE('',#229,#230,#126,.T.);
#287=EDGE_CURVE('',#230,#224,#127,.T.);
#288=EDGE_CURVE('',#230,#227,#190,.T.);
#289=EDGE_CURVE('',#220,#231,#128,.T.);
#290=EDGE_CURVE('',#231,#231,#191,.T.);
#291=EDGE_CURVE('',#218,#232,#129,.T.);
#292=EDGE_CURVE('',#232,#222,#130,.T.);
#293=EDGE_CURVE('',#232,#233,#192,.T.);
#294=EDGE_CURVE('',#233,#221,#131,.T.);
#295=EDGE_CURVE('',#233,#219,#132,.T.);
#296=ORIENTED_EDGE('',*,*,#234,.F.);
#297=ORIENTED_EDGE('',*,*,#235,.T.);
#298=ORIENTED_EDGE('',*,*,#236,.F.);
#299=ORIENTED_EDGE('',*,*,#237,.F.);
#300=ORIENTED_EDGE('',*,*,#238,.T.);
#301=ORIENTED_EDGE('',*,*,#239,.T.);
#302=ORIENTED_EDGE('',*,*,#236,.T.);
#303=ORIENTED_EDGE('',*,*,#240,.T.);
#304=ORIENTED_EDGE('',*,*,#234,.T.);
#305=ORIENTED_EDGE('',*,*,#241,.T.);
#306=ORIENTED_EDGE('',*,*,#242,.T.);
#307=ORIENTED_EDGE('',*,*,#243,.T.);
#308=ORIENTED_EDGE('',*,*,#244,.T.);
#309=ORIENTED_EDGE('',*,*,#245,.T.);
#310=ORIENTED_EDGE('',*,*,#246,.T.);
#311=ORIENTED_EDGE('',*,*,#247,.T.);
#312=ORIENTED_EDGE('',*,*,#248,.T.);
#313=ORIENTED_EDGE('',*,*,#249,.T.);
#314=ORIENTED_EDGE('',*,*,#241,.F.);
#315=ORIENTED_EDGE('',*,*,#237,.T.);
#316=ORIENTED_EDGE('',*,*,#239,.F.);
#317=ORIENTED_EDGE('',*,*,#250,.F.);
#318=ORIENTED_EDGE('',*,*,#251,.F.);
#319=ORIENTED_EDGE('',*,*,#250,.T.);
#320=ORIENTED_EDGE('',*,*,#238,.F.);
#321=ORIENTED_EDGE('',*,*,#252,.F.);
#322=ORIENTED_EDGE('',*,*,#247,.F.);
#323=ORIENTED_EDGE('',*,*,#253,.F.);
#324=ORIENTED_EDGE('',*,*,#254,.T.);
#325=ORIENTED_EDGE('',*,*,#252,.T.);
#326=ORIENTED_EDGE('',*,*,#240,.F.);
#327=ORIENTED_EDGE('',*,*,#235,.F.);
#328=ORIENTED_EDGE('',*,*,#255,.T.);
#329=ORIENTED_EDGE('',*,*,#253,.T.);
#330=ORIENTED_EDGE('',*,*,#246,.F.);
#331=ORIENTED_EDGE('',*,*,#256,.F.);
#332=ORIENTED_EDGE('',*,*,#257,.T.);
#333=ORIENTED_EDGE('',*,*,#256,.T.);
#334=ORIENTED_EDGE('',*,*,#245,.F.);
#335=ORIENTED_EDGE('',*,*,#258,.F.);
#336=ORIENTED_EDGE('',*,*,#259,.T.);
#337=ORIENTED_EDGE('',*,*,#258,.T.);
#338=ORIENTED_EDGE('',*,*,#244,.F.);
#339=ORIENTED_EDGE('',*,*,#260,.F.);
#340=ORIENTED_EDGE('',*,*,#261,.T.);
#341=ORIENTED_EDGE('',*,*,#260,.T.);
#342=ORIENTED_EDGE('',*,*,#243,.F.);
#343=ORIENTED_EDGE('',*,*,#262,.F.);
#344=ORIENTED_EDGE('',*,*,#263,.F.);
#345=ORIENTED_EDGE('',*,*,#262,.T.);
#346=ORIENTED_EDGE('',*,*,#242,.F.);
#347=ORIENTED_EDGE('',*,*,#249,.F.);
#348=ORIENTED_EDGE('',*,*,#254,.F.);
#349=ORIENTED_EDGE('',*,*,#255,.F.);
#350=ORIENTED_EDGE('',*,*,#257,.F.);
#351=ORIENTED_EDGE('',*,*,#259,.F.);
#352=ORIENTED_EDGE('',*,*,#261,.F.);
#353=ORIENTED_EDGE('',*,*,#263,.T.);
#354=ORIENTED_EDGE('',*,*,#248,.F.);
#355=ORIENTED_EDGE('',*,*,#251,.T.);
#356=ORIENTED_EDGE('',*,*,#264,.T.);
#357=ORIENTED_EDGE('',*,*,#265,.T.);
#358=ORIENTED_EDGE('',*,*,#266,.T.);
#359=ORIENTED_EDGE('',*,*,#267,.T.);
#360=ORIENTED_EDGE('',*,*,#268,.F.);
#361=ORIENTED_EDGE('',*,*,#269,.T.);
#362=ORIENTED_EDGE('',*,*,#270,.F.);
#363=ORIENTED_EDGE('',*,*,#271,.F.);
#364=ORIENTED_EDGE('',*,*,#272,.T.);
#365=ORIENTED_EDGE('',*,*,#265,.F.);
#366=ORIENTED_EDGE('',*,*,#269,.F.);
#367=ORIENTED_EDGE('',*,*,#268,.T.);
#368=ORIENTED_EDGE('',*,*,#273,.T.);
#369=ORIENTED_EDGE('',*,*,#267,.F.);
#370=ORIENTED_EDGE('',*,*,#274,.T.);
#371=ORIENTED_EDGE('',*,*,#275,.T.);
#372=ORIENTED_EDGE('',*,*,#276,.T.);
#373=ORIENTED_EDGE('',*,*,#277,.T.);
#374=ORIENTED_EDGE('',*,*,#278,.T.);
#375=ORIENTED_EDGE('',*,*,#279,.T.);
#376=ORIENTED_EDGE('',*,*,#280,.T.);
#377=ORIENTED_EDGE('',*,*,#281,.F.);
#378=ORIENTED_EDGE('',*,*,#282,.T.);
#379=ORIENTED_EDGE('',*,*,#280,.F.);
#380=ORIENTED_EDGE('',*,*,#283,.F.);
#381=ORIENTED_EDGE('',*,*,#284,.F.);
#382=ORIENTED_EDGE('',*,*,#283,.T.);
#383=ORIENTED_EDGE('',*,*,#279,.F.);
#384=ORIENTED_EDGE('',*,*,#285,.F.);
#385=ORIENTED_EDGE('',*,*,#286,.F.);
#386=ORIENTED_EDGE('',*,*,#285,.T.);
#387=ORIENTED_EDGE('',*,*,#278,.F.);
#388=ORIENTED_EDGE('',*,*,#287,.F.);
#389=ORIENTED_EDGE('',*,*,#288,.F.);
#390=ORIENTED_EDGE('',*,*,#287,.T.);
#391=ORIENTED_EDGE('',*,*,#277,.F.);
#392=ORIENTED_EDGE('',*,*,#282,.F.);
#393=ORIENTED_EDGE('',*,*,#273,.F.);
#394=ORIENTED_EDGE('',*,*,#289,.T.);
#395=ORIENTED_EDGE('',*,*,#290,.F.);
#396=ORIENTED_EDGE('',*,*,#289,.F.);
#397=ORIENTED_EDGE('',*,*,#291,.F.);
#398=ORIENTED_EDGE('',*,*,#270,.T.);
#399=ORIENTED_EDGE('',*,*,#264,.F.);
#400=ORIENTED_EDGE('',*,*,#276,.F.);
#401=ORIENTED_EDGE('',*,*,#292,.F.);
#402=ORIENTED_EDGE('',*,*,#293,.F.);
#403=ORIENTED_EDGE('',*,*,#292,.T.);
#404=ORIENTED_EDGE('',*,*,#275,.F.);
#405=ORIENTED_EDGE('',*,*,#294,.F.);
#406=ORIENTED_EDGE('',*,*,#295,.F.);
#407=ORIENTED_EDGE('',*,*,#294,.T.);
#408=ORIENTED_EDGE('',*,*,#274,.F.);
#409=ORIENTED_EDGE('',*,*,#266,.F.);
#410=ORIENTED_EDGE('',*,*,#272,.F.);
#411=ORIENTED_EDGE('',*,*,#291,.T.);
#412=ORIENTED_EDGE('',*,*,#293,.T.);
#413=ORIENTED_EDGE('',*,*,#295,.T.);
#414=ORIENTED_EDGE('',*,*,#271,.T.);
#415=ORIENTED_EDGE('',*,*,#290,.T.);
#416=ORIENTED_EDGE('',*,*,#288,.T.);
#417=ORIENTED_EDGE('',*,*,#281,.T.);
#418=ORIENTED_EDGE('',*,*,#284,.T.);
#419=ORIENTED_EDGE('',*,*,#286,.T.);
#420=CYLINDRICAL_SURFACE('',#457,23.2);
#421=CYLINDRICAL_SURFACE('',#466,24.4);
#422=CYLINDRICAL_SURFACE('',#470,16.4);
#423=CYLINDRICAL_SURFACE('',#473,16.4);
#424=CYLINDRICAL_SURFACE('',#480,3.);
#425=CYLINDRICAL_SURFACE('',#490,1.4);
#426=CYLINDRICAL_SURFACE('',#493,1.4);
#427=CYLINDRICAL_SURFACE('',#495,2.);
#428=CYLINDRICAL_SURFACE('',#498,3.);
#429=ADVANCED_FACE('',(#39),#420,.F.);
#430=ADVANCED_FACE('',(#40),#24,.F.);
#431=ADVANCED_FACE('',(#41),#25,.F.);
#432=ADVANCED_FACE('',(#42),#26,.T.);
#433=ADVANCED_FACE('',(#43),#421,.T.);
#434=ADVANCED_FACE('',(#44),#27,.T.);
#435=ADVANCED_FACE('',(#45),#28,.T.);
#436=ADVANCED_FACE('',(#46),#422,.F.);
#437=ADVANCED_FACE('',(#47),#29,.T.);
#438=ADVANCED_FACE('',(#48),#423,.F.);
#439=ADVANCED_FACE('',(#49),#30,.T.);
#440=ADVANCED_FACE('',(#50),#31,.T.);
#441=ADVANCED_FACE('',(#51),#19,.F.);
#442=ADVANCED_FACE('',(#52),#424,.T.);
#443=ADVANCED_FACE('',(#53,#13),#32,.F.);
#444=ADVANCED_FACE('',(#54,#14),#33,.F.);
#445=ADVANCED_FACE('',(#55),#34,.T.);
#446=ADVANCED_FACE('',(#56),#425,.F.);
#447=ADVANCED_FACE('',(#57),#35,.T.);
#448=ADVANCED_FACE('',(#58),#426,.F.);
#449=ADVANCED_FACE('',(#59),#427,.F.);
#450=ADVANCED_FACE('',(#60),#36,.T.);
#451=ADVANCED_FACE('',(#61),#428,.T.);
#452=ADVANCED_FACE('',(#62),#37,.T.);
#453=ADVANCED_FACE('',(#63,#15,#16),#38,.T.);
#454=CLOSED_SHELL('',(#429,#430,#431,#432,#433,#434,#435,#436,#437,#438,
#439,#440));
#455=CLOSED_SHELL('',(#441,#442,#443,#444,#445,#446,#447,#448,#449,#450,
#451,#452,#453));
#456=AXIS2_PLACEMENT_3D('',#634,#502,#503);
#457=AXIS2_PLACEMENT_3D('',#635,#504,#505);
#458=AXIS2_PLACEMENT_3D('',#638,#506,#507);
#459=AXIS2_PLACEMENT_3D('',#642,#509,#510);
#460=AXIS2_PLACEMENT_3D('',#644,#512,#513);
#461=AXIS2_PLACEMENT_3D('',#647,#514,#515);
#462=AXIS2_PLACEMENT_3D('',#650,#518,#519);
#463=AXIS2_PLACEMENT_3D('',#656,#522,#523);
#464=AXIS2_PLACEMENT_3D('',#660,#525,#526);
#465=AXIS2_PLACEMENT_3D('',#664,#529,#530);
#466=AXIS2_PLACEMENT_3D('',#670,#534,#535);
#467=AXIS2_PLACEMENT_3D('',#672,#536,#537);
#468=AXIS2_PLACEMENT_3D('',#674,#539,#540);
#469=AXIS2_PLACEMENT_3D('',#678,#543,#544);
#470=AXIS2_PLACEMENT_3D('',#682,#547,#548);
#471=AXIS2_PLACEMENT_3D('',#684,#549,#550);
#472=AXIS2_PLACEMENT_3D('',#686,#552,#553);
#473=AXIS2_PLACEMENT_3D('',#690,#556,#557);
#474=AXIS2_PLACEMENT_3D('',#692,#558,#559);
#475=AXIS2_PLACEMENT_3D('',#694,#561,#562);
#476=AXIS2_PLACEMENT_3D('',#696,#564,#565);
#477=AXIS2_PLACEMENT_3D('',#697,#566,#567);
#478=AXIS2_PLACEMENT_3D('',#705,#568,#569);
#479=AXIS2_PLACEMENT_3D('',#711,#570,#571);
#480=AXIS2_PLACEMENT_3D('',#712,#572,#573);
#481=AXIS2_PLACEMENT_3D('',#714,#574,#575);
#482=AXIS2_PLACEMENT_3D('',#719,#578,#579);
#483=AXIS2_PLACEMENT_3D('',#721,#581,#582);
#484=AXIS2_PLACEMENT_3D('',#723,#583,#584);
#485=AXIS2_PLACEMENT_3D('',#724,#585,#586);
#486=AXIS2_PLACEMENT_3D('',#728,#588,#589);
#487=AXIS2_PLACEMENT_3D('',#732,#591,#592);
#488=AXIS2_PLACEMENT_3D('',#736,#594,#595);
#489=AXIS2_PLACEMENT_3D('',#738,#597,#598);
#490=AXIS2_PLACEMENT_3D('',#744,#602,#603);
#491=AXIS2_PLACEMENT_3D('',#746,#604,#605);
#492=AXIS2_PLACEMENT_3D('',#748,#607,#608);
#493=AXIS2_PLACEMENT_3D('',#752,#611,#612);
#494=AXIS2_PLACEMENT_3D('',#753,#613,#614);
#495=AXIS2_PLACEMENT_3D('',#754,#615,#616);
#496=AXIS2_PLACEMENT_3D('',#757,#618,#619);
#497=AXIS2_PLACEMENT_3D('',#758,#620,#621);
#498=AXIS2_PLACEMENT_3D('',#762,#624,#625);
#499=AXIS2_PLACEMENT_3D('',#764,#626,#627);
#500=AXIS2_PLACEMENT_3D('',#766,#629,#630);
#501=AXIS2_PLACEMENT_3D('',#768,#632,#633);
#502=DIRECTION('axis',(0.,0.,1.));
#503=DIRECTION('refdir',(1.,0.,0.));
#504=DIRECTION('center_axis',(0.,-1.,0.));
#505=DIRECTION('ref_axis',(6.12323399573676E-17,0.,1.));
#506=DIRECTION('center_axis',(0.,-1.,0.));
#507=DIRECTION('ref_axis',(1.,0.,0.));
#508=DIRECTION('',(0.,-1.,0.));
#509=DIRECTION('center_axis',(0.,1.,0.));
#510=DIRECTION('ref_axis',(1.,0.,0.));
#511=DIRECTION('',(0.,-1.,0.));
#512=DIRECTION('center_axis',(0.,1.,0.));
#513=DIRECTION('ref_axis',(1.,0.,0.));
#514=DIRECTION('center_axis',(0.,-1.,0.));
#515=DIRECTION('ref_axis',(1.,0.,0.));
#516=DIRECTION('',(1.,0.,0.));
#517=DIRECTION('',(1.,0.,0.));
#518=DIRECTION('center_axis',(0.,1.,0.));
#519=DIRECTION('ref_axis',(1.,0.,0.));
#520=DIRECTION('',(1.,0.,0.));
#521=DIRECTION('',(0.,0.,1.));
#522=DIRECTION('center_axis',(0.,1.,0.));
#523=DIRECTION('ref_axis',(1.,0.,0.));
#524=DIRECTION('',(1.,0.,0.));
#525=DIRECTION('center_axis',(0.,1.,0.));
#526=DIRECTION('ref_axis',(1.,0.,0.));
#527=DIRECTION('',(0.,0.,-1.));
#528=DIRECTION('',(1.,0.,0.));
#529=DIRECTION('center_axis',(0.,0.,-1.));
#530=DIRECTION('ref_axis',(1.,0.,0.));
#531=DIRECTION('',(1.,0.,0.));
#532=DIRECTION('',(0.,-1.,0.));
#533=DIRECTION('',(0.,-1.,0.));
#534=DIRECTION('center_axis',(0.,-1.,0.));
#535=DIRECTION('ref_axis',(2.83276944882399E-16,0.,1.));
#536=DIRECTION('center_axis',(0.,1.,0.));
#537=DIRECTION('ref_axis',(1.,0.,0.));
#538=DIRECTION('',(0.,-1.,0.));
#539=DIRECTION('center_axis',(0.,0.,-1.));
#540=DIRECTION('ref_axis',(1.,0.,0.));
#541=DIRECTION('',(0.,-1.,0.));
#542=DIRECTION('',(1.,0.,0.));
#543=DIRECTION('center_axis',(-1.,0.,0.));
#544=DIRECTION('ref_axis',(0.,0.,-1.));
#545=DIRECTION('',(0.,0.,-1.));
#546=DIRECTION('',(0.,-1.,0.));
#547=DIRECTION('center_axis',(0.,-1.,0.));
#548=DIRECTION('ref_axis',(1.,0.,0.));
#549=DIRECTION('center_axis',(0.,1.,0.));
#550=DIRECTION('ref_axis',(1.,0.,0.));
#551=DIRECTION('',(0.,-1.,0.));
#552=DIRECTION('center_axis',(0.,0.,-1.));
#553=DIRECTION('ref_axis',(1.,0.,0.));
#554=DIRECTION('',(1.,0.,0.));
#555=DIRECTION('',(0.,-1.,0.));
#556=DIRECTION('center_axis',(0.,-1.,0.));
#557=DIRECTION('ref_axis',(1.,0.,0.));
#558=DIRECTION('center_axis',(0.,1.,0.));
#559=DIRECTION('ref_axis',(1.,0.,0.));
#560=DIRECTION('',(0.,-1.,0.));
#561=DIRECTION('center_axis',(1.,0.,0.));
#562=DIRECTION('ref_axis',(0.,0.,1.));
#563=DIRECTION('',(0.,0.,-1.));
#564=DIRECTION('center_axis',(0.,1.,0.));
#565=DIRECTION('ref_axis',(1.,0.,0.));
#566=DIRECTION('center_axis',(-1.,-4.1355807667287E-15,-1.4432899320127E-15));
#567=DIRECTION('ref_axis',(1.4210854715202E-15,1.77635683940025E-16,-1.));
#568=DIRECTION('center_axis',(-1.,-4.1355807667287E-15,-1.4432899320127E-15));
#569=DIRECTION('ref_axis',(1.43403807347416E-15,-1.01770443923974E-16,-1.));
#570=DIRECTION('center_axis',(1.,4.1355807667287E-15,1.4432899320127E-15));
#571=DIRECTION('ref_axis',(1.4432899320127E-15,-1.01770443923974E-16,-1.));
#572=DIRECTION('center_axis',(1.,4.16333634234434E-15,1.38777878078145E-15));
#573=DIRECTION('ref_axis',(4.16333634234434E-15,-1.,5.54667823983488E-32));
#574=DIRECTION('center_axis',(1.,4.1355807667287E-15,1.4432899320127E-15));
#575=DIRECTION('ref_axis',(4.1355807667287E-15,-1.,1.69481835105972E-32));
#576=DIRECTION('',(-1.,-4.16333634234434E-15,-1.38777878078145E-15));
#577=DIRECTION('',(1.,4.16333634234434E-15,1.38777878078145E-15));
#578=DIRECTION('center_axis',(-1.,-4.1355807667287E-15,-1.4432899320127E-15));
#579=DIRECTION('ref_axis',(4.1355807667287E-15,-1.,1.69481835105972E-32));
#580=DIRECTION('',(1.,4.16333634234434E-15,1.38777878078145E-15));
#581=DIRECTION('center_axis',(-1.,-4.1355807667287E-15,-1.4432899320127E-15));
#582=DIRECTION('ref_axis',(4.1355807667287E-15,-1.,1.69481835105972E-32));
#583=DIRECTION('center_axis',(-1.,-4.1355807667287E-15,-1.4432899320127E-15));
#584=DIRECTION('ref_axis',(4.1355807667287E-15,-1.,1.69481835105972E-32));
#585=DIRECTION('center_axis',(-1.,-4.1355807667287E-15,-1.4432899320127E-15));
#586=DIRECTION('ref_axis',(4.1355807667287E-15,-1.,1.69481835105972E-32));
#587=DIRECTION('',(1.4432899320127E-15,-6.93889390390663E-17,-1.));
#588=DIRECTION('center_axis',(1.,4.1355807667287E-15,1.4432899320127E-15));
#589=DIRECTION('ref_axis',(-4.1355807667287E-15,1.,-1.69481835105972E-32));
#590=DIRECTION('',(-1.4432899320127E-15,-9.25185853854356E-17,1.));
#591=DIRECTION('center_axis',(-1.,-4.1355807667287E-15,-1.4432899320127E-15));
#592=DIRECTION('ref_axis',(-4.1355807667287E-15,1.,-1.69481835105972E-32));
#593=DIRECTION('',(-1.4432899320127E-15,-1.73472347597687E-16,1.));
#594=DIRECTION('center_axis',(-1.,-4.1355807667287E-15,-1.4432899320127E-15));
#595=DIRECTION('ref_axis',(4.1355807667287E-15,-1.,1.69481835105972E-32));
#596=DIRECTION('',(1.4432899320127E-15,1.73472347597687E-16,-1.));
#597=DIRECTION('center_axis',(4.16333634234434E-15,-1.,-1.73472347597681E-16));
#598=DIRECTION('ref_axis',(1.4432899320127E-15,1.73472347597687E-16,-1.));
#599=DIRECTION('',(-1.4432899320127E-15,-1.73472347597687E-16,1.));
#600=DIRECTION('',(1.,4.16333634234434E-15,1.38777878078145E-15));
#601=DIRECTION('',(1.,4.16333634234434E-15,1.38777878078145E-15));
#602=DIRECTION('center_axis',(1.,4.16333634234434E-15,1.38777878078145E-15));
#603=DIRECTION('ref_axis',(4.16333634234434E-15,-1.,5.54667823983479E-32));
#604=DIRECTION('center_axis',(1.,4.1355807667287E-15,1.4432899320127E-15));
#605=DIRECTION('ref_axis',(4.1355807667287E-15,-1.,1.69481835105972E-32));
#606=DIRECTION('',(1.,4.16333634234434E-15,1.38777878078145E-15));
#607=DIRECTION('center_axis',(-4.16333634234434E-15,1.,1.73472347597681E-16));
#608=DIRECTION('ref_axis',(-1.4432899320127E-15,-1.73472347597687E-16,1.));
#609=DIRECTION('',(1.4432899320127E-15,1.73472347597687E-16,-1.));
#610=DIRECTION('',(1.,4.16333634234434E-15,1.38777878078145E-15));
#611=DIRECTION('center_axis',(1.,4.16333634234434E-15,1.38777878078145E-15));
#612=DIRECTION('ref_axis',(-4.16333634234434E-15,1.,-5.54667823983479E-32));
#613=DIRECTION('center_axis',(1.,4.1355807667287E-15,1.4432899320127E-15));
#614=DIRECTION('ref_axis',(-4.1355807667287E-15,1.,-1.69481835105972E-32));
#615=DIRECTION('center_axis',(1.,4.16333634234434E-15,1.38777878078145E-15));
#616=DIRECTION('ref_axis',(4.16333634234434E-15,-1.,5.54667823983486E-32));
#617=DIRECTION('',(-1.,-4.16333634234434E-15,-1.38777878078145E-15));
#618=DIRECTION('center_axis',(1.,4.1355807667287E-15,1.4432899320127E-15));
#619=DIRECTION('ref_axis',(4.1355807667287E-15,-1.,1.69481835105972E-32));
#620=DIRECTION('center_axis',(-4.16333634234434E-15,1.,9.25185853854296E-17));
#621=DIRECTION('ref_axis',(-1.4432899320127E-15,-9.25185853854356E-17,1.));
#622=DIRECTION('',(1.4432899320127E-15,9.25185853854356E-17,-1.));
#623=DIRECTION('',(1.,4.16333634234434E-15,1.38777878078145E-15));
#624=DIRECTION('center_axis',(1.,4.16333634234434E-15,1.38777878078145E-15));
#625=DIRECTION('ref_axis',(-4.16333634234434E-15,1.,-5.54667823983488E-32));
#626=DIRECTION('center_axis',(-1.,-4.1355807667287E-15,-1.4432899320127E-15));
#627=DIRECTION('ref_axis',(-4.1355807667287E-15,1.,-1.69481835105972E-32));
#628=DIRECTION('',(1.,4.16333634234434E-15,1.38777878078145E-15));
#629=DIRECTION('center_axis',(4.16333634234434E-15,-1.,6.93889390390723E-17));
#630=DIRECTION('ref_axis',(1.4432899320127E-15,-6.93889390390663E-17,-1.));
#631=DIRECTION('',(-1.4432899320127E-15,6.93889390390663E-17,1.));
#632=DIRECTION('center_axis',(-1.,-4.1355807667287E-15,-1.4432899320127E-15));
#633=DIRECTION('ref_axis',(4.1355807667287E-15,-1.,1.69481835105972E-32));
#634=CARTESIAN_POINT('',(0.,0.,0.));
#635=CARTESIAN_POINT('Origin',(0.,0.,0.));
#636=CARTESIAN_POINT('',(15.1155549021529,-1.2,-17.6));
#637=CARTESIAN_POINT('',(-15.1155549021529,-1.2,-17.6));
#638=CARTESIAN_POINT('Origin',(0.,-1.2,0.));
#639=CARTESIAN_POINT('',(15.1155549021529,-3.2,-17.6));
#640=CARTESIAN_POINT('',(15.1155549021529,0.,-17.6));
#641=CARTESIAN_POINT('',(-15.1155549021529,-3.2,-17.6));
#642=CARTESIAN_POINT('Origin',(0.,-3.2,0.));
#643=CARTESIAN_POINT('',(-15.1155549021529,0.,-17.6));
#644=CARTESIAN_POINT('Origin',(0.,-3.2,3.4));
#645=CARTESIAN_POINT('',(16.8997041394221,-3.2,-17.6));
#646=CARTESIAN_POINT('',(-16.8997041394221,-3.2,-17.6));
#647=CARTESIAN_POINT('Origin',(0.,-3.2,0.));
#648=CARTESIAN_POINT('',(-16.8997041394221,-3.2,-17.6));
#649=CARTESIAN_POINT('',(-16.8997041394221,-3.2,-17.6));
#650=CARTESIAN_POINT('Origin',(0.,-1.2,3.4));
#651=CARTESIAN_POINT('',(-5.,-1.2,-17.6));
#652=CARTESIAN_POINT('',(-16.8997041394221,-1.2,-17.6));
#653=CARTESIAN_POINT('',(-5.,-1.2,-15.6192189305355));
#654=CARTESIAN_POINT('',(-5.,-1.2,0.));
#655=CARTESIAN_POINT('',(-16.3694838037123,-1.2,-1.));
#656=CARTESIAN_POINT('Origin',(0.,-1.2,0.));
#657=CARTESIAN_POINT('',(16.3694838037123,-1.2,-1.));
#658=CARTESIAN_POINT('',(-24.3794995846921,-1.2,-1.));
#659=CARTESIAN_POINT('',(5.,-1.2,-15.6192189305355));
#660=CARTESIAN_POINT('Origin',(0.,-1.2,0.));
#661=CARTESIAN_POINT('',(5.,-1.2,-17.6));
#662=CARTESIAN_POINT('',(5.,-1.2,0.));
#663=CARTESIAN_POINT('',(-16.8997041394221,-1.2,-17.6));
#664=CARTESIAN_POINT('Origin',(-16.8997041394221,0.,-17.6));
#665=CARTESIAN_POINT('',(-16.8997041394221,0.,-17.6));
#666=CARTESIAN_POINT('',(-5.,0.,-17.6));
#667=CARTESIAN_POINT('',(-16.8997041394221,0.,-17.6));
#668=CARTESIAN_POINT('',(-5.,0.,-17.6));
#669=CARTESIAN_POINT('',(-16.8997041394221,0.,-17.6));
#670=CARTESIAN_POINT('Origin',(0.,0.,0.));
#671=CARTESIAN_POINT('',(16.8997041394221,0.,-17.6));
#672=CARTESIAN_POINT('Origin',(0.,0.,0.));
#673=CARTESIAN_POINT('',(16.8997041394221,0.,-17.6));
#674=CARTESIAN_POINT('Origin',(5.,0.,-17.6));
#675=CARTESIAN_POINT('',(5.,0.,-17.6));
#676=CARTESIAN_POINT('',(5.,0.,-17.6));
#677=CARTESIAN_POINT('',(-16.8997041394221,0.,-17.6));
#678=CARTESIAN_POINT('Origin',(5.,0.,-15.6192189305355));
#679=CARTESIAN_POINT('',(5.,0.,-15.6192189305355));
#680=CARTESIAN_POINT('',(5.,0.,0.));
#681=CARTESIAN_POINT('',(5.,0.,-15.6192189305355));
#682=CARTESIAN_POINT('Origin',(0.,0.,0.));
#683=CARTESIAN_POINT('',(16.3694838037123,0.,-1.));
#684=CARTESIAN_POINT('Origin',(0.,0.,0.));
#685=CARTESIAN_POINT('',(16.3694838037123,0.,-1.));
#686=CARTESIAN_POINT('Origin',(-16.3694838037123,0.,-1.));
#687=CARTESIAN_POINT('',(-16.3694838037123,0.,-1.));
#688=CARTESIAN_POINT('',(-24.3794995846921,0.,-1.));
#689=CARTESIAN_POINT('',(-16.3694838037123,0.,-1.));
#690=CARTESIAN_POINT('Origin',(0.,0.,0.));
#691=CARTESIAN_POINT('',(-5.,0.,-15.6192189305355));
#692=CARTESIAN_POINT('Origin',(0.,0.,0.));
#693=CARTESIAN_POINT('',(-5.,0.,-15.6192189305355));
#694=CARTESIAN_POINT('Origin',(-5.,0.,-17.6));
#695=CARTESIAN_POINT('',(-5.,0.,0.));
#696=CARTESIAN_POINT('Origin',(0.,0.,3.4));
#697=CARTESIAN_POINT('Origin',(-3.80955142061709,5.09801003267596,-1.5095509286739));
#698=CARTESIAN_POINT('',(-4.8095514206171,8.09801003267595,-4.1553022397385));
#699=CARTESIAN_POINT('',(-3.80955142061711,8.09801003267596,-1.5095509286739));
#700=CARTESIAN_POINT('Ctrl Pts',(-4.8095514206171,8.09801003267595,-4.1553022397385));
#701=CARTESIAN_POINT('Ctrl Pts',(-4.8095514206171,8.09801003267595,-3.24490890265839));
#702=CARTESIAN_POINT('Ctrl Pts',(-4.26474808915716,8.09801003267596,-2.29797468602137));
#703=CARTESIAN_POINT('Ctrl Pts',(-3.80955142061711,8.09801003267596,-1.5095509286739));
#704=CARTESIAN_POINT('',(-3.80955142061708,2.09801003267596,-1.5095509286739));
#705=CARTESIAN_POINT('Origin',(-3.80955142061709,5.09801003267596,-1.5095509286739));
#706=CARTESIAN_POINT('',(-4.80955142061708,2.09801003267596,-4.1553022397385));
#707=CARTESIAN_POINT('Ctrl Pts',(-3.80955142061708,2.09801003267596,-1.5095509286739));
#708=CARTESIAN_POINT('Ctrl Pts',(-4.26474808915714,2.09801003267596,-2.29797468602137));
#709=CARTESIAN_POINT('Ctrl Pts',(-4.80955142061708,2.09801003267596,-3.24490890265838));
#710=CARTESIAN_POINT('Ctrl Pts',(-4.80955142061708,2.09801003267596,-4.1553022397385));
#711=CARTESIAN_POINT('Origin',(-4.80955142061709,5.09801003267596,-1.5095509286739));
#712=CARTESIAN_POINT('Origin',(-6.40955142061709,5.09801003267595,-1.50955092867391));
#713=CARTESIAN_POINT('',(-3.40955142061711,8.09801003267596,-1.5095509286739));
#714=CARTESIAN_POINT('Origin',(-3.40955142061709,5.09801003267596,-1.5095509286739));
#715=CARTESIAN_POINT('',(-6.40955142061711,8.09801003267595,-1.50955092867391));
#716=CARTESIAN_POINT('',(-6.40955142061711,8.09801003267595,-1.50955092867391));
#717=CARTESIAN_POINT('',(-6.40955142061711,8.09801003267595,-1.50955092867391));
#718=CARTESIAN_POINT('',(-6.40955142061708,2.09801003267595,-1.50955092867391));
#719=CARTESIAN_POINT('Origin',(-6.40955142061709,5.09801003267595,-1.50955092867391));
#720=CARTESIAN_POINT('',(-6.40955142061708,2.09801003267595,-1.50955092867391));
#721=CARTESIAN_POINT('Origin',(-3.40955142061709,5.09801003267596,-1.5095509286739));
#722=CARTESIAN_POINT('',(-3.4095514206171,7.09801003267596,-1.5095509286739));
#723=CARTESIAN_POINT('Origin',(-3.40955142061709,5.09801003267596,-1.5095509286739));
#724=CARTESIAN_POINT('Origin',(-4.80955142061709,5.09801003267596,-7.50955092867391));
#725=CARTESIAN_POINT('',(-4.80955142061706,2.09801003267596,-13.5095509286739));
#726=CARTESIAN_POINT('',(-4.80955142061706,2.09801003267596,-13.5095509286739));
#727=CARTESIAN_POINT('',(-4.80955142061709,8.09801003267596,-13.5095509286739));
#728=CARTESIAN_POINT('Origin',(-4.80955142061708,5.09801003267596,-13.5095509286739));
#729=CARTESIAN_POINT('',(-4.80955142061711,8.09801003267595,-1.5095509286739));
#730=CARTESIAN_POINT('',(-4.80955142061708,6.49801003267596,-13.5095509286739));
#731=CARTESIAN_POINT('',(-4.80955142061707,3.69801003267596,-13.5095509286739));
#732=CARTESIAN_POINT('Origin',(-4.80955142061708,5.09801003267596,-13.5095509286739));
#733=CARTESIAN_POINT('',(-4.80955142061708,3.69801003267595,-7.10955092867391));
#734=CARTESIAN_POINT('',(-4.80955142061707,3.69801003267596,-13.5095509286739));
#735=CARTESIAN_POINT('',(-4.80955142061709,6.49801003267596,-7.10955092867391));
#736=CARTESIAN_POINT('Origin',(-4.80955142061709,5.09801003267595,-7.10955092867391));
#737=CARTESIAN_POINT('',(-4.80955142061709,6.49801003267596,-7.10955092867391));
#738=CARTESIAN_POINT('Origin',(-6.40955142061709,6.49801003267595,-7.10955092867391));
#739=CARTESIAN_POINT('',(-6.40955142061708,6.49801003267595,-13.5095509286739));
#740=CARTESIAN_POINT('',(-6.40955142061709,6.49801003267595,-7.10955092867391));
#741=CARTESIAN_POINT('',(-6.40955142061709,6.49801003267595,-7.10955092867391));
#742=CARTESIAN_POINT('',(-6.40955142061708,6.49801003267595,-13.5095509286739));
#743=CARTESIAN_POINT('',(-6.40955142061709,6.49801003267595,-7.10955092867391));
#744=CARTESIAN_POINT('Origin',(-6.40955142061709,5.09801003267595,-7.10955092867391));
#745=CARTESIAN_POINT('',(-6.40955142061708,3.69801003267595,-7.10955092867391));
#746=CARTESIAN_POINT('Origin',(-6.40955142061709,5.09801003267595,-7.10955092867391));
#747=CARTESIAN_POINT('',(-6.40955142061708,3.69801003267595,-7.10955092867391));
#748=CARTESIAN_POINT('Origin',(-6.40955142061707,3.69801003267595,-13.5095509286739));
#749=CARTESIAN_POINT('',(-6.40955142061707,3.69801003267595,-13.5095509286739));
#750=CARTESIAN_POINT('',(-6.40955142061707,3.69801003267595,-13.5095509286739));
#751=CARTESIAN_POINT('',(-6.40955142061707,3.69801003267595,-13.5095509286739));
#752=CARTESIAN_POINT('Origin',(-6.40955142061708,5.09801003267595,-13.5095509286739));
#753=CARTESIAN_POINT('Origin',(-6.40955142061708,5.09801003267595,-13.5095509286739));
#754=CARTESIAN_POINT('Origin',(-6.40955142061709,5.09801003267595,-1.50955092867391));
#755=CARTESIAN_POINT('',(-6.4095514206171,7.09801003267595,-1.50955092867391));
#756=CARTESIAN_POINT('',(-6.4095514206171,7.09801003267595,-1.50955092867391));
#757=CARTESIAN_POINT('Origin',(-6.40955142061709,5.09801003267595,-1.50955092867391));
#758=CARTESIAN_POINT('Origin',(-6.40955142061709,8.09801003267595,-13.5095509286739));
#759=CARTESIAN_POINT('',(-6.40955142061709,8.09801003267595,-13.5095509286739));
#760=CARTESIAN_POINT('',(-6.40955142061711,8.09801003267595,-1.50955092867391));
#761=CARTESIAN_POINT('',(-6.40955142061709,8.09801003267595,-13.5095509286739));
#762=CARTESIAN_POINT('Origin',(-6.40955142061708,5.09801003267595,-13.5095509286739));
#763=CARTESIAN_POINT('',(-6.40955142061706,2.09801003267595,-13.5095509286739));
#764=CARTESIAN_POINT('Origin',(-6.40955142061708,5.09801003267595,-13.5095509286739));
#765=CARTESIAN_POINT('',(-6.40955142061706,2.09801003267595,-13.5095509286739));
#766=CARTESIAN_POINT('Origin',(-6.40955142061708,2.09801003267595,-1.50955092867391));
#767=CARTESIAN_POINT('',(-6.40955142061706,2.09801003267595,-13.5095509286739));
#768=CARTESIAN_POINT('Origin',(-6.40955142061709,5.09801003267595,-7.50955092867391));
#769=UNCERTAINTY_MEASURE_WITH_UNIT(LENGTH_MEASURE(0.01),#773,
'DISTANCE_ACCURACY_VALUE',
'Maximum model space distance between geometric entities at asserted c
onnectivities');
#770=UNCERTAINTY_MEASURE_WITH_UNIT(LENGTH_MEASURE(0.01),#773,
'DISTANCE_ACCURACY_VALUE',
'Maximum model space distance between geometric entities at asserted c
onnectivities');
#771=(
GEOMETRIC_REPRESENTATION_CONTEXT(3)
GLOBAL_UNCERTAINTY_ASSIGNED_CONTEXT((#769))
GLOBAL_UNIT_ASSIGNED_CONTEXT((#773,#774,#775))
REPRESENTATION_CONTEXT('','3D')
);
#772=(
GEOMETRIC_REPRESENTATION_CONTEXT(3)
GLOBAL_UNCERTAINTY_ASSIGNED_CONTEXT((#770))
GLOBAL_UNIT_ASSIGNED_CONTEXT((#773,#774,#775))
REPRESENTATION_CONTEXT('','3D')
);
#773=(
LENGTH_UNIT()
NAMED_UNIT(*)
SI_UNIT(.MILLI.,.METRE.)
);
#774=(
NAMED_UNIT(*)
PLANE_ANGLE_UNIT()
SI_UNIT($,.RADIAN.)
);
#775=(
NAMED_UNIT(*)
SI_UNIT($,.STERADIAN.)
SOLID_ANGLE_UNIT()
);
#776=SHAPE_DEFINITION_REPRESENTATION(#777,#778);
#777=PRODUCT_DEFINITION_SHAPE('',$,#780);
#778=SHAPE_REPRESENTATION('',(#456),#771);
#779=PRODUCT_DEFINITION_CONTEXT('part definition',#784,'design');
#780=PRODUCT_DEFINITION('Cannon Mount','Cannon Mount v6',#781,#779);
#781=PRODUCT_DEFINITION_FORMATION('',$,#786);
#782=PRODUCT_RELATED_PRODUCT_CATEGORY('Cannon Mount v6',
'Cannon Mount v6',(#786));
#783=APPLICATION_PROTOCOL_DEFINITION('international standard',
'automotive_design',2009,#784);
#784=APPLICATION_CONTEXT(
'Core Data for Automotive Mechanical Design Process');
#785=PRODUCT_CONTEXT('part definition',#784,'mechanical');
#786=PRODUCT('Cannon Mount','Cannon Mount v6',$,(#785));
#787=PRESENTATION_STYLE_ASSIGNMENT((#788));
#788=SURFACE_STYLE_USAGE(.BOTH.,#789);
#789=SURFACE_SIDE_STYLE('',(#790));
#790=SURFACE_STYLE_FILL_AREA(#791);
#791=FILL_AREA_STYLE('Steel - Satin',(#792));
#792=FILL_AREA_STYLE_COLOUR('Steel - Satin',#793);
#793=COLOUR_RGB('Steel - Satin',0.627450980392157,0.627450980392157,0.627450980392157);
ENDSEC;
END-ISO-10303-21;
