ISO-10303-21;
HEADER;
/* Generated by software containing ST-Developer
 * from STEP Tools, Inc. (www.steptools.com) 
 */

FILE_DESCRIPTION(
/* description */ (''),
/* implementation_level */ '2;1');

FILE_NAME(
/* name */ 'Motor Guide 2mm.step',
/* time_stamp */ '2026-07-01T22:03:32+09:00',
/* author */ (''),
/* organization */ (''),
/* preprocessor_version */ 'ST-DEVELOPER v20.1',
/* originating_system */ 'Autodesk Translation Framework v15.8.0.0',
/* authorisation */ '');

FILE_SCHEMA (('AUTOMOTIVE_DESIGN { 1 0 10303 214 3 1 1 }'));
ENDSEC;

DATA;
#10=MECHANICAL_DESIGN_GEOMETRIC_PRESENTATION_REPRESENTATION('',(#17,#18),
#558);
#11=ITEM_DEFINED_TRANSFORMATION($,$,#350,#373);
#12=(
REPRESENTATION_RELATIONSHIP($,$,#569,#568)
REPRESENTATION_RELATIONSHIP_WITH_TRANSFORMATION(#11)
SHAPE_REPRESENTATION_RELATIONSHIP()
);
#13=CONTEXT_DEPENDENT_SHAPE_REPRESENTATION(#12,#567);
#14=NEXT_ASSEMBLY_USAGE_OCCURRENCE('Sproket Holder:1',
'Sproket Holder:1','Sproket Holder:1',#571,#572,'Sproket Holder:1');
#15=SHAPE_REPRESENTATION_RELATIONSHIP('SRR','None',#569,#16);
#16=ADVANCED_BREP_SHAPE_REPRESENTATION('',(#19,#20),#557);
#17=STYLED_ITEM('',(#582),#19);
#18=STYLED_ITEM('',(#582),#20);
#19=MANIFOLD_SOLID_BREP('Body2',#335);
#20=MANIFOLD_SOLID_BREP('Body3',#336);
#21=FACE_BOUND('',#57,.T.);
#22=FACE_BOUND('',#59,.T.);
#23=FACE_BOUND('',#68,.T.);
#24=FACE_BOUND('',#70,.T.);
#25=CIRCLE('',#358,2.6);
#26=CIRCLE('',#359,2.6);
#27=CIRCLE('',#369,2.6);
#28=CIRCLE('',#370,2.6);
#29=CYLINDRICAL_SURFACE('',#357,2.6);
#30=CYLINDRICAL_SURFACE('',#368,2.6);
#31=FACE_OUTER_BOUND('',#49,.T.);
#32=FACE_OUTER_BOUND('',#50,.T.);
#33=FACE_OUTER_BOUND('',#51,.T.);
#34=FACE_OUTER_BOUND('',#52,.T.);
#35=FACE_OUTER_BOUND('',#53,.T.);
#36=FACE_OUTER_BOUND('',#54,.T.);
#37=FACE_OUTER_BOUND('',#55,.T.);
#38=FACE_OUTER_BOUND('',#56,.T.);
#39=FACE_OUTER_BOUND('',#58,.T.);
#40=FACE_OUTER_BOUND('',#60,.T.);
#41=FACE_OUTER_BOUND('',#61,.T.);
#42=FACE_OUTER_BOUND('',#62,.T.);
#43=FACE_OUTER_BOUND('',#63,.T.);
#44=FACE_OUTER_BOUND('',#64,.T.);
#45=FACE_OUTER_BOUND('',#65,.T.);
#46=FACE_OUTER_BOUND('',#66,.T.);
#47=FACE_OUTER_BOUND('',#67,.T.);
#48=FACE_OUTER_BOUND('',#69,.T.);
#49=EDGE_LOOP('',(#217,#218,#219,#220));
#50=EDGE_LOOP('',(#221,#222,#223,#224));
#51=EDGE_LOOP('',(#225,#226,#227,#228));
#52=EDGE_LOOP('',(#229,#230,#231,#232));
#53=EDGE_LOOP('',(#233,#234,#235,#236));
#54=EDGE_LOOP('',(#237,#238,#239,#240));
#55=EDGE_LOOP('',(#241,#242,#243,#244));
#56=EDGE_LOOP('',(#245));
#57=EDGE_LOOP('',(#246,#247,#248,#249,#250,#251));
#58=EDGE_LOOP('',(#252));
#59=EDGE_LOOP('',(#253,#254,#255,#256,#257,#258));
#60=EDGE_LOOP('',(#259,#260,#261,#262));
#61=EDGE_LOOP('',(#263,#264,#265,#266));
#62=EDGE_LOOP('',(#267,#268,#269,#270));
#63=EDGE_LOOP('',(#271,#272,#273,#274));
#64=EDGE_LOOP('',(#275,#276,#277,#278));
#65=EDGE_LOOP('',(#279,#280,#281,#282));
#66=EDGE_LOOP('',(#283,#284,#285,#286));
#67=EDGE_LOOP('',(#287));
#68=EDGE_LOOP('',(#288,#289,#290,#291,#292,#293));
#69=EDGE_LOOP('',(#294));
#70=EDGE_LOOP('',(#295,#296,#297,#298,#299,#300));
#71=LINE('',#467,#109);
#72=LINE('',#469,#110);
#73=LINE('',#471,#111);
#74=LINE('',#472,#112);
#75=LINE('',#475,#113);
#76=LINE('',#477,#114);
#77=LINE('',#478,#115);
#78=LINE('',#481,#116);
#79=LINE('',#483,#117);
#80=LINE('',#484,#118);
#81=LINE('',#487,#119);
#82=LINE('',#489,#120);
#83=LINE('',#490,#121);
#84=LINE('',#493,#122);
#85=LINE('',#495,#123);
#86=LINE('',#496,#124);
#87=LINE('',#498,#125);
#88=LINE('',#499,#126);
#89=LINE('',#504,#127);
#90=LINE('',#511,#128);
#91=LINE('',#513,#129);
#92=LINE('',#515,#130);
#93=LINE('',#516,#131);
#94=LINE('',#519,#132);
#95=LINE('',#521,#133);
#96=LINE('',#522,#134);
#97=LINE('',#525,#135);
#98=LINE('',#527,#136);
#99=LINE('',#528,#137);
#100=LINE('',#531,#138);
#101=LINE('',#533,#139);
#102=LINE('',#534,#140);
#103=LINE('',#537,#141);
#104=LINE('',#539,#142);
#105=LINE('',#540,#143);
#106=LINE('',#542,#144);
#107=LINE('',#543,#145);
#108=LINE('',#548,#146);
#109=VECTOR('',#380,10.);
#110=VECTOR('',#381,10.);
#111=VECTOR('',#382,10.);
#112=VECTOR('',#383,10.);
#113=VECTOR('',#386,10.);
#114=VECTOR('',#387,10.);
#115=VECTOR('',#388,10.);
#116=VECTOR('',#391,10.);
#117=VECTOR('',#392,10.);
#118=VECTOR('',#393,10.);
#119=VECTOR('',#396,10.);
#120=VECTOR('',#397,10.);
#121=VECTOR('',#398,10.);
#122=VECTOR('',#401,10.);
#123=VECTOR('',#402,10.);
#124=VECTOR('',#403,10.);
#125=VECTOR('',#406,10.);
#126=VECTOR('',#407,10.);
#127=VECTOR('',#412,2.6);
#128=VECTOR('',#421,10.);
#129=VECTOR('',#422,10.);
#130=VECTOR('',#423,10.);
#131=VECTOR('',#424,10.);
#132=VECTOR('',#427,10.);
#133=VECTOR('',#428,10.);
#134=VECTOR('',#429,10.);
#135=VECTOR('',#432,10.);
#136=VECTOR('',#433,10.);
#137=VECTOR('',#434,10.);
#138=VECTOR('',#437,10.);
#139=VECTOR('',#438,10.);
#140=VECTOR('',#439,10.);
#141=VECTOR('',#442,10.);
#142=VECTOR('',#443,10.);
#143=VECTOR('',#444,10.);
#144=VECTOR('',#447,10.);
#145=VECTOR('',#448,10.);
#146=VECTOR('',#453,2.6);
#147=VERTEX_POINT('',#465);
#148=VERTEX_POINT('',#466);
#149=VERTEX_POINT('',#468);
#150=VERTEX_POINT('',#470);
#151=VERTEX_POINT('',#474);
#152=VERTEX_POINT('',#476);
#153=VERTEX_POINT('',#480);
#154=VERTEX_POINT('',#482);
#155=VERTEX_POINT('',#486);
#156=VERTEX_POINT('',#488);
#157=VERTEX_POINT('',#492);
#158=VERTEX_POINT('',#494);
#159=VERTEX_POINT('',#501);
#160=VERTEX_POINT('',#503);
#161=VERTEX_POINT('',#509);
#162=VERTEX_POINT('',#510);
#163=VERTEX_POINT('',#512);
#164=VERTEX_POINT('',#514);
#165=VERTEX_POINT('',#518);
#166=VERTEX_POINT('',#520);
#167=VERTEX_POINT('',#524);
#168=VERTEX_POINT('',#526);
#169=VERTEX_POINT('',#530);
#170=VERTEX_POINT('',#532);
#171=VERTEX_POINT('',#536);
#172=VERTEX_POINT('',#538);
#173=VERTEX_POINT('',#545);
#174=VERTEX_POINT('',#547);
#175=EDGE_CURVE('',#147,#148,#71,.T.);
#176=EDGE_CURVE('',#148,#149,#72,.T.);
#177=EDGE_CURVE('',#150,#149,#73,.T.);
#178=EDGE_CURVE('',#147,#150,#74,.T.);
#179=EDGE_CURVE('',#151,#147,#75,.T.);
#180=EDGE_CURVE('',#152,#150,#76,.T.);
#181=EDGE_CURVE('',#151,#152,#77,.T.);
#182=EDGE_CURVE('',#153,#151,#78,.T.);
#183=EDGE_CURVE('',#154,#152,#79,.T.);
#184=EDGE_CURVE('',#153,#154,#80,.T.);
#185=EDGE_CURVE('',#155,#153,#81,.T.);
#186=EDGE_CURVE('',#156,#154,#82,.T.);
#187=EDGE_CURVE('',#155,#156,#83,.T.);
#188=EDGE_CURVE('',#157,#155,#84,.T.);
#189=EDGE_CURVE('',#158,#156,#85,.T.);
#190=EDGE_CURVE('',#157,#158,#86,.T.);
#191=EDGE_CURVE('',#148,#157,#87,.T.);
#192=EDGE_CURVE('',#149,#158,#88,.T.);
#193=EDGE_CURVE('',#159,#159,#25,.T.);
#194=EDGE_CURVE('',#159,#160,#89,.T.);
#195=EDGE_CURVE('',#160,#160,#26,.T.);
#196=EDGE_CURVE('',#161,#162,#90,.T.);
#197=EDGE_CURVE('',#162,#163,#91,.T.);
#198=EDGE_CURVE('',#164,#163,#92,.T.);
#199=EDGE_CURVE('',#161,#164,#93,.T.);
#200=EDGE_CURVE('',#165,#161,#94,.T.);
#201=EDGE_CURVE('',#166,#164,#95,.T.);
#202=EDGE_CURVE('',#165,#166,#96,.T.);
#203=EDGE_CURVE('',#167,#165,#97,.T.);
#204=EDGE_CURVE('',#168,#166,#98,.T.);
#205=EDGE_CURVE('',#167,#168,#99,.T.);
#206=EDGE_CURVE('',#169,#167,#100,.T.);
#207=EDGE_CURVE('',#170,#168,#101,.T.);
#208=EDGE_CURVE('',#169,#170,#102,.T.);
#209=EDGE_CURVE('',#171,#169,#103,.T.);
#210=EDGE_CURVE('',#172,#170,#104,.T.);
#211=EDGE_CURVE('',#171,#172,#105,.T.);
#212=EDGE_CURVE('',#162,#171,#106,.T.);
#213=EDGE_CURVE('',#163,#172,#107,.T.);
#214=EDGE_CURVE('',#173,#173,#27,.T.);
#215=EDGE_CURVE('',#173,#174,#108,.T.);
#216=EDGE_CURVE('',#174,#174,#28,.T.);
#217=ORIENTED_EDGE('',*,*,#175,.T.);
#218=ORIENTED_EDGE('',*,*,#176,.T.);
#219=ORIENTED_EDGE('',*,*,#177,.F.);
#220=ORIENTED_EDGE('',*,*,#178,.F.);
#221=ORIENTED_EDGE('',*,*,#179,.T.);
#222=ORIENTED_EDGE('',*,*,#178,.T.);
#223=ORIENTED_EDGE('',*,*,#180,.F.);
#224=ORIENTED_EDGE('',*,*,#181,.F.);
#225=ORIENTED_EDGE('',*,*,#182,.T.);
#226=ORIENTED_EDGE('',*,*,#181,.T.);
#227=ORIENTED_EDGE('',*,*,#183,.F.);
#228=ORIENTED_EDGE('',*,*,#184,.F.);
#229=ORIENTED_EDGE('',*,*,#185,.T.);
#230=ORIENTED_EDGE('',*,*,#184,.T.);
#231=ORIENTED_EDGE('',*,*,#186,.F.);
#232=ORIENTED_EDGE('',*,*,#187,.F.);
#233=ORIENTED_EDGE('',*,*,#188,.T.);
#234=ORIENTED_EDGE('',*,*,#187,.T.);
#235=ORIENTED_EDGE('',*,*,#189,.F.);
#236=ORIENTED_EDGE('',*,*,#190,.F.);
#237=ORIENTED_EDGE('',*,*,#191,.T.);
#238=ORIENTED_EDGE('',*,*,#190,.T.);
#239=ORIENTED_EDGE('',*,*,#192,.F.);
#240=ORIENTED_EDGE('',*,*,#176,.F.);
#241=ORIENTED_EDGE('',*,*,#193,.F.);
#242=ORIENTED_EDGE('',*,*,#194,.T.);
#243=ORIENTED_EDGE('',*,*,#195,.T.);
#244=ORIENTED_EDGE('',*,*,#194,.F.);
#245=ORIENTED_EDGE('',*,*,#193,.T.);
#246=ORIENTED_EDGE('',*,*,#192,.T.);
#247=ORIENTED_EDGE('',*,*,#189,.T.);
#248=ORIENTED_EDGE('',*,*,#186,.T.);
#249=ORIENTED_EDGE('',*,*,#183,.T.);
#250=ORIENTED_EDGE('',*,*,#180,.T.);
#251=ORIENTED_EDGE('',*,*,#177,.T.);
#252=ORIENTED_EDGE('',*,*,#195,.F.);
#253=ORIENTED_EDGE('',*,*,#191,.F.);
#254=ORIENTED_EDGE('',*,*,#175,.F.);
#255=ORIENTED_EDGE('',*,*,#179,.F.);
#256=ORIENTED_EDGE('',*,*,#182,.F.);
#257=ORIENTED_EDGE('',*,*,#185,.F.);
#258=ORIENTED_EDGE('',*,*,#188,.F.);
#259=ORIENTED_EDGE('',*,*,#196,.T.);
#260=ORIENTED_EDGE('',*,*,#197,.T.);
#261=ORIENTED_EDGE('',*,*,#198,.F.);
#262=ORIENTED_EDGE('',*,*,#199,.F.);
#263=ORIENTED_EDGE('',*,*,#200,.T.);
#264=ORIENTED_EDGE('',*,*,#199,.T.);
#265=ORIENTED_EDGE('',*,*,#201,.F.);
#266=ORIENTED_EDGE('',*,*,#202,.F.);
#267=ORIENTED_EDGE('',*,*,#203,.T.);
#268=ORIENTED_EDGE('',*,*,#202,.T.);
#269=ORIENTED_EDGE('',*,*,#204,.F.);
#270=ORIENTED_EDGE('',*,*,#205,.F.);
#271=ORIENTED_EDGE('',*,*,#206,.T.);
#272=ORIENTED_EDGE('',*,*,#205,.T.);
#273=ORIENTED_EDGE('',*,*,#207,.F.);
#274=ORIENTED_EDGE('',*,*,#208,.F.);
#275=ORIENTED_EDGE('',*,*,#209,.T.);
#276=ORIENTED_EDGE('',*,*,#208,.T.);
#277=ORIENTED_EDGE('',*,*,#210,.F.);
#278=ORIENTED_EDGE('',*,*,#211,.F.);
#279=ORIENTED_EDGE('',*,*,#212,.T.);
#280=ORIENTED_EDGE('',*,*,#211,.T.);
#281=ORIENTED_EDGE('',*,*,#213,.F.);
#282=ORIENTED_EDGE('',*,*,#197,.F.);
#283=ORIENTED_EDGE('',*,*,#214,.F.);
#284=ORIENTED_EDGE('',*,*,#215,.T.);
#285=ORIENTED_EDGE('',*,*,#216,.T.);
#286=ORIENTED_EDGE('',*,*,#215,.F.);
#287=ORIENTED_EDGE('',*,*,#214,.T.);
#288=ORIENTED_EDGE('',*,*,#213,.T.);
#289=ORIENTED_EDGE('',*,*,#210,.T.);
#290=ORIENTED_EDGE('',*,*,#207,.T.);
#291=ORIENTED_EDGE('',*,*,#204,.T.);
#292=ORIENTED_EDGE('',*,*,#201,.T.);
#293=ORIENTED_EDGE('',*,*,#198,.T.);
#294=ORIENTED_EDGE('',*,*,#216,.F.);
#295=ORIENTED_EDGE('',*,*,#212,.F.);
#296=ORIENTED_EDGE('',*,*,#196,.F.);
#297=ORIENTED_EDGE('',*,*,#200,.F.);
#298=ORIENTED_EDGE('',*,*,#203,.F.);
#299=ORIENTED_EDGE('',*,*,#206,.F.);
#300=ORIENTED_EDGE('',*,*,#209,.F.);
#301=PLANE('',#351);
#302=PLANE('',#352);
#303=PLANE('',#353);
#304=PLANE('',#354);
#305=PLANE('',#355);
#306=PLANE('',#356);
#307=PLANE('',#360);
#308=PLANE('',#361);
#309=PLANE('',#362);
#310=PLANE('',#363);
#311=PLANE('',#364);
#312=PLANE('',#365);
#313=PLANE('',#366);
#314=PLANE('',#367);
#315=PLANE('',#371);
#316=PLANE('',#372);
#317=ADVANCED_FACE('',(#31),#301,.T.);
#318=ADVANCED_FACE('',(#32),#302,.T.);
#319=ADVANCED_FACE('',(#33),#303,.T.);
#320=ADVANCED_FACE('',(#34),#304,.T.);
#321=ADVANCED_FACE('',(#35),#305,.T.);
#322=ADVANCED_FACE('',(#36),#306,.T.);
#323=ADVANCED_FACE('',(#37),#29,.T.);
#324=ADVANCED_FACE('',(#38,#21),#307,.T.);
#325=ADVANCED_FACE('',(#39,#22),#308,.F.);
#326=ADVANCED_FACE('',(#40),#309,.T.);
#327=ADVANCED_FACE('',(#41),#310,.T.);
#328=ADVANCED_FACE('',(#42),#311,.T.);
#329=ADVANCED_FACE('',(#43),#312,.T.);
#330=ADVANCED_FACE('',(#44),#313,.T.);
#331=ADVANCED_FACE('',(#45),#314,.T.);
#332=ADVANCED_FACE('',(#46),#30,.T.);
#333=ADVANCED_FACE('',(#47,#23),#315,.T.);
#334=ADVANCED_FACE('',(#48,#24),#316,.F.);
#335=CLOSED_SHELL('',(#317,#318,#319,#320,#321,#322,#323,#324,#325));
#336=CLOSED_SHELL('',(#326,#327,#328,#329,#330,#331,#332,#333,#334));
#337=DERIVED_UNIT_ELEMENT(#339,1.);
#338=DERIVED_UNIT_ELEMENT(#560,-3.);
#339=(
MASS_UNIT()
NAMED_UNIT(*)
SI_UNIT(.KILO.,.GRAM.)
);
#340=DERIVED_UNIT((#337,#338));
#341=MEASURE_REPRESENTATION_ITEM('density measure',
POSITIVE_RATIO_MEASURE(7850.),#340);
#342=PROPERTY_DEFINITION_REPRESENTATION(#347,#344);
#343=PROPERTY_DEFINITION_REPRESENTATION(#348,#345);
#344=REPRESENTATION('material name',(#346),#557);
#345=REPRESENTATION('density',(#341),#557);
#346=DESCRIPTIVE_REPRESENTATION_ITEM('Steel','Steel');
#347=PROPERTY_DEFINITION('material property','material name',#572);
#348=PROPERTY_DEFINITION('material property','density of part',#572);
#349=AXIS2_PLACEMENT_3D('',#462,#374,#375);
#350=AXIS2_PLACEMENT_3D('',#463,#376,#377);
#351=AXIS2_PLACEMENT_3D('',#464,#378,#379);
#352=AXIS2_PLACEMENT_3D('',#473,#384,#385);
#353=AXIS2_PLACEMENT_3D('',#479,#389,#390);
#354=AXIS2_PLACEMENT_3D('',#485,#394,#395);
#355=AXIS2_PLACEMENT_3D('',#491,#399,#400);
#356=AXIS2_PLACEMENT_3D('',#497,#404,#405);
#357=AXIS2_PLACEMENT_3D('',#500,#408,#409);
#358=AXIS2_PLACEMENT_3D('',#502,#410,#411);
#359=AXIS2_PLACEMENT_3D('',#505,#413,#414);
#360=AXIS2_PLACEMENT_3D('',#506,#415,#416);
#361=AXIS2_PLACEMENT_3D('',#507,#417,#418);
#362=AXIS2_PLACEMENT_3D('',#508,#419,#420);
#363=AXIS2_PLACEMENT_3D('',#517,#425,#426);
#364=AXIS2_PLACEMENT_3D('',#523,#430,#431);
#365=AXIS2_PLACEMENT_3D('',#529,#435,#436);
#366=AXIS2_PLACEMENT_3D('',#535,#440,#441);
#367=AXIS2_PLACEMENT_3D('',#541,#445,#446);
#368=AXIS2_PLACEMENT_3D('',#544,#449,#450);
#369=AXIS2_PLACEMENT_3D('',#546,#451,#452);
#370=AXIS2_PLACEMENT_3D('',#549,#454,#455);
#371=AXIS2_PLACEMENT_3D('',#550,#456,#457);
#372=AXIS2_PLACEMENT_3D('',#551,#458,#459);
#373=AXIS2_PLACEMENT_3D('',#552,#460,#461);
#374=DIRECTION('axis',(0.,0.,1.));
#375=DIRECTION('refdir',(1.,0.,0.));
#376=DIRECTION('axis',(0.,0.,1.));
#377=DIRECTION('refdir',(1.,0.,0.));
#378=DIRECTION('center_axis',(0.,-0.999997073360749,0.00241935320618705));
#379=DIRECTION('ref_axis',(0.,-0.00241935320618705,-0.999997073360749));
#380=DIRECTION('',(0.,-0.00241935320618705,-0.999997073360749));
#381=DIRECTION('',(1.,0.,0.));
#382=DIRECTION('',(0.,-0.00241935320618705,-0.999997073360749));
#383=DIRECTION('',(1.,0.,0.));
#384=DIRECTION('center_axis',(0.,-0.50209375801766,-0.864813192637406));
#385=DIRECTION('ref_axis',(0.,0.864813192637406,-0.50209375801766));
#386=DIRECTION('',(0.,0.864813192637406,-0.50209375801766));
#387=DIRECTION('',(0.,0.864813192637406,-0.50209375801766));
#388=DIRECTION('',(1.,0.,0.));
#389=DIRECTION('center_axis',(0.,0.497903315343089,-0.867232545843594));
#390=DIRECTION('ref_axis',(0.,0.867232545843594,0.497903315343089));
#391=DIRECTION('',(0.,0.867232545843594,0.497903315343089));
#392=DIRECTION('',(0.,0.867232545843594,0.497903315343089));
#393=DIRECTION('',(1.,0.,0.));
#394=DIRECTION('center_axis',(0.,0.999997073360749,-0.00241935320618657));
#395=DIRECTION('ref_axis',(0.,0.00241935320618657,0.999997073360749));
#396=DIRECTION('',(0.,0.00241935320618657,0.999997073360749));
#397=DIRECTION('',(0.,0.00241935320618657,0.999997073360749));
#398=DIRECTION('',(1.,0.,0.));
#399=DIRECTION('center_axis',(0.,0.50209375801766,0.864813192637406));
#400=DIRECTION('ref_axis',(0.,-0.864813192637406,0.50209375801766));
#401=DIRECTION('',(0.,-0.864813192637406,0.50209375801766));
#402=DIRECTION('',(0.,-0.864813192637406,0.50209375801766));
#403=DIRECTION('',(1.,0.,0.));
#404=DIRECTION('center_axis',(0.,-0.497903315343088,0.867232545843594));
#405=DIRECTION('ref_axis',(0.,-0.867232545843594,-0.497903315343088));
#406=DIRECTION('',(0.,-0.867232545843594,-0.497903315343089));
#407=DIRECTION('',(0.,-0.867232545843594,-0.497903315343089));
#408=DIRECTION('center_axis',(1.,0.,0.));
#409=DIRECTION('ref_axis',(0.,0.,-1.));
#410=DIRECTION('center_axis',(1.,0.,0.));
#411=DIRECTION('ref_axis',(0.,0.,-1.));
#412=DIRECTION('',(-1.,0.,0.));
#413=DIRECTION('center_axis',(1.,0.,0.));
#414=DIRECTION('ref_axis',(0.,0.,-1.));
#415=DIRECTION('center_axis',(1.,0.,0.));
#416=DIRECTION('ref_axis',(0.,0.,-1.));
#417=DIRECTION('center_axis',(1.,0.,0.));
#418=DIRECTION('ref_axis',(0.,0.,-1.));
#419=DIRECTION('center_axis',(0.,-0.502093758017661,-0.864813192637406));
#420=DIRECTION('ref_axis',(0.,0.864813192637406,-0.502093758017661));
#421=DIRECTION('',(0.,0.864813192637406,-0.502093758017661));
#422=DIRECTION('',(1.,0.,0.));
#423=DIRECTION('',(0.,0.864813192637406,-0.502093758017661));
#424=DIRECTION('',(1.,0.,0.));
#425=DIRECTION('center_axis',(0.,0.49790331534309,-0.867232545843593));
#426=DIRECTION('ref_axis',(0.,0.867232545843593,0.49790331534309));
#427=DIRECTION('',(0.,0.867232545843593,0.49790331534309));
#428=DIRECTION('',(0.,0.867232545843593,0.49790331534309));
#429=DIRECTION('',(1.,0.,0.));
#430=DIRECTION('center_axis',(0.,0.999997073360749,-0.00241935320618657));
#431=DIRECTION('ref_axis',(0.,0.00241935320618657,0.999997073360749));
#432=DIRECTION('',(0.,0.00241935320618657,0.999997073360749));
#433=DIRECTION('',(0.,0.00241935320618657,0.999997073360749));
#434=DIRECTION('',(1.,0.,0.));
#435=DIRECTION('center_axis',(0.,0.50209375801766,0.864813192637406));
#436=DIRECTION('ref_axis',(0.,-0.864813192637406,0.50209375801766));
#437=DIRECTION('',(0.,-0.864813192637406,0.50209375801766));
#438=DIRECTION('',(0.,-0.864813192637406,0.50209375801766));
#439=DIRECTION('',(1.,0.,0.));
#440=DIRECTION('center_axis',(0.,-0.497903315343088,0.867232545843594));
#441=DIRECTION('ref_axis',(0.,-0.867232545843594,-0.497903315343088));
#442=DIRECTION('',(0.,-0.867232545843594,-0.497903315343088));
#443=DIRECTION('',(0.,-0.867232545843594,-0.497903315343088));
#444=DIRECTION('',(1.,0.,0.));
#445=DIRECTION('center_axis',(0.,-0.999997073360749,0.00241935320618705));
#446=DIRECTION('ref_axis',(0.,-0.00241935320618705,-0.999997073360749));
#447=DIRECTION('',(0.,-0.00241935320618705,-0.999997073360749));
#448=DIRECTION('',(0.,-0.00241935320618705,-0.999997073360749));
#449=DIRECTION('center_axis',(1.,0.,0.));
#450=DIRECTION('ref_axis',(0.,0.,-1.));
#451=DIRECTION('center_axis',(1.,0.,0.));
#452=DIRECTION('ref_axis',(0.,0.,-1.));
#453=DIRECTION('',(-1.,0.,0.));
#454=DIRECTION('center_axis',(1.,0.,0.));
#455=DIRECTION('ref_axis',(0.,0.,-1.));
#456=DIRECTION('center_axis',(1.,0.,0.));
#457=DIRECTION('ref_axis',(0.,0.,-1.));
#458=DIRECTION('center_axis',(1.,0.,0.));
#459=DIRECTION('ref_axis',(0.,0.,-1.));
#460=DIRECTION('',(0.,0.,1.));
#461=DIRECTION('',(1.,0.,0.));
#462=CARTESIAN_POINT('',(0.,0.,0.));
#463=CARTESIAN_POINT('',(0.,0.,0.));
#464=CARTESIAN_POINT('Origin',(0.,4.60120398899717,3.97493510313983));
#465=CARTESIAN_POINT('',(0.,4.60120398899717,3.97493510313983));
#466=CARTESIAN_POINT('',(0.,4.59841036054745,2.8202379441525));
#467=CARTESIAN_POINT('',(0.,4.59841036054745,2.8202379441525));
#468=CARTESIAN_POINT('',(5.,4.59841036054745,2.8202379441525));
#469=CARTESIAN_POINT('',(0.,4.59841036054745,2.8202379441525));
#470=CARTESIAN_POINT('',(5.,4.60120398899717,3.97493510313983));
#471=CARTESIAN_POINT('',(5.,4.59841036054745,2.8202379441525));
#472=CARTESIAN_POINT('',(0.,4.60120398899717,3.97493510313983));
#473=CARTESIAN_POINT('Origin',(0.,3.60260372986128,4.55470303583969));
#474=CARTESIAN_POINT('',(0.,3.60260372986128,4.55470303583969));
#475=CARTESIAN_POINT('',(0.,4.60120398899717,3.97493510313983));
#476=CARTESIAN_POINT('',(5.,3.60260372986128,4.55470303583969));
#477=CARTESIAN_POINT('',(5.,4.60120398899717,3.97493510313983));
#478=CARTESIAN_POINT('',(0.,3.60260372986128,4.55470303583969));
#479=CARTESIAN_POINT('Origin',(0.,2.60120984227567,3.97977380955221));
#480=CARTESIAN_POINT('',(0.,2.60120984227567,3.97977380955221));
#481=CARTESIAN_POINT('',(0.,3.60260372986128,4.55470303583969));
#482=CARTESIAN_POINT('',(5.,2.60120984227567,3.97977380955221));
#483=CARTESIAN_POINT('',(5.,3.60260372986128,4.55470303583969));
#484=CARTESIAN_POINT('',(0.,2.60120984227567,3.97977380955221));
#485=CARTESIAN_POINT('Origin',(0.,2.59841621382595,2.82507665056488));
#486=CARTESIAN_POINT('',(0.,2.59841621382595,2.82507665056488));
#487=CARTESIAN_POINT('',(0.,2.60120984227567,3.97977380955221));
#488=CARTESIAN_POINT('',(5.,2.59841621382595,2.82507665056488));
#489=CARTESIAN_POINT('',(5.,2.60120984227567,3.97977380955221));
#490=CARTESIAN_POINT('',(0.,2.59841621382595,2.82507665056488));
#491=CARTESIAN_POINT('Origin',(0.,3.59701647296185,2.24530871786502));
#492=CARTESIAN_POINT('',(0.,3.59701647296185,2.24530871786502));
#493=CARTESIAN_POINT('',(0.,2.59841621382595,2.82507665056488));
#494=CARTESIAN_POINT('',(5.,3.59701647296185,2.24530871786502));
#495=CARTESIAN_POINT('',(5.,2.59841621382595,2.82507665056488));
#496=CARTESIAN_POINT('',(0.,3.59701647296185,2.24530871786502));
#497=CARTESIAN_POINT('Origin',(0.,4.59841036054745,2.8202379441525));
#498=CARTESIAN_POINT('',(0.,3.59701647296185,2.24530871786502));
#499=CARTESIAN_POINT('',(5.,3.59701647296185,2.24530871786502));
#500=CARTESIAN_POINT('Origin',(0.,3.59981010141156,3.40000587685235));
#501=CARTESIAN_POINT('',(5.,3.59981010141156,6.00000587685235));
#502=CARTESIAN_POINT('Origin',(5.,3.59981010141156,3.40000587685235));
#503=CARTESIAN_POINT('',(0.,3.59981010141156,6.00000587685235));
#504=CARTESIAN_POINT('',(0.,3.59981010141156,6.00000587685235));
#505=CARTESIAN_POINT('Origin',(0.,3.59981010141156,3.40000587685235));
#506=CARTESIAN_POINT('Origin',(5.,3.59981010141156,3.40000587685235));
#507=CARTESIAN_POINT('Origin',(0.,3.59981010141156,3.40000587685235));
#508=CARTESIAN_POINT('Origin',(0.,3.60260372986128,11.1547030358397));
#509=CARTESIAN_POINT('',(0.,3.60260372986128,11.1547030358397));
#510=CARTESIAN_POINT('',(0.,4.60120398899717,10.5749351031398));
#511=CARTESIAN_POINT('',(0.,4.60120398899717,10.5749351031398));
#512=CARTESIAN_POINT('',(3.,4.60120398899717,10.5749351031398));
#513=CARTESIAN_POINT('',(0.,4.60120398899717,10.5749351031398));
#514=CARTESIAN_POINT('',(3.,3.60260372986128,11.1547030358397));
#515=CARTESIAN_POINT('',(3.,4.60120398899717,10.5749351031398));
#516=CARTESIAN_POINT('',(0.,3.60260372986128,11.1547030358397));
#517=CARTESIAN_POINT('Origin',(0.,2.60120984227567,10.5797738095522));
#518=CARTESIAN_POINT('',(0.,2.60120984227567,10.5797738095522));
#519=CARTESIAN_POINT('',(0.,3.60260372986128,11.1547030358397));
#520=CARTESIAN_POINT('',(3.,2.60120984227567,10.5797738095522));
#521=CARTESIAN_POINT('',(3.,3.60260372986128,11.1547030358397));
#522=CARTESIAN_POINT('',(0.,2.60120984227567,10.5797738095522));
#523=CARTESIAN_POINT('Origin',(0.,2.59841621382595,9.42507665056488));
#524=CARTESIAN_POINT('',(0.,2.59841621382595,9.42507665056488));
#525=CARTESIAN_POINT('',(0.,2.60120984227567,10.5797738095522));
#526=CARTESIAN_POINT('',(3.,2.59841621382595,9.42507665056488));
#527=CARTESIAN_POINT('',(3.,2.60120984227567,10.5797738095522));
#528=CARTESIAN_POINT('',(0.,2.59841621382595,9.42507665056488));
#529=CARTESIAN_POINT('Origin',(0.,3.59701647296185,8.84530871786502));
#530=CARTESIAN_POINT('',(0.,3.59701647296185,8.84530871786502));
#531=CARTESIAN_POINT('',(0.,2.59841621382595,9.42507665056488));
#532=CARTESIAN_POINT('',(3.,3.59701647296185,8.84530871786502));
#533=CARTESIAN_POINT('',(3.,2.59841621382595,9.42507665056488));
#534=CARTESIAN_POINT('',(0.,3.59701647296185,8.84530871786502));
#535=CARTESIAN_POINT('Origin',(0.,4.59841036054745,9.4202379441525));
#536=CARTESIAN_POINT('',(0.,4.59841036054745,9.4202379441525));
#537=CARTESIAN_POINT('',(0.,3.59701647296185,8.84530871786502));
#538=CARTESIAN_POINT('',(3.,4.59841036054745,9.4202379441525));
#539=CARTESIAN_POINT('',(3.,3.59701647296185,8.84530871786502));
#540=CARTESIAN_POINT('',(0.,4.59841036054745,9.4202379441525));
#541=CARTESIAN_POINT('Origin',(0.,4.60120398899717,10.5749351031398));
#542=CARTESIAN_POINT('',(0.,4.59841036054745,9.4202379441525));
#543=CARTESIAN_POINT('',(3.,4.59841036054745,9.4202379441525));
#544=CARTESIAN_POINT('Origin',(0.,3.59981010141156,10.0000058768524));
#545=CARTESIAN_POINT('',(3.,3.59981010141156,12.6000058768524));
#546=CARTESIAN_POINT('Origin',(3.,3.59981010141156,10.0000058768524));
#547=CARTESIAN_POINT('',(0.,3.59981010141156,12.6000058768524));
#548=CARTESIAN_POINT('',(0.,3.59981010141156,12.6000058768524));
#549=CARTESIAN_POINT('Origin',(0.,3.59981010141156,10.0000058768524));
#550=CARTESIAN_POINT('Origin',(3.,3.59981010141156,10.0000058768524));
#551=CARTESIAN_POINT('Origin',(0.,3.59981010141156,10.0000058768524));
#552=CARTESIAN_POINT('',(0.,0.,0.));
#553=UNCERTAINTY_MEASURE_WITH_UNIT(LENGTH_MEASURE(0.01),#559,
'DISTANCE_ACCURACY_VALUE',
'Maximum model space distance between geometric entities at asserted c
onnectivities');
#554=UNCERTAINTY_MEASURE_WITH_UNIT(LENGTH_MEASURE(0.01),#559,
'DISTANCE_ACCURACY_VALUE',
'Maximum model space distance between geometric entities at asserted c
onnectivities');
#555=UNCERTAINTY_MEASURE_WITH_UNIT(LENGTH_MEASURE(0.01),#559,
'DISTANCE_ACCURACY_VALUE',
'Maximum model space distance between geometric entities at asserted c
onnectivities');
#556=(
GEOMETRIC_REPRESENTATION_CONTEXT(3)
GLOBAL_UNCERTAINTY_ASSIGNED_CONTEXT((#553))
GLOBAL_UNIT_ASSIGNED_CONTEXT((#559,#561,#562))
REPRESENTATION_CONTEXT('','3D')
);
#557=(
GEOMETRIC_REPRESENTATION_CONTEXT(3)
GLOBAL_UNCERTAINTY_ASSIGNED_CONTEXT((#554))
GLOBAL_UNIT_ASSIGNED_CONTEXT((#559,#561,#562))
REPRESENTATION_CONTEXT('','3D')
);
#558=(
GEOMETRIC_REPRESENTATION_CONTEXT(3)
GLOBAL_UNCERTAINTY_ASSIGNED_CONTEXT((#555))
GLOBAL_UNIT_ASSIGNED_CONTEXT((#559,#561,#562))
REPRESENTATION_CONTEXT('','3D')
);
#559=(
LENGTH_UNIT()
NAMED_UNIT(*)
SI_UNIT(.MILLI.,.METRE.)
);
#560=(
LENGTH_UNIT()
NAMED_UNIT(*)
SI_UNIT($,.METRE.)
);
#561=(
NAMED_UNIT(*)
PLANE_ANGLE_UNIT()
SI_UNIT($,.RADIAN.)
);
#562=(
NAMED_UNIT(*)
SI_UNIT($,.STERADIAN.)
SOLID_ANGLE_UNIT()
);
#563=SHAPE_DEFINITION_REPRESENTATION(#565,#568);
#564=SHAPE_DEFINITION_REPRESENTATION(#566,#569);
#565=PRODUCT_DEFINITION_SHAPE('',$,#571);
#566=PRODUCT_DEFINITION_SHAPE('',$,#572);
#567=PRODUCT_DEFINITION_SHAPE($,$,#14);
#568=SHAPE_REPRESENTATION('',(#349,#373),#556);
#569=SHAPE_REPRESENTATION('',(#350),#557);
#570=PRODUCT_DEFINITION_CONTEXT('part definition',#578,'design');
#571=PRODUCT_DEFINITION('Motor Guide 2mm','Motor Guide 2mm v5',#573,#570);
#572=PRODUCT_DEFINITION('Sproket Holder','Sproket Holder',#574,#570);
#573=PRODUCT_DEFINITION_FORMATION('',$,#580);
#574=PRODUCT_DEFINITION_FORMATION('',$,#581);
#575=PRODUCT_RELATED_PRODUCT_CATEGORY('Motor Guide 2mm v5',
'Motor Guide 2mm v5',(#580));
#576=PRODUCT_RELATED_PRODUCT_CATEGORY('Sproket Holder','Sproket Holder',
(#581));
#577=APPLICATION_PROTOCOL_DEFINITION('international standard',
'automotive_design',2009,#578);
#578=APPLICATION_CONTEXT(
'Core Data for Automotive Mechanical Design Process');
#579=PRODUCT_CONTEXT('part definition',#578,'mechanical');
#580=PRODUCT('Motor Guide 2mm','Motor Guide 2mm v5',$,(#579));
#581=PRODUCT('Sproket Holder','Sproket Holder',$,(#579));
#582=PRESENTATION_STYLE_ASSIGNMENT((#583));
#583=SURFACE_STYLE_USAGE(.BOTH.,#584);
#584=SURFACE_SIDE_STYLE('',(#585));
#585=SURFACE_STYLE_FILL_AREA(#586);
#586=FILL_AREA_STYLE('Steel - Satin',(#587));
#587=FILL_AREA_STYLE_COLOUR('Steel - Satin',#588);
#588=COLOUR_RGB('Steel - Satin',0.627450980392157,0.627450980392157,0.627450980392157);
ENDSEC;
END-ISO-10303-21;
