ISO-10303-21;
HEADER;
/* Generated by software containing ST-Developer
 * from STEP Tools, Inc. (www.steptools.com) 
 */

FILE_DESCRIPTION(
/* description */ (''),
/* implementation_level */ '2;1');

FILE_NAME(
/* name */ 'PCB 1.2.step',
/* time_stamp */ '2026-06-28T19:48:53+09:00',
/* author */ (''),
/* organization */ (''),
/* preprocessor_version */ 'ST-DEVELOPER v20.1',
/* originating_system */ 'Autodesk Translation Framework v15.8.0.0',
/* authorisation */ '');

FILE_SCHEMA (('AUTOMOTIVE_DESIGN { 1 0 10303 214 3 1 1 }'));
ENDSEC;

DATA;
#10=MECHANICAL_DESIGN_GEOMETRIC_PRESENTATION_REPRESENTATION('',(#19,#20),
#1018);
#11=SHAPE_REPRESENTATION_RELATIONSHIP('SRR','None',#1025,#12);
#12=ADVANCED_BREP_SHAPE_REPRESENTATION('',(#21,#22),#1017);
#13=FACE_BOUND('',#80,.T.);
#14=FACE_BOUND('',#81,.T.);
#15=FACE_BOUND('',#82,.T.);
#16=FACE_BOUND('',#84,.T.);
#17=FACE_BOUND('',#85,.T.);
#18=FACE_BOUND('',#86,.T.);
#19=STYLED_ITEM('',(#1034),#21);
#20=STYLED_ITEM('',(#1034),#22);
#21=MANIFOLD_SOLID_BREP('Body1',#621);
#22=MANIFOLD_SOLID_BREP('Body1',#622);
#23=CIRCLE('',#638,0.999997999999976);
#24=CIRCLE('',#639,0.999997999999976);
#25=CIRCLE('',#642,0.999998000000066);
#26=CIRCLE('',#643,0.999998000000066);
#27=CIRCLE('',#647,0.999997999999973);
#28=CIRCLE('',#648,0.999998000000066);
#29=CIRCLE('',#649,0.999997999999976);
#30=CIRCLE('',#650,0.999998000000066);
#31=CIRCLE('',#652,0.999998000000066);
#32=CIRCLE('',#653,0.999997999999976);
#33=CIRCLE('',#654,0.999998000000066);
#34=CIRCLE('',#655,0.999997999999973);
#35=CYLINDRICAL_SURFACE('',#637,0.999997999999976);
#36=CYLINDRICAL_SURFACE('',#641,0.999998000000066);
#37=CYLINDRICAL_SURFACE('',#657,0.999998000000066);
#38=CYLINDRICAL_SURFACE('',#663,0.999997999999976);
#39=CYLINDRICAL_SURFACE('',#665,0.999998000000066);
#40=CYLINDRICAL_SURFACE('',#667,0.999997999999973);
#41=FACE_OUTER_BOUND('',#73,.T.);
#42=FACE_OUTER_BOUND('',#74,.T.);
#43=FACE_OUTER_BOUND('',#75,.T.);
#44=FACE_OUTER_BOUND('',#76,.T.);
#45=FACE_OUTER_BOUND('',#77,.T.);
#46=FACE_OUTER_BOUND('',#78,.T.);
#47=FACE_OUTER_BOUND('',#79,.T.);
#48=FACE_OUTER_BOUND('',#83,.T.);
#49=FACE_OUTER_BOUND('',#87,.T.);
#50=FACE_OUTER_BOUND('',#88,.T.);
#51=FACE_OUTER_BOUND('',#89,.T.);
#52=FACE_OUTER_BOUND('',#90,.T.);
#53=FACE_OUTER_BOUND('',#91,.T.);
#54=FACE_OUTER_BOUND('',#92,.T.);
#55=FACE_OUTER_BOUND('',#93,.T.);
#56=FACE_OUTER_BOUND('',#94,.T.);
#57=FACE_OUTER_BOUND('',#95,.T.);
#58=FACE_OUTER_BOUND('',#96,.T.);
#59=FACE_OUTER_BOUND('',#97,.T.);
#60=FACE_OUTER_BOUND('',#98,.T.);
#61=FACE_OUTER_BOUND('',#99,.T.);
#62=FACE_OUTER_BOUND('',#100,.T.);
#63=FACE_OUTER_BOUND('',#101,.T.);
#64=FACE_OUTER_BOUND('',#102,.T.);
#65=FACE_OUTER_BOUND('',#103,.T.);
#66=FACE_OUTER_BOUND('',#104,.T.);
#67=FACE_OUTER_BOUND('',#105,.T.);
#68=FACE_OUTER_BOUND('',#106,.T.);
#69=FACE_OUTER_BOUND('',#107,.T.);
#70=FACE_OUTER_BOUND('',#108,.T.);
#71=FACE_OUTER_BOUND('',#109,.T.);
#72=FACE_OUTER_BOUND('',#110,.T.);
#73=EDGE_LOOP('',(#395,#396,#397,#398));
#74=EDGE_LOOP('',(#399,#400,#401,#402));
#75=EDGE_LOOP('',(#403,#404,#405,#406));
#76=EDGE_LOOP('',(#407,#408,#409,#410));
#77=EDGE_LOOP('',(#411,#412,#413,#414));
#78=EDGE_LOOP('',(#415,#416,#417,#418));
#79=EDGE_LOOP('',(#419,#420,#421,#422,#423,#424,#425,#426,#427,#428,#429,
#430));
#80=EDGE_LOOP('',(#431,#432,#433,#434));
#81=EDGE_LOOP('',(#435,#436,#437,#438));
#82=EDGE_LOOP('',(#439,#440,#441,#442));
#83=EDGE_LOOP('',(#443,#444,#445,#446,#447,#448,#449,#450,#451,#452,#453,
#454));
#84=EDGE_LOOP('',(#455,#456,#457,#458));
#85=EDGE_LOOP('',(#459,#460,#461,#462));
#86=EDGE_LOOP('',(#463,#464,#465,#466));
#87=EDGE_LOOP('',(#467,#468,#469,#470));
#88=EDGE_LOOP('',(#471,#472,#473,#474));
#89=EDGE_LOOP('',(#475,#476,#477,#478));
#90=EDGE_LOOP('',(#479,#480,#481,#482));
#91=EDGE_LOOP('',(#483,#484,#485,#486));
#92=EDGE_LOOP('',(#487,#488,#489,#490));
#93=EDGE_LOOP('',(#491,#492,#493,#494));
#94=EDGE_LOOP('',(#495,#496,#497,#498));
#95=EDGE_LOOP('',(#499,#500,#501,#502));
#96=EDGE_LOOP('',(#503,#504,#505,#506));
#97=EDGE_LOOP('',(#507,#508,#509,#510));
#98=EDGE_LOOP('',(#511,#512,#513,#514));
#99=EDGE_LOOP('',(#515,#516,#517,#518));
#100=EDGE_LOOP('',(#519,#520,#521,#522));
#101=EDGE_LOOP('',(#523,#524,#525,#526));
#102=EDGE_LOOP('',(#527,#528,#529,#530));
#103=EDGE_LOOP('',(#531,#532,#533,#534));
#104=EDGE_LOOP('',(#535,#536,#537,#538));
#105=EDGE_LOOP('',(#539,#540,#541,#542));
#106=EDGE_LOOP('',(#543,#544,#545,#546));
#107=EDGE_LOOP('',(#547,#548,#549,#550));
#108=EDGE_LOOP('',(#551,#552,#553,#554));
#109=EDGE_LOOP('',(#555,#556,#557,#558));
#110=EDGE_LOOP('',(#559,#560,#561,#562));
#111=LINE('',#846,#183);
#112=LINE('',#848,#184);
#113=LINE('',#850,#185);
#114=LINE('',#851,#186);
#115=LINE('',#857,#187);
#116=LINE('',#860,#188);
#117=LINE('',#862,#189);
#118=LINE('',#863,#190);
#119=LINE('',#872,#191);
#120=LINE('',#876,#192);
#121=LINE('',#880,#193);
#122=LINE('',#884,#194);
#123=LINE('',#886,#195);
#124=LINE('',#888,#196);
#125=LINE('',#890,#197);
#126=LINE('',#892,#198);
#127=LINE('',#896,#199);
#128=LINE('',#898,#200);
#129=LINE('',#900,#201);
#130=LINE('',#901,#202);
#131=LINE('',#904,#203);
#132=LINE('',#906,#204);
#133=LINE('',#908,#205);
#134=LINE('',#909,#206);
#135=LINE('',#912,#207);
#136=LINE('',#914,#208);
#137=LINE('',#916,#209);
#138=LINE('',#917,#210);
#139=LINE('',#921,#211);
#140=LINE('',#925,#212);
#141=LINE('',#927,#213);
#142=LINE('',#929,#214);
#143=LINE('',#931,#215);
#144=LINE('',#933,#216);
#145=LINE('',#937,#217);
#146=LINE('',#941,#218);
#147=LINE('',#945,#219);
#148=LINE('',#947,#220);
#149=LINE('',#949,#221);
#150=LINE('',#950,#222);
#151=LINE('',#953,#223);
#152=LINE('',#955,#224);
#153=LINE('',#957,#225);
#154=LINE('',#958,#226);
#155=LINE('',#961,#227);
#156=LINE('',#963,#228);
#157=LINE('',#965,#229);
#158=LINE('',#966,#230);
#159=LINE('',#968,#231);
#160=LINE('',#969,#232);
#161=LINE('',#971,#233);
#162=LINE('',#973,#234);
#163=LINE('',#975,#235);
#164=LINE('',#977,#236);
#165=LINE('',#979,#237);
#166=LINE('',#981,#238);
#167=LINE('',#983,#239);
#168=LINE('',#985,#240);
#169=LINE('',#987,#241);
#170=LINE('',#989,#242);
#171=LINE('',#992,#243);
#172=LINE('',#993,#244);
#173=LINE('',#995,#245);
#174=LINE('',#997,#246);
#175=LINE('',#1000,#247);
#176=LINE('',#1001,#248);
#177=LINE('',#1003,#249);
#178=LINE('',#1005,#250);
#179=LINE('',#1008,#251);
#180=LINE('',#1009,#252);
#181=LINE('',#1011,#253);
#182=LINE('',#1013,#254);
#183=VECTOR('',#684,10.);
#184=VECTOR('',#685,10.);
#185=VECTOR('',#686,10.);
#186=VECTOR('',#687,10.);
#187=VECTOR('',#694,10.);
#188=VECTOR('',#697,10.);
#189=VECTOR('',#698,10.);
#190=VECTOR('',#699,10.);
#191=VECTOR('',#712,10.);
#192=VECTOR('',#715,10.);
#193=VECTOR('',#718,10.);
#194=VECTOR('',#721,10.);
#195=VECTOR('',#722,10.);
#196=VECTOR('',#723,10.);
#197=VECTOR('',#724,10.);
#198=VECTOR('',#725,10.);
#199=VECTOR('',#728,10.);
#200=VECTOR('',#729,10.);
#201=VECTOR('',#730,10.);
#202=VECTOR('',#731,10.);
#203=VECTOR('',#732,10.);
#204=VECTOR('',#733,10.);
#205=VECTOR('',#734,10.);
#206=VECTOR('',#735,10.);
#207=VECTOR('',#736,10.);
#208=VECTOR('',#737,10.);
#209=VECTOR('',#738,10.);
#210=VECTOR('',#739,10.);
#211=VECTOR('',#742,10.);
#212=VECTOR('',#745,10.);
#213=VECTOR('',#746,10.);
#214=VECTOR('',#747,10.);
#215=VECTOR('',#748,10.);
#216=VECTOR('',#749,10.);
#217=VECTOR('',#752,10.);
#218=VECTOR('',#755,10.);
#219=VECTOR('',#758,10.);
#220=VECTOR('',#759,10.);
#221=VECTOR('',#760,10.);
#222=VECTOR('',#761,10.);
#223=VECTOR('',#762,10.);
#224=VECTOR('',#763,10.);
#225=VECTOR('',#764,10.);
#226=VECTOR('',#765,10.);
#227=VECTOR('',#766,10.);
#228=VECTOR('',#767,10.);
#229=VECTOR('',#768,10.);
#230=VECTOR('',#769,10.);
#231=VECTOR('',#772,10.);
#232=VECTOR('',#773,10.);
#233=VECTOR('',#776,10.);
#234=VECTOR('',#779,10.);
#235=VECTOR('',#782,10.);
#236=VECTOR('',#785,10.);
#237=VECTOR('',#788,10.);
#238=VECTOR('',#791,10.);
#239=VECTOR('',#794,10.);
#240=VECTOR('',#797,10.);
#241=VECTOR('',#800,10.);
#242=VECTOR('',#803,10.);
#243=VECTOR('',#808,10.);
#244=VECTOR('',#809,10.);
#245=VECTOR('',#812,10.);
#246=VECTOR('',#815,10.);
#247=VECTOR('',#820,10.);
#248=VECTOR('',#821,10.);
#249=VECTOR('',#824,10.);
#250=VECTOR('',#827,10.);
#251=VECTOR('',#832,10.);
#252=VECTOR('',#833,10.);
#253=VECTOR('',#836,10.);
#254=VECTOR('',#839,10.);
#255=VERTEX_POINT('',#844);
#256=VERTEX_POINT('',#845);
#257=VERTEX_POINT('',#847);
#258=VERTEX_POINT('',#849);
#259=VERTEX_POINT('',#853);
#260=VERTEX_POINT('',#855);
#261=VERTEX_POINT('',#859);
#262=VERTEX_POINT('',#861);
#263=VERTEX_POINT('',#870);
#264=VERTEX_POINT('',#871);
#265=VERTEX_POINT('',#873);
#266=VERTEX_POINT('',#875);
#267=VERTEX_POINT('',#877);
#268=VERTEX_POINT('',#879);
#269=VERTEX_POINT('',#881);
#270=VERTEX_POINT('',#883);
#271=VERTEX_POINT('',#885);
#272=VERTEX_POINT('',#887);
#273=VERTEX_POINT('',#889);
#274=VERTEX_POINT('',#891);
#275=VERTEX_POINT('',#894);
#276=VERTEX_POINT('',#895);
#277=VERTEX_POINT('',#897);
#278=VERTEX_POINT('',#899);
#279=VERTEX_POINT('',#902);
#280=VERTEX_POINT('',#903);
#281=VERTEX_POINT('',#905);
#282=VERTEX_POINT('',#907);
#283=VERTEX_POINT('',#910);
#284=VERTEX_POINT('',#911);
#285=VERTEX_POINT('',#913);
#286=VERTEX_POINT('',#915);
#287=VERTEX_POINT('',#919);
#288=VERTEX_POINT('',#920);
#289=VERTEX_POINT('',#922);
#290=VERTEX_POINT('',#924);
#291=VERTEX_POINT('',#926);
#292=VERTEX_POINT('',#928);
#293=VERTEX_POINT('',#930);
#294=VERTEX_POINT('',#932);
#295=VERTEX_POINT('',#934);
#296=VERTEX_POINT('',#936);
#297=VERTEX_POINT('',#938);
#298=VERTEX_POINT('',#940);
#299=VERTEX_POINT('',#943);
#300=VERTEX_POINT('',#944);
#301=VERTEX_POINT('',#946);
#302=VERTEX_POINT('',#948);
#303=VERTEX_POINT('',#951);
#304=VERTEX_POINT('',#952);
#305=VERTEX_POINT('',#954);
#306=VERTEX_POINT('',#956);
#307=VERTEX_POINT('',#959);
#308=VERTEX_POINT('',#960);
#309=VERTEX_POINT('',#962);
#310=VERTEX_POINT('',#964);
#311=EDGE_CURVE('',#255,#256,#111,.T.);
#312=EDGE_CURVE('',#255,#257,#112,.T.);
#313=EDGE_CURVE('',#258,#257,#113,.T.);
#314=EDGE_CURVE('',#256,#258,#114,.T.);
#315=EDGE_CURVE('',#259,#256,#23,.T.);
#316=EDGE_CURVE('',#260,#258,#24,.T.);
#317=EDGE_CURVE('',#259,#260,#115,.T.);
#318=EDGE_CURVE('',#259,#261,#116,.T.);
#319=EDGE_CURVE('',#262,#260,#117,.T.);
#320=EDGE_CURVE('',#261,#262,#118,.T.);
#321=EDGE_CURVE('',#255,#261,#25,.T.);
#322=EDGE_CURVE('',#257,#262,#26,.T.);
#323=EDGE_CURVE('',#263,#264,#119,.T.);
#324=EDGE_CURVE('',#263,#265,#27,.T.);
#325=EDGE_CURVE('',#266,#265,#120,.T.);
#326=EDGE_CURVE('',#266,#267,#28,.T.);
#327=EDGE_CURVE('',#268,#267,#121,.T.);
#328=EDGE_CURVE('',#268,#269,#29,.T.);
#329=EDGE_CURVE('',#270,#269,#122,.T.);
#330=EDGE_CURVE('',#271,#270,#123,.T.);
#331=EDGE_CURVE('',#272,#271,#124,.T.);
#332=EDGE_CURVE('',#273,#272,#125,.T.);
#333=EDGE_CURVE('',#274,#273,#126,.T.);
#334=EDGE_CURVE('',#274,#264,#30,.T.);
#335=EDGE_CURVE('',#275,#276,#127,.T.);
#336=EDGE_CURVE('',#277,#275,#128,.T.);
#337=EDGE_CURVE('',#278,#277,#129,.T.);
#338=EDGE_CURVE('',#276,#278,#130,.T.);
#339=EDGE_CURVE('',#279,#280,#131,.T.);
#340=EDGE_CURVE('',#281,#279,#132,.T.);
#341=EDGE_CURVE('',#282,#281,#133,.T.);
#342=EDGE_CURVE('',#280,#282,#134,.T.);
#343=EDGE_CURVE('',#283,#284,#135,.T.);
#344=EDGE_CURVE('',#285,#283,#136,.T.);
#345=EDGE_CURVE('',#286,#285,#137,.T.);
#346=EDGE_CURVE('',#284,#286,#138,.T.);
#347=EDGE_CURVE('',#287,#288,#139,.T.);
#348=EDGE_CURVE('',#288,#289,#31,.T.);
#349=EDGE_CURVE('',#289,#290,#140,.T.);
#350=EDGE_CURVE('',#290,#291,#141,.T.);
#351=EDGE_CURVE('',#291,#292,#142,.T.);
#352=EDGE_CURVE('',#292,#293,#143,.T.);
#353=EDGE_CURVE('',#293,#294,#144,.T.);
#354=EDGE_CURVE('',#294,#295,#32,.T.);
#355=EDGE_CURVE('',#295,#296,#145,.T.);
#356=EDGE_CURVE('',#296,#297,#33,.T.);
#357=EDGE_CURVE('',#297,#298,#146,.T.);
#358=EDGE_CURVE('',#298,#287,#34,.T.);
#359=EDGE_CURVE('',#299,#300,#147,.T.);
#360=EDGE_CURVE('',#300,#301,#148,.T.);
#361=EDGE_CURVE('',#301,#302,#149,.T.);
#362=EDGE_CURVE('',#302,#299,#150,.T.);
#363=EDGE_CURVE('',#303,#304,#151,.T.);
#364=EDGE_CURVE('',#304,#305,#152,.T.);
#365=EDGE_CURVE('',#305,#306,#153,.T.);
#366=EDGE_CURVE('',#306,#303,#154,.T.);
#367=EDGE_CURVE('',#307,#308,#155,.T.);
#368=EDGE_CURVE('',#308,#309,#156,.T.);
#369=EDGE_CURVE('',#309,#310,#157,.T.);
#370=EDGE_CURVE('',#310,#307,#158,.T.);
#371=EDGE_CURVE('',#264,#288,#159,.T.);
#372=EDGE_CURVE('',#263,#287,#160,.T.);
#373=EDGE_CURVE('',#274,#289,#161,.T.);
#374=EDGE_CURVE('',#273,#290,#162,.T.);
#375=EDGE_CURVE('',#272,#291,#163,.T.);
#376=EDGE_CURVE('',#271,#292,#164,.T.);
#377=EDGE_CURVE('',#270,#293,#165,.T.);
#378=EDGE_CURVE('',#269,#294,#166,.T.);
#379=EDGE_CURVE('',#268,#295,#167,.T.);
#380=EDGE_CURVE('',#267,#296,#168,.T.);
#381=EDGE_CURVE('',#266,#297,#169,.T.);
#382=EDGE_CURVE('',#265,#298,#170,.T.);
#383=EDGE_CURVE('',#276,#300,#171,.T.);
#384=EDGE_CURVE('',#275,#299,#172,.T.);
#385=EDGE_CURVE('',#278,#301,#173,.T.);
#386=EDGE_CURVE('',#277,#302,#174,.T.);
#387=EDGE_CURVE('',#280,#304,#175,.T.);
#388=EDGE_CURVE('',#279,#303,#176,.T.);
#389=EDGE_CURVE('',#282,#305,#177,.T.);
#390=EDGE_CURVE('',#281,#306,#178,.T.);
#391=EDGE_CURVE('',#284,#308,#179,.T.);
#392=EDGE_CURVE('',#283,#307,#180,.T.);
#393=EDGE_CURVE('',#286,#309,#181,.T.);
#394=EDGE_CURVE('',#285,#310,#182,.T.);
#395=ORIENTED_EDGE('',*,*,#311,.F.);
#396=ORIENTED_EDGE('',*,*,#312,.T.);
#397=ORIENTED_EDGE('',*,*,#313,.F.);
#398=ORIENTED_EDGE('',*,*,#314,.F.);
#399=ORIENTED_EDGE('',*,*,#315,.T.);
#400=ORIENTED_EDGE('',*,*,#314,.T.);
#401=ORIENTED_EDGE('',*,*,#316,.F.);
#402=ORIENTED_EDGE('',*,*,#317,.F.);
#403=ORIENTED_EDGE('',*,*,#318,.F.);
#404=ORIENTED_EDGE('',*,*,#317,.T.);
#405=ORIENTED_EDGE('',*,*,#319,.F.);
#406=ORIENTED_EDGE('',*,*,#320,.F.);
#407=ORIENTED_EDGE('',*,*,#321,.T.);
#408=ORIENTED_EDGE('',*,*,#320,.T.);
#409=ORIENTED_EDGE('',*,*,#322,.F.);
#410=ORIENTED_EDGE('',*,*,#312,.F.);
#411=ORIENTED_EDGE('',*,*,#322,.T.);
#412=ORIENTED_EDGE('',*,*,#319,.T.);
#413=ORIENTED_EDGE('',*,*,#316,.T.);
#414=ORIENTED_EDGE('',*,*,#313,.T.);
#415=ORIENTED_EDGE('',*,*,#321,.F.);
#416=ORIENTED_EDGE('',*,*,#311,.T.);
#417=ORIENTED_EDGE('',*,*,#315,.F.);
#418=ORIENTED_EDGE('',*,*,#318,.T.);
#419=ORIENTED_EDGE('',*,*,#323,.F.);
#420=ORIENTED_EDGE('',*,*,#324,.T.);
#421=ORIENTED_EDGE('',*,*,#325,.F.);
#422=ORIENTED_EDGE('',*,*,#326,.T.);
#423=ORIENTED_EDGE('',*,*,#327,.F.);
#424=ORIENTED_EDGE('',*,*,#328,.T.);
#425=ORIENTED_EDGE('',*,*,#329,.F.);
#426=ORIENTED_EDGE('',*,*,#330,.F.);
#427=ORIENTED_EDGE('',*,*,#331,.F.);
#428=ORIENTED_EDGE('',*,*,#332,.F.);
#429=ORIENTED_EDGE('',*,*,#333,.F.);
#430=ORIENTED_EDGE('',*,*,#334,.T.);
#431=ORIENTED_EDGE('',*,*,#335,.F.);
#432=ORIENTED_EDGE('',*,*,#336,.F.);
#433=ORIENTED_EDGE('',*,*,#337,.F.);
#434=ORIENTED_EDGE('',*,*,#338,.F.);
#435=ORIENTED_EDGE('',*,*,#339,.F.);
#436=ORIENTED_EDGE('',*,*,#340,.F.);
#437=ORIENTED_EDGE('',*,*,#341,.F.);
#438=ORIENTED_EDGE('',*,*,#342,.F.);
#439=ORIENTED_EDGE('',*,*,#343,.F.);
#440=ORIENTED_EDGE('',*,*,#344,.F.);
#441=ORIENTED_EDGE('',*,*,#345,.F.);
#442=ORIENTED_EDGE('',*,*,#346,.F.);
#443=ORIENTED_EDGE('',*,*,#347,.T.);
#444=ORIENTED_EDGE('',*,*,#348,.T.);
#445=ORIENTED_EDGE('',*,*,#349,.T.);
#446=ORIENTED_EDGE('',*,*,#350,.T.);
#447=ORIENTED_EDGE('',*,*,#351,.T.);
#448=ORIENTED_EDGE('',*,*,#352,.T.);
#449=ORIENTED_EDGE('',*,*,#353,.T.);
#450=ORIENTED_EDGE('',*,*,#354,.T.);
#451=ORIENTED_EDGE('',*,*,#355,.T.);
#452=ORIENTED_EDGE('',*,*,#356,.T.);
#453=ORIENTED_EDGE('',*,*,#357,.T.);
#454=ORIENTED_EDGE('',*,*,#358,.T.);
#455=ORIENTED_EDGE('',*,*,#359,.T.);
#456=ORIENTED_EDGE('',*,*,#360,.T.);
#457=ORIENTED_EDGE('',*,*,#361,.T.);
#458=ORIENTED_EDGE('',*,*,#362,.T.);
#459=ORIENTED_EDGE('',*,*,#363,.T.);
#460=ORIENTED_EDGE('',*,*,#364,.T.);
#461=ORIENTED_EDGE('',*,*,#365,.T.);
#462=ORIENTED_EDGE('',*,*,#366,.T.);
#463=ORIENTED_EDGE('',*,*,#367,.T.);
#464=ORIENTED_EDGE('',*,*,#368,.T.);
#465=ORIENTED_EDGE('',*,*,#369,.T.);
#466=ORIENTED_EDGE('',*,*,#370,.T.);
#467=ORIENTED_EDGE('',*,*,#323,.T.);
#468=ORIENTED_EDGE('',*,*,#371,.T.);
#469=ORIENTED_EDGE('',*,*,#347,.F.);
#470=ORIENTED_EDGE('',*,*,#372,.F.);
#471=ORIENTED_EDGE('',*,*,#334,.F.);
#472=ORIENTED_EDGE('',*,*,#373,.T.);
#473=ORIENTED_EDGE('',*,*,#348,.F.);
#474=ORIENTED_EDGE('',*,*,#371,.F.);
#475=ORIENTED_EDGE('',*,*,#333,.T.);
#476=ORIENTED_EDGE('',*,*,#374,.T.);
#477=ORIENTED_EDGE('',*,*,#349,.F.);
#478=ORIENTED_EDGE('',*,*,#373,.F.);
#479=ORIENTED_EDGE('',*,*,#332,.T.);
#480=ORIENTED_EDGE('',*,*,#375,.T.);
#481=ORIENTED_EDGE('',*,*,#350,.F.);
#482=ORIENTED_EDGE('',*,*,#374,.F.);
#483=ORIENTED_EDGE('',*,*,#331,.T.);
#484=ORIENTED_EDGE('',*,*,#376,.T.);
#485=ORIENTED_EDGE('',*,*,#351,.F.);
#486=ORIENTED_EDGE('',*,*,#375,.F.);
#487=ORIENTED_EDGE('',*,*,#330,.T.);
#488=ORIENTED_EDGE('',*,*,#377,.T.);
#489=ORIENTED_EDGE('',*,*,#352,.F.);
#490=ORIENTED_EDGE('',*,*,#376,.F.);
#491=ORIENTED_EDGE('',*,*,#329,.T.);
#492=ORIENTED_EDGE('',*,*,#378,.T.);
#493=ORIENTED_EDGE('',*,*,#353,.F.);
#494=ORIENTED_EDGE('',*,*,#377,.F.);
#495=ORIENTED_EDGE('',*,*,#328,.F.);
#496=ORIENTED_EDGE('',*,*,#379,.T.);
#497=ORIENTED_EDGE('',*,*,#354,.F.);
#498=ORIENTED_EDGE('',*,*,#378,.F.);
#499=ORIENTED_EDGE('',*,*,#327,.T.);
#500=ORIENTED_EDGE('',*,*,#380,.T.);
#501=ORIENTED_EDGE('',*,*,#355,.F.);
#502=ORIENTED_EDGE('',*,*,#379,.F.);
#503=ORIENTED_EDGE('',*,*,#326,.F.);
#504=ORIENTED_EDGE('',*,*,#381,.T.);
#505=ORIENTED_EDGE('',*,*,#356,.F.);
#506=ORIENTED_EDGE('',*,*,#380,.F.);
#507=ORIENTED_EDGE('',*,*,#325,.T.);
#508=ORIENTED_EDGE('',*,*,#382,.T.);
#509=ORIENTED_EDGE('',*,*,#357,.F.);
#510=ORIENTED_EDGE('',*,*,#381,.F.);
#511=ORIENTED_EDGE('',*,*,#324,.F.);
#512=ORIENTED_EDGE('',*,*,#372,.T.);
#513=ORIENTED_EDGE('',*,*,#358,.F.);
#514=ORIENTED_EDGE('',*,*,#382,.F.);
#515=ORIENTED_EDGE('',*,*,#335,.T.);
#516=ORIENTED_EDGE('',*,*,#383,.T.);
#517=ORIENTED_EDGE('',*,*,#359,.F.);
#518=ORIENTED_EDGE('',*,*,#384,.F.);
#519=ORIENTED_EDGE('',*,*,#338,.T.);
#520=ORIENTED_EDGE('',*,*,#385,.T.);
#521=ORIENTED_EDGE('',*,*,#360,.F.);
#522=ORIENTED_EDGE('',*,*,#383,.F.);
#523=ORIENTED_EDGE('',*,*,#337,.T.);
#524=ORIENTED_EDGE('',*,*,#386,.T.);
#525=ORIENTED_EDGE('',*,*,#361,.F.);
#526=ORIENTED_EDGE('',*,*,#385,.F.);
#527=ORIENTED_EDGE('',*,*,#336,.T.);
#528=ORIENTED_EDGE('',*,*,#384,.T.);
#529=ORIENTED_EDGE('',*,*,#362,.F.);
#530=ORIENTED_EDGE('',*,*,#386,.F.);
#531=ORIENTED_EDGE('',*,*,#339,.T.);
#532=ORIENTED_EDGE('',*,*,#387,.T.);
#533=ORIENTED_EDGE('',*,*,#363,.F.);
#534=ORIENTED_EDGE('',*,*,#388,.F.);
#535=ORIENTED_EDGE('',*,*,#342,.T.);
#536=ORIENTED_EDGE('',*,*,#389,.T.);
#537=ORIENTED_EDGE('',*,*,#364,.F.);
#538=ORIENTED_EDGE('',*,*,#387,.F.);
#539=ORIENTED_EDGE('',*,*,#341,.T.);
#540=ORIENTED_EDGE('',*,*,#390,.T.);
#541=ORIENTED_EDGE('',*,*,#365,.F.);
#542=ORIENTED_EDGE('',*,*,#389,.F.);
#543=ORIENTED_EDGE('',*,*,#340,.T.);
#544=ORIENTED_EDGE('',*,*,#388,.T.);
#545=ORIENTED_EDGE('',*,*,#366,.F.);
#546=ORIENTED_EDGE('',*,*,#390,.F.);
#547=ORIENTED_EDGE('',*,*,#343,.T.);
#548=ORIENTED_EDGE('',*,*,#391,.T.);
#549=ORIENTED_EDGE('',*,*,#367,.F.);
#550=ORIENTED_EDGE('',*,*,#392,.F.);
#551=ORIENTED_EDGE('',*,*,#346,.T.);
#552=ORIENTED_EDGE('',*,*,#393,.T.);
#553=ORIENTED_EDGE('',*,*,#368,.F.);
#554=ORIENTED_EDGE('',*,*,#391,.F.);
#555=ORIENTED_EDGE('',*,*,#345,.T.);
#556=ORIENTED_EDGE('',*,*,#394,.T.);
#557=ORIENTED_EDGE('',*,*,#369,.F.);
#558=ORIENTED_EDGE('',*,*,#393,.F.);
#559=ORIENTED_EDGE('',*,*,#344,.T.);
#560=ORIENTED_EDGE('',*,*,#392,.T.);
#561=ORIENTED_EDGE('',*,*,#370,.F.);
#562=ORIENTED_EDGE('',*,*,#394,.F.);
#563=PLANE('',#636);
#564=PLANE('',#640);
#565=PLANE('',#644);
#566=PLANE('',#645);
#567=PLANE('',#646);
#568=PLANE('',#651);
#569=PLANE('',#656);
#570=PLANE('',#658);
#571=PLANE('',#659);
#572=PLANE('',#660);
#573=PLANE('',#661);
#574=PLANE('',#662);
#575=PLANE('',#664);
#576=PLANE('',#666);
#577=PLANE('',#668);
#578=PLANE('',#669);
#579=PLANE('',#670);
#580=PLANE('',#671);
#581=PLANE('',#672);
#582=PLANE('',#673);
#583=PLANE('',#674);
#584=PLANE('',#675);
#585=PLANE('',#676);
#586=PLANE('',#677);
#587=PLANE('',#678);
#588=PLANE('',#679);
#589=ADVANCED_FACE('',(#41),#563,.T.);
#590=ADVANCED_FACE('',(#42),#35,.T.);
#591=ADVANCED_FACE('',(#43),#564,.T.);
#592=ADVANCED_FACE('',(#44),#36,.T.);
#593=ADVANCED_FACE('',(#45),#565,.T.);
#594=ADVANCED_FACE('',(#46),#566,.F.);
#595=ADVANCED_FACE('',(#47,#13,#14,#15),#567,.F.);
#596=ADVANCED_FACE('',(#48,#16,#17,#18),#568,.T.);
#597=ADVANCED_FACE('',(#49),#569,.T.);
#598=ADVANCED_FACE('',(#50),#37,.F.);
#599=ADVANCED_FACE('',(#51),#570,.T.);
#600=ADVANCED_FACE('',(#52),#571,.T.);
#601=ADVANCED_FACE('',(#53),#572,.T.);
#602=ADVANCED_FACE('',(#54),#573,.T.);
#603=ADVANCED_FACE('',(#55),#574,.T.);
#604=ADVANCED_FACE('',(#56),#38,.F.);
#605=ADVANCED_FACE('',(#57),#575,.T.);
#606=ADVANCED_FACE('',(#58),#39,.F.);
#607=ADVANCED_FACE('',(#59),#576,.T.);
#608=ADVANCED_FACE('',(#60),#40,.F.);
#609=ADVANCED_FACE('',(#61),#577,.T.);
#610=ADVANCED_FACE('',(#62),#578,.T.);
#611=ADVANCED_FACE('',(#63),#579,.T.);
#612=ADVANCED_FACE('',(#64),#580,.T.);
#613=ADVANCED_FACE('',(#65),#581,.T.);
#614=ADVANCED_FACE('',(#66),#582,.T.);
#615=ADVANCED_FACE('',(#67),#583,.T.);
#616=ADVANCED_FACE('',(#68),#584,.T.);
#617=ADVANCED_FACE('',(#69),#585,.T.);
#618=ADVANCED_FACE('',(#70),#586,.T.);
#619=ADVANCED_FACE('',(#71),#587,.T.);
#620=ADVANCED_FACE('',(#72),#588,.T.);
#621=CLOSED_SHELL('',(#589,#590,#591,#592,#593,#594));
#622=CLOSED_SHELL('',(#595,#596,#597,#598,#599,#600,#601,#602,#603,#604,
#605,#606,#607,#608,#609,#610,#611,#612,#613,#614,#615,#616,#617,#618,#619,
#620));
#623=DERIVED_UNIT_ELEMENT(#625,1.);
#624=DERIVED_UNIT_ELEMENT(#1020,-3.);
#625=(
MASS_UNIT()
NAMED_UNIT(*)
SI_UNIT(.KILO.,.GRAM.)
);
#626=DERIVED_UNIT((#623,#624));
#627=MEASURE_REPRESENTATION_ITEM('density measure',
POSITIVE_RATIO_MEASURE(7850.),#626);
#628=PROPERTY_DEFINITION_REPRESENTATION(#633,#630);
#629=PROPERTY_DEFINITION_REPRESENTATION(#634,#631);
#630=REPRESENTATION('material name',(#632),#1017);
#631=REPRESENTATION('density',(#627),#1017);
#632=DESCRIPTIVE_REPRESENTATION_ITEM('Steel','Steel');
#633=PROPERTY_DEFINITION('material property','material name',#1027);
#634=PROPERTY_DEFINITION('material property','density of part',#1027);
#635=AXIS2_PLACEMENT_3D('',#842,#680,#681);
#636=AXIS2_PLACEMENT_3D('',#843,#682,#683);
#637=AXIS2_PLACEMENT_3D('',#852,#688,#689);
#638=AXIS2_PLACEMENT_3D('',#854,#690,#691);
#639=AXIS2_PLACEMENT_3D('',#856,#692,#693);
#640=AXIS2_PLACEMENT_3D('',#858,#695,#696);
#641=AXIS2_PLACEMENT_3D('',#864,#700,#701);
#642=AXIS2_PLACEMENT_3D('',#865,#702,#703);
#643=AXIS2_PLACEMENT_3D('',#866,#704,#705);
#644=AXIS2_PLACEMENT_3D('',#867,#706,#707);
#645=AXIS2_PLACEMENT_3D('',#868,#708,#709);
#646=AXIS2_PLACEMENT_3D('',#869,#710,#711);
#647=AXIS2_PLACEMENT_3D('',#874,#713,#714);
#648=AXIS2_PLACEMENT_3D('',#878,#716,#717);
#649=AXIS2_PLACEMENT_3D('',#882,#719,#720);
#650=AXIS2_PLACEMENT_3D('',#893,#726,#727);
#651=AXIS2_PLACEMENT_3D('',#918,#740,#741);
#652=AXIS2_PLACEMENT_3D('',#923,#743,#744);
#653=AXIS2_PLACEMENT_3D('',#935,#750,#751);
#654=AXIS2_PLACEMENT_3D('',#939,#753,#754);
#655=AXIS2_PLACEMENT_3D('',#942,#756,#757);
#656=AXIS2_PLACEMENT_3D('',#967,#770,#771);
#657=AXIS2_PLACEMENT_3D('',#970,#774,#775);
#658=AXIS2_PLACEMENT_3D('',#972,#777,#778);
#659=AXIS2_PLACEMENT_3D('',#974,#780,#781);
#660=AXIS2_PLACEMENT_3D('',#976,#783,#784);
#661=AXIS2_PLACEMENT_3D('',#978,#786,#787);
#662=AXIS2_PLACEMENT_3D('',#980,#789,#790);
#663=AXIS2_PLACEMENT_3D('',#982,#792,#793);
#664=AXIS2_PLACEMENT_3D('',#984,#795,#796);
#665=AXIS2_PLACEMENT_3D('',#986,#798,#799);
#666=AXIS2_PLACEMENT_3D('',#988,#801,#802);
#667=AXIS2_PLACEMENT_3D('',#990,#804,#805);
#668=AXIS2_PLACEMENT_3D('',#991,#806,#807);
#669=AXIS2_PLACEMENT_3D('',#994,#810,#811);
#670=AXIS2_PLACEMENT_3D('',#996,#813,#814);
#671=AXIS2_PLACEMENT_3D('',#998,#816,#817);
#672=AXIS2_PLACEMENT_3D('',#999,#818,#819);
#673=AXIS2_PLACEMENT_3D('',#1002,#822,#823);
#674=AXIS2_PLACEMENT_3D('',#1004,#825,#826);
#675=AXIS2_PLACEMENT_3D('',#1006,#828,#829);
#676=AXIS2_PLACEMENT_3D('',#1007,#830,#831);
#677=AXIS2_PLACEMENT_3D('',#1010,#834,#835);
#678=AXIS2_PLACEMENT_3D('',#1012,#837,#838);
#679=AXIS2_PLACEMENT_3D('',#1014,#840,#841);
#680=DIRECTION('axis',(0.,0.,1.));
#681=DIRECTION('refdir',(1.,0.,0.));
#682=DIRECTION('center_axis',(-1.,0.,0.));
#683=DIRECTION('ref_axis',(0.,0.,1.));
#684=DIRECTION('',(0.,0.,-1.));
#685=DIRECTION('',(0.,1.,0.));
#686=DIRECTION('',(0.,0.,1.));
#687=DIRECTION('',(0.,1.,0.));
#688=DIRECTION('center_axis',(0.,1.,0.));
#689=DIRECTION('ref_axis',(0.,0.,-1.));
#690=DIRECTION('center_axis',(0.,1.,0.));
#691=DIRECTION('ref_axis',(0.,0.,-1.));
#692=DIRECTION('center_axis',(0.,1.,0.));
#693=DIRECTION('ref_axis',(0.,0.,-1.));
#694=DIRECTION('',(0.,1.,0.));
#695=DIRECTION('center_axis',(1.,0.,3.79533151073472E-17));
#696=DIRECTION('ref_axis',(3.79533151073472E-17,0.,-1.));
#697=DIRECTION('',(-3.79533151073472E-17,0.,1.));
#698=DIRECTION('',(3.79533151073472E-17,0.,-1.));
#699=DIRECTION('',(0.,1.,0.));
#700=DIRECTION('center_axis',(0.,1.,0.));
#701=DIRECTION('ref_axis',(-1.,0.,0.));
#702=DIRECTION('center_axis',(0.,1.,0.));
#703=DIRECTION('ref_axis',(-1.,0.,0.));
#704=DIRECTION('center_axis',(0.,1.,0.));
#705=DIRECTION('ref_axis',(-1.,0.,0.));
#706=DIRECTION('center_axis',(0.,1.,0.));
#707=DIRECTION('ref_axis',(1.,0.,0.));
#708=DIRECTION('center_axis',(0.,1.,0.));
#709=DIRECTION('ref_axis',(1.,0.,0.));
#710=DIRECTION('center_axis',(0.,1.,0.));
#711=DIRECTION('ref_axis',(1.,0.,0.));
#712=DIRECTION('',(-1.,0.,0.));
#713=DIRECTION('center_axis',(0.,1.,0.));
#714=DIRECTION('ref_axis',(0.,0.,1.));
#715=DIRECTION('',(0.,0.,1.));
#716=DIRECTION('center_axis',(0.,1.,0.));
#717=DIRECTION('ref_axis',(1.,0.,0.));
#718=DIRECTION('',(1.,0.,0.));
#719=DIRECTION('center_axis',(0.,1.,0.));
#720=DIRECTION('ref_axis',(0.,0.,-1.));
#721=DIRECTION('',(-3.79533151073472E-17,0.,1.));
#722=DIRECTION('',(-1.,0.,0.));
#723=DIRECTION('',(0.,0.,-1.));
#724=DIRECTION('',(1.,0.,0.));
#725=DIRECTION('',(-3.79533151073472E-17,0.,1.));
#726=DIRECTION('center_axis',(0.,1.,0.));
#727=DIRECTION('ref_axis',(-1.,0.,0.));
#728=DIRECTION('',(-1.,0.,5.20351998793193E-17));
#729=DIRECTION('',(0.,0.,1.));
#730=DIRECTION('',(1.,0.,0.));
#731=DIRECTION('',(-2.99380602045399E-17,0.,-1.));
#732=DIRECTION('',(-1.,0.,-8.32563198069108E-16));
#733=DIRECTION('',(1.53131834109491E-15,0.,1.));
#734=DIRECTION('',(1.,0.,0.));
#735=DIRECTION('',(0.,0.,-1.));
#736=DIRECTION('',(1.,0.,0.));
#737=DIRECTION('',(0.,0.,-1.));
#738=DIRECTION('',(-1.,0.,0.));
#739=DIRECTION('',(0.,0.,1.));
#740=DIRECTION('center_axis',(0.,1.,0.));
#741=DIRECTION('ref_axis',(1.,0.,0.));
#742=DIRECTION('',(-1.,0.,0.));
#743=DIRECTION('center_axis',(0.,-1.,0.));
#744=DIRECTION('ref_axis',(-1.,0.,0.));
#745=DIRECTION('',(-3.79533151073472E-17,0.,1.));
#746=DIRECTION('',(1.,0.,0.));
#747=DIRECTION('',(0.,0.,-1.));
#748=DIRECTION('',(-1.,0.,0.));
#749=DIRECTION('',(-3.79533151073472E-17,0.,1.));
#750=DIRECTION('center_axis',(0.,-1.,0.));
#751=DIRECTION('ref_axis',(0.,0.,-1.));
#752=DIRECTION('',(1.,0.,0.));
#753=DIRECTION('center_axis',(0.,-1.,0.));
#754=DIRECTION('ref_axis',(1.,0.,0.));
#755=DIRECTION('',(0.,0.,1.));
#756=DIRECTION('center_axis',(0.,-1.,0.));
#757=DIRECTION('ref_axis',(0.,0.,1.));
#758=DIRECTION('',(-1.,0.,5.20351998793193E-17));
#759=DIRECTION('',(-2.99380602045399E-17,0.,-1.));
#760=DIRECTION('',(1.,0.,0.));
#761=DIRECTION('',(0.,0.,1.));
#762=DIRECTION('',(-1.,0.,-8.32563198069108E-16));
#763=DIRECTION('',(0.,0.,-1.));
#764=DIRECTION('',(1.,0.,0.));
#765=DIRECTION('',(1.53131834109491E-15,0.,1.));
#766=DIRECTION('',(1.,0.,0.));
#767=DIRECTION('',(0.,0.,1.));
#768=DIRECTION('',(-1.,0.,0.));
#769=DIRECTION('',(0.,0.,-1.));
#770=DIRECTION('center_axis',(0.,0.,-1.));
#771=DIRECTION('ref_axis',(-1.,0.,0.));
#772=DIRECTION('',(0.,1.,0.));
#773=DIRECTION('',(0.,1.,0.));
#774=DIRECTION('center_axis',(0.,1.,0.));
#775=DIRECTION('ref_axis',(-1.,0.,0.));
#776=DIRECTION('',(0.,1.,0.));
#777=DIRECTION('center_axis',(-1.,0.,-3.79533151073472E-17));
#778=DIRECTION('ref_axis',(-3.79533151073472E-17,0.,1.));
#779=DIRECTION('',(0.,1.,0.));
#780=DIRECTION('center_axis',(0.,0.,1.));
#781=DIRECTION('ref_axis',(1.,0.,0.));
#782=DIRECTION('',(0.,1.,0.));
#783=DIRECTION('center_axis',(1.,0.,0.));
#784=DIRECTION('ref_axis',(0.,0.,-1.));
#785=DIRECTION('',(0.,1.,0.));
#786=DIRECTION('center_axis',(0.,0.,-1.));
#787=DIRECTION('ref_axis',(-1.,0.,0.));
#788=DIRECTION('',(0.,1.,0.));
#789=DIRECTION('center_axis',(-1.,0.,-3.79533151073472E-17));
#790=DIRECTION('ref_axis',(-3.79533151073472E-17,0.,1.));
#791=DIRECTION('',(0.,1.,0.));
#792=DIRECTION('center_axis',(0.,1.,0.));
#793=DIRECTION('ref_axis',(0.,0.,-1.));
#794=DIRECTION('',(0.,1.,0.));
#795=DIRECTION('center_axis',(0.,0.,1.));
#796=DIRECTION('ref_axis',(1.,0.,0.));
#797=DIRECTION('',(0.,1.,0.));
#798=DIRECTION('center_axis',(0.,1.,0.));
#799=DIRECTION('ref_axis',(1.,0.,0.));
#800=DIRECTION('',(0.,1.,0.));
#801=DIRECTION('center_axis',(-1.,0.,0.));
#802=DIRECTION('ref_axis',(0.,0.,1.));
#803=DIRECTION('',(0.,1.,0.));
#804=DIRECTION('center_axis',(0.,1.,0.));
#805=DIRECTION('ref_axis',(0.,0.,1.));
#806=DIRECTION('center_axis',(-5.20351998793193E-17,0.,-1.));
#807=DIRECTION('ref_axis',(-1.,0.,5.20351998793193E-17));
#808=DIRECTION('',(0.,1.,0.));
#809=DIRECTION('',(0.,1.,0.));
#810=DIRECTION('center_axis',(1.,0.,-2.99380602045399E-17));
#811=DIRECTION('ref_axis',(-2.99380602045399E-17,0.,-1.));
#812=DIRECTION('',(0.,1.,0.));
#813=DIRECTION('center_axis',(0.,0.,1.));
#814=DIRECTION('ref_axis',(1.,0.,0.));
#815=DIRECTION('',(0.,1.,0.));
#816=DIRECTION('center_axis',(-1.,0.,0.));
#817=DIRECTION('ref_axis',(0.,0.,1.));
#818=DIRECTION('center_axis',(8.32563198069108E-16,0.,-1.));
#819=DIRECTION('ref_axis',(-1.,0.,-8.32563198069108E-16));
#820=DIRECTION('',(0.,1.,0.));
#821=DIRECTION('',(0.,1.,0.));
#822=DIRECTION('center_axis',(1.,0.,0.));
#823=DIRECTION('ref_axis',(0.,0.,-1.));
#824=DIRECTION('',(0.,1.,0.));
#825=DIRECTION('center_axis',(0.,0.,1.));
#826=DIRECTION('ref_axis',(1.,0.,0.));
#827=DIRECTION('',(0.,1.,0.));
#828=DIRECTION('center_axis',(-1.,0.,1.53131834109491E-15));
#829=DIRECTION('ref_axis',(1.53131834109491E-15,0.,1.));
#830=DIRECTION('center_axis',(0.,0.,1.));
#831=DIRECTION('ref_axis',(1.,0.,0.));
#832=DIRECTION('',(0.,1.,0.));
#833=DIRECTION('',(0.,1.,0.));
#834=DIRECTION('center_axis',(-1.,0.,0.));
#835=DIRECTION('ref_axis',(0.,0.,1.));
#836=DIRECTION('',(0.,1.,0.));
#837=DIRECTION('center_axis',(0.,0.,-1.));
#838=DIRECTION('ref_axis',(-1.,0.,0.));
#839=DIRECTION('',(0.,1.,0.));
#840=DIRECTION('center_axis',(1.,0.,0.));
#841=DIRECTION('ref_axis',(0.,0.,-1.));
#842=CARTESIAN_POINT('',(0.,0.,0.));
#843=CARTESIAN_POINT('Origin',(-1.27007619999992,0.,4.70852499999991));
#844=CARTESIAN_POINT('',(-1.27007619999992,0.,50.9684527999999));
#845=CARTESIAN_POINT('',(-1.27007619999983,0.,4.70852499999991));
#846=CARTESIAN_POINT('',(-1.27007619999992,0.,50.9684527999999));
#847=CARTESIAN_POINT('',(-1.27007619999992,0.8,50.9684527999999));
#848=CARTESIAN_POINT('',(-1.27007619999992,0.,50.9684527999999));
#849=CARTESIAN_POINT('',(-1.27007619999983,0.8,4.70852499999991));
#850=CARTESIAN_POINT('',(-1.27007619999992,0.8,50.9684527999999));
#851=CARTESIAN_POINT('',(-1.27007619999983,0.,4.70852499999991));
#852=CARTESIAN_POINT('Origin',(-0.270078199999857,0.,4.70852499999991));
#853=CARTESIAN_POINT('',(-1.27005079999951,0.,4.70139764046912));
#854=CARTESIAN_POINT('Origin',(-0.270078199999857,0.,4.70852499999991));
#855=CARTESIAN_POINT('',(-1.27005079999951,0.8,4.70139764046912));
#856=CARTESIAN_POINT('Origin',(-0.270078199999857,0.8,4.70852499999991));
#857=CARTESIAN_POINT('',(-1.27005079999951,0.,4.70139764046912));
#858=CARTESIAN_POINT('Origin',(-1.27005079999982,0.,50.9755801594995));
#859=CARTESIAN_POINT('',(-1.27005079999982,0.,50.9755801594995));
#860=CARTESIAN_POINT('',(-1.27005079999982,0.,-25.4));
#861=CARTESIAN_POINT('',(-1.27005079999983,0.8,50.9755801594995));
#862=CARTESIAN_POINT('',(-1.27005079999982,0.8,-25.4));
#863=CARTESIAN_POINT('',(-1.27005079999982,0.,50.9755801594995));
#864=CARTESIAN_POINT('Origin',(-0.270078199999857,0.,50.9684527999999));
#865=CARTESIAN_POINT('Origin',(-0.270078199999857,0.,50.9684527999999));
#866=CARTESIAN_POINT('Origin',(-0.270078199999857,0.8,50.9684527999999));
#867=CARTESIAN_POINT('Origin',(-1.27006349999972,0.8,27.8384888999843));
#868=CARTESIAN_POINT('Origin',(-1.27006349999972,0.,27.8384888999843));
#869=CARTESIAN_POINT('Origin',(20.9549492000002,0.,18.4785));
#870=CARTESIAN_POINT('',(23.129875,0.,51.9684507999999));
#871=CARTESIAN_POINT('',(-0.270078199999855,0.,51.9684508));
#872=CARTESIAN_POINT('',(23.129875,0.,51.9684507999999));
#873=CARTESIAN_POINT('',(24.129873,0.,50.9684527999999));
#874=CARTESIAN_POINT('Origin',(23.129875,0.,50.9684527999999));
#875=CARTESIAN_POINT('',(24.1298730000001,0.,4.70852499999991));
#876=CARTESIAN_POINT('',(24.1298730000001,0.,4.70852499999991));
#877=CARTESIAN_POINT('',(23.129875,0.,3.70852699999984));
#878=CARTESIAN_POINT('Origin',(23.129875,0.,4.70852499999991));
#879=CARTESIAN_POINT('',(-0.270078199999857,0.,3.70852699999993));
#880=CARTESIAN_POINT('',(-0.270078199999857,0.,3.70852699999993));
#881=CARTESIAN_POINT('',(-1.27005079999951,0.,4.70139764046912));
#882=CARTESIAN_POINT('Origin',(-0.270078199999857,0.,4.70852499999991));
#883=CARTESIAN_POINT('',(-1.27005079999982,0.,-25.4));
#884=CARTESIAN_POINT('',(-1.27005079999982,0.,-25.4));
#885=CARTESIAN_POINT('',(43.1799492000002,0.,-25.4));
#886=CARTESIAN_POINT('',(43.1799492000002,0.,-25.4));
#887=CARTESIAN_POINT('',(43.1799492000002,0.,62.357));
#888=CARTESIAN_POINT('',(43.1799492000002,0.,62.357));
#889=CARTESIAN_POINT('',(-1.27005079999983,0.,62.357));
#890=CARTESIAN_POINT('',(-1.27005079999983,0.,62.357));
#891=CARTESIAN_POINT('',(-1.27005079999982,0.,50.9755801594995));
#892=CARTESIAN_POINT('',(-1.27005079999982,0.,-25.4));
#893=CARTESIAN_POINT('Origin',(-0.270078199999857,0.,50.9684527999999));
#894=CARTESIAN_POINT('',(19.4308984,0.,1.52410159999993));
#895=CARTESIAN_POINT('',(3.42889839999998,0.,1.52410159999993));
#896=CARTESIAN_POINT('',(19.4308984,0.,1.52410159999993));
#897=CARTESIAN_POINT('',(19.4308984,0.,-17.0178984000001));
#898=CARTESIAN_POINT('',(19.4308984,0.,-17.0178984000001));
#899=CARTESIAN_POINT('',(3.42889839999998,0.,-17.0178984000001));
#900=CARTESIAN_POINT('',(3.42889839999998,0.,-17.0178984000001));
#901=CARTESIAN_POINT('',(3.42889839999998,0.,1.52410159999993));
#902=CARTESIAN_POINT('',(34.671,0.,58.7590900000001));
#903=CARTESIAN_POINT('',(24.003,0.,58.7590900000001));
#904=CARTESIAN_POINT('',(24.003,0.,58.7590900000001));
#905=CARTESIAN_POINT('',(34.671,0.,52.959));
#906=CARTESIAN_POINT('',(34.671,0.,58.7590900000001));
#907=CARTESIAN_POINT('',(24.003,0.,52.959));
#908=CARTESIAN_POINT('',(24.003,0.,52.959));
#909=CARTESIAN_POINT('',(24.003,0.,58.7590900000001));
#910=CARTESIAN_POINT('',(21.2088984,0.,-17.1448984000001));
#911=CARTESIAN_POINT('',(37.2108984,0.,-17.1448984000001));
#912=CARTESIAN_POINT('',(21.2088984,0.,-17.1448984000001));
#913=CARTESIAN_POINT('',(21.2088984,0.,1.39710159999993));
#914=CARTESIAN_POINT('',(21.2088984,0.,1.39710159999993));
#915=CARTESIAN_POINT('',(37.2108984,0.,1.39710159999993));
#916=CARTESIAN_POINT('',(37.2108984,0.,1.39710159999993));
#917=CARTESIAN_POINT('',(37.2108984,0.,-17.1448984000001));
#918=CARTESIAN_POINT('Origin',(20.9549492000002,0.8,18.4785));
#919=CARTESIAN_POINT('',(23.129875,0.8,51.9684507999999));
#920=CARTESIAN_POINT('',(-0.270078199999855,0.8,51.9684508));
#921=CARTESIAN_POINT('',(23.129875,0.8,51.9684507999999));
#922=CARTESIAN_POINT('',(-1.27005079999983,0.8,50.9755801594995));
#923=CARTESIAN_POINT('Origin',(-0.270078199999857,0.8,50.9684527999999));
#924=CARTESIAN_POINT('',(-1.27005079999983,0.8,62.357));
#925=CARTESIAN_POINT('',(-1.27005079999982,0.8,-25.4));
#926=CARTESIAN_POINT('',(43.1799492000002,0.8,62.357));
#927=CARTESIAN_POINT('',(-1.27005079999983,0.8,62.357));
#928=CARTESIAN_POINT('',(43.1799492000002,0.8,-25.4));
#929=CARTESIAN_POINT('',(43.1799492000002,0.8,62.357));
#930=CARTESIAN_POINT('',(-1.27005079999982,0.8,-25.4));
#931=CARTESIAN_POINT('',(43.1799492000002,0.8,-25.4));
#932=CARTESIAN_POINT('',(-1.27005079999951,0.8,4.70139764046912));
#933=CARTESIAN_POINT('',(-1.27005079999982,0.8,-25.4));
#934=CARTESIAN_POINT('',(-0.270078199999857,0.8,3.70852699999993));
#935=CARTESIAN_POINT('Origin',(-0.270078199999857,0.8,4.70852499999991));
#936=CARTESIAN_POINT('',(23.129875,0.8,3.70852699999984));
#937=CARTESIAN_POINT('',(-0.270078199999857,0.8,3.70852699999993));
#938=CARTESIAN_POINT('',(24.1298730000001,0.8,4.70852499999991));
#939=CARTESIAN_POINT('Origin',(23.129875,0.8,4.70852499999991));
#940=CARTESIAN_POINT('',(24.129873,0.8,50.9684527999999));
#941=CARTESIAN_POINT('',(24.1298730000001,0.8,4.70852499999991));
#942=CARTESIAN_POINT('Origin',(23.129875,0.8,50.9684527999999));
#943=CARTESIAN_POINT('',(19.4308984,0.8,1.52410159999993));
#944=CARTESIAN_POINT('',(3.42889839999998,0.8,1.52410159999993));
#945=CARTESIAN_POINT('',(19.4308984,0.8,1.52410159999993));
#946=CARTESIAN_POINT('',(3.42889839999998,0.8,-17.0178984000001));
#947=CARTESIAN_POINT('',(3.42889839999998,0.8,1.52410159999993));
#948=CARTESIAN_POINT('',(19.4308984,0.8,-17.0178984000001));
#949=CARTESIAN_POINT('',(3.42889839999998,0.8,-17.0178984000001));
#950=CARTESIAN_POINT('',(19.4308984,0.8,-17.0178984000001));
#951=CARTESIAN_POINT('',(34.671,0.8,58.7590900000001));
#952=CARTESIAN_POINT('',(24.003,0.8,58.7590900000001));
#953=CARTESIAN_POINT('',(24.003,0.8,58.7590900000001));
#954=CARTESIAN_POINT('',(24.003,0.8,52.959));
#955=CARTESIAN_POINT('',(24.003,0.8,58.7590900000001));
#956=CARTESIAN_POINT('',(34.671,0.8,52.959));
#957=CARTESIAN_POINT('',(24.003,0.8,52.959));
#958=CARTESIAN_POINT('',(34.671,0.8,58.7590900000001));
#959=CARTESIAN_POINT('',(21.2088984,0.8,-17.1448984000001));
#960=CARTESIAN_POINT('',(37.2108984,0.8,-17.1448984000001));
#961=CARTESIAN_POINT('',(21.2088984,0.8,-17.1448984000001));
#962=CARTESIAN_POINT('',(37.2108984,0.8,1.39710159999993));
#963=CARTESIAN_POINT('',(37.2108984,0.8,-17.1448984000001));
#964=CARTESIAN_POINT('',(21.2088984,0.8,1.39710159999993));
#965=CARTESIAN_POINT('',(37.2108984,0.8,1.39710159999993));
#966=CARTESIAN_POINT('',(21.2088984,0.8,1.39710159999993));
#967=CARTESIAN_POINT('Origin',(23.129875,0.,51.9684507999999));
#968=CARTESIAN_POINT('',(-0.270078199999855,0.,51.9684508));
#969=CARTESIAN_POINT('',(23.129875,0.,51.9684507999999));
#970=CARTESIAN_POINT('Origin',(-0.270078199999857,0.,50.9684527999999));
#971=CARTESIAN_POINT('',(-1.27005079999982,0.,50.9755801594995));
#972=CARTESIAN_POINT('Origin',(-1.27005079999982,0.,50.9755801594995));
#973=CARTESIAN_POINT('',(-1.27005079999983,0.,62.357));
#974=CARTESIAN_POINT('Origin',(-1.27005079999983,0.,62.357));
#975=CARTESIAN_POINT('',(43.1799492000002,0.,62.357));
#976=CARTESIAN_POINT('Origin',(43.1799492000002,0.,62.357));
#977=CARTESIAN_POINT('',(43.1799492000002,0.,-25.4));
#978=CARTESIAN_POINT('Origin',(43.1799492000002,0.,-25.4));
#979=CARTESIAN_POINT('',(-1.27005079999982,0.,-25.4));
#980=CARTESIAN_POINT('Origin',(-1.27005079999982,0.,-25.4));
#981=CARTESIAN_POINT('',(-1.27005079999951,0.,4.70139764046912));
#982=CARTESIAN_POINT('Origin',(-0.270078199999857,0.,4.70852499999991));
#983=CARTESIAN_POINT('',(-0.270078199999857,0.,3.70852699999993));
#984=CARTESIAN_POINT('Origin',(-0.270078199999857,0.,3.70852699999993));
#985=CARTESIAN_POINT('',(23.129875,0.,3.70852699999984));
#986=CARTESIAN_POINT('Origin',(23.129875,0.,4.70852499999991));
#987=CARTESIAN_POINT('',(24.1298730000001,0.,4.70852499999991));
#988=CARTESIAN_POINT('Origin',(24.1298730000001,0.,4.70852499999991));
#989=CARTESIAN_POINT('',(24.129873,0.,50.9684527999999));
#990=CARTESIAN_POINT('Origin',(23.129875,0.,50.9684527999999));
#991=CARTESIAN_POINT('Origin',(19.4308984,0.,1.52410159999993));
#992=CARTESIAN_POINT('',(3.42889839999998,0.,1.52410159999993));
#993=CARTESIAN_POINT('',(19.4308984,0.,1.52410159999993));
#994=CARTESIAN_POINT('Origin',(3.42889839999998,0.,1.52410159999993));
#995=CARTESIAN_POINT('',(3.42889839999998,0.,-17.0178984000001));
#996=CARTESIAN_POINT('Origin',(3.42889839999998,0.,-17.0178984000001));
#997=CARTESIAN_POINT('',(19.4308984,0.,-17.0178984000001));
#998=CARTESIAN_POINT('Origin',(19.4308984,0.,-17.0178984000001));
#999=CARTESIAN_POINT('Origin',(34.671,0.,58.7590900000001));
#1000=CARTESIAN_POINT('',(24.003,0.,58.7590900000001));
#1001=CARTESIAN_POINT('',(34.671,0.,58.7590900000001));
#1002=CARTESIAN_POINT('Origin',(24.003,0.,58.7590900000001));
#1003=CARTESIAN_POINT('',(24.003,0.,52.959));
#1004=CARTESIAN_POINT('Origin',(24.003,0.,52.959));
#1005=CARTESIAN_POINT('',(34.671,0.,52.959));
#1006=CARTESIAN_POINT('Origin',(34.671,0.,52.959));
#1007=CARTESIAN_POINT('Origin',(21.2088984,0.,-17.1448984000001));
#1008=CARTESIAN_POINT('',(37.2108984,0.,-17.1448984000001));
#1009=CARTESIAN_POINT('',(21.2088984,0.,-17.1448984000001));
#1010=CARTESIAN_POINT('Origin',(37.2108984,0.,-17.1448984000001));
#1011=CARTESIAN_POINT('',(37.2108984,0.,1.39710159999993));
#1012=CARTESIAN_POINT('Origin',(37.2108984,0.,1.39710159999993));
#1013=CARTESIAN_POINT('',(21.2088984,0.,1.39710159999993));
#1014=CARTESIAN_POINT('Origin',(21.2088984,0.,1.39710159999993));
#1015=UNCERTAINTY_MEASURE_WITH_UNIT(LENGTH_MEASURE(0.01),#1019,
'DISTANCE_ACCURACY_VALUE',
'Maximum model space distance between geometric entities at asserted c
onnectivities');
#1016=UNCERTAINTY_MEASURE_WITH_UNIT(LENGTH_MEASURE(0.01),#1019,
'DISTANCE_ACCURACY_VALUE',
'Maximum model space distance between geometric entities at asserted c
onnectivities');
#1017=(
GEOMETRIC_REPRESENTATION_CONTEXT(3)
GLOBAL_UNCERTAINTY_ASSIGNED_CONTEXT((#1015))
GLOBAL_UNIT_ASSIGNED_CONTEXT((#1019,#1021,#1022))
REPRESENTATION_CONTEXT('','3D')
);
#1018=(
GEOMETRIC_REPRESENTATION_CONTEXT(3)
GLOBAL_UNCERTAINTY_ASSIGNED_CONTEXT((#1016))
GLOBAL_UNIT_ASSIGNED_CONTEXT((#1019,#1021,#1022))
REPRESENTATION_CONTEXT('','3D')
);
#1019=(
LENGTH_UNIT()
NAMED_UNIT(*)
SI_UNIT(.MILLI.,.METRE.)
);
#1020=(
LENGTH_UNIT()
NAMED_UNIT(*)
SI_UNIT($,.METRE.)
);
#1021=(
NAMED_UNIT(*)
PLANE_ANGLE_UNIT()
SI_UNIT($,.RADIAN.)
);
#1022=(
NAMED_UNIT(*)
SI_UNIT($,.STERADIAN.)
SOLID_ANGLE_UNIT()
);
#1023=SHAPE_DEFINITION_REPRESENTATION(#1024,#1025);
#1024=PRODUCT_DEFINITION_SHAPE('',$,#1027);
#1025=SHAPE_REPRESENTATION('',(#635),#1017);
#1026=PRODUCT_DEFINITION_CONTEXT('part definition',#1031,'design');
#1027=PRODUCT_DEFINITION('PCB 1.2','PCB 1.2 v2',#1028,#1026);
#1028=PRODUCT_DEFINITION_FORMATION('',$,#1033);
#1029=PRODUCT_RELATED_PRODUCT_CATEGORY('PCB 1.2 v2','PCB 1.2 v2',(#1033));
#1030=APPLICATION_PROTOCOL_DEFINITION('international standard',
'automotive_design',2009,#1031);
#1031=APPLICATION_CONTEXT(
'Core Data for Automotive Mechanical Design Process');
#1032=PRODUCT_CONTEXT('part definition',#1031,'mechanical');
#1033=PRODUCT('PCB 1.2','PCB 1.2 v2',$,(#1032));
#1034=PRESENTATION_STYLE_ASSIGNMENT((#1035));
#1035=SURFACE_STYLE_USAGE(.BOTH.,#1036);
#1036=SURFACE_SIDE_STYLE('',(#1037));
#1037=SURFACE_STYLE_FILL_AREA(#1038);
#1038=FILL_AREA_STYLE('Steel - Satin',(#1039));
#1039=FILL_AREA_STYLE_COLOUR('Steel - Satin',#1040);
#1040=COLOUR_RGB('Steel - Satin',0.627450980392157,0.627450980392157,0.627450980392157);
ENDSEC;
END-ISO-10303-21;
