ISO-10303-21;
HEADER;
/* Generated by software containing ST-Developer
 * from STEP Tools, Inc. (www.steptools.com) 
 */

FILE_DESCRIPTION(
/* description */ (''),
/* implementation_level */ '2;1');

FILE_NAME(
/* name */ 'Turret Motor Guide2.step',
/* time_stamp */ '2026-07-01T22:03:52+09:00',
/* author */ (''),
/* organization */ (''),
/* preprocessor_version */ 'ST-DEVELOPER v20.1',
/* originating_system */ 'Autodesk Translation Framework v15.8.0.0',
/* authorisation */ '');

FILE_SCHEMA (('AUTOMOTIVE_DESIGN { 1 0 10303 214 3 1 1 }'));
ENDSEC;

DATA;
#10=MECHANICAL_DESIGN_GEOMETRIC_PRESENTATION_REPRESENTATION('',(#13,#14),
#934);
#11=SHAPE_REPRESENTATION_RELATIONSHIP('SRR','None',#941,#12);
#12=ADVANCED_BREP_SHAPE_REPRESENTATION('',(#15,#16),#933);
#13=STYLED_ITEM('',(#950),#15);
#14=STYLED_ITEM('',(#950),#16);
#15=MANIFOLD_SOLID_BREP('Body1',#561);
#16=MANIFOLD_SOLID_BREP('Body2',#562);
#17=FACE_BOUND('',#94,.T.);
#18=FACE_BOUND('',#95,.T.);
#19=FACE_BOUND('',#101,.T.);
#20=FACE_BOUND('',#102,.T.);
#21=FACE_BOUND('',#120,.T.);
#22=FACE_BOUND('',#121,.T.);
#23=FACE_BOUND('',#122,.T.);
#24=FACE_BOUND('',#123,.T.);
#25=FACE_BOUND('',#125,.T.);
#26=FACE_BOUND('',#126,.T.);
#27=FACE_BOUND('',#127,.T.);
#28=FACE_BOUND('',#128,.T.);
#29=CIRCLE('',#582,1.);
#30=CIRCLE('',#583,1.);
#31=CIRCLE('',#585,1.);
#32=CIRCLE('',#586,1.);
#33=CIRCLE('',#591,1.);
#34=CIRCLE('',#592,1.);
#35=CIRCLE('',#594,1.);
#36=CIRCLE('',#595,1.);
#37=CIRCLE('',#607,1.);
#38=CIRCLE('',#608,1.);
#39=CIRCLE('',#610,1.);
#40=CIRCLE('',#611,1.);
#41=CIRCLE('',#613,1.);
#42=CIRCLE('',#614,1.);
#43=CIRCLE('',#616,1.);
#44=CIRCLE('',#617,1.);
#45=CYLINDRICAL_SURFACE('',#581,1.);
#46=CYLINDRICAL_SURFACE('',#584,1.);
#47=CYLINDRICAL_SURFACE('',#590,1.);
#48=CYLINDRICAL_SURFACE('',#593,1.);
#49=CYLINDRICAL_SURFACE('',#606,1.);
#50=CYLINDRICAL_SURFACE('',#609,1.);
#51=CYLINDRICAL_SURFACE('',#612,1.);
#52=CYLINDRICAL_SURFACE('',#615,1.);
#53=FACE_OUTER_BOUND('',#85,.T.);
#54=FACE_OUTER_BOUND('',#86,.T.);
#55=FACE_OUTER_BOUND('',#87,.T.);
#56=FACE_OUTER_BOUND('',#88,.T.);
#57=FACE_OUTER_BOUND('',#89,.T.);
#58=FACE_OUTER_BOUND('',#90,.T.);
#59=FACE_OUTER_BOUND('',#91,.T.);
#60=FACE_OUTER_BOUND('',#92,.T.);
#61=FACE_OUTER_BOUND('',#93,.T.);
#62=FACE_OUTER_BOUND('',#96,.T.);
#63=FACE_OUTER_BOUND('',#97,.T.);
#64=FACE_OUTER_BOUND('',#98,.T.);
#65=FACE_OUTER_BOUND('',#99,.T.);
#66=FACE_OUTER_BOUND('',#100,.T.);
#67=FACE_OUTER_BOUND('',#103,.T.);
#68=FACE_OUTER_BOUND('',#104,.T.);
#69=FACE_OUTER_BOUND('',#105,.T.);
#70=FACE_OUTER_BOUND('',#106,.T.);
#71=FACE_OUTER_BOUND('',#107,.T.);
#72=FACE_OUTER_BOUND('',#108,.T.);
#73=FACE_OUTER_BOUND('',#109,.T.);
#74=FACE_OUTER_BOUND('',#110,.T.);
#75=FACE_OUTER_BOUND('',#111,.T.);
#76=FACE_OUTER_BOUND('',#112,.T.);
#77=FACE_OUTER_BOUND('',#113,.T.);
#78=FACE_OUTER_BOUND('',#114,.T.);
#79=FACE_OUTER_BOUND('',#115,.T.);
#80=FACE_OUTER_BOUND('',#116,.T.);
#81=FACE_OUTER_BOUND('',#117,.T.);
#82=FACE_OUTER_BOUND('',#118,.T.);
#83=FACE_OUTER_BOUND('',#119,.T.);
#84=FACE_OUTER_BOUND('',#124,.T.);
#85=EDGE_LOOP('',(#361,#362,#363,#364));
#86=EDGE_LOOP('',(#365,#366,#367,#368));
#87=EDGE_LOOP('',(#369,#370,#371,#372));
#88=EDGE_LOOP('',(#373,#374,#375,#376));
#89=EDGE_LOOP('',(#377,#378,#379,#380,#381,#382,#383,#384));
#90=EDGE_LOOP('',(#385,#386,#387,#388));
#91=EDGE_LOOP('',(#389,#390,#391,#392));
#92=EDGE_LOOP('',(#393,#394,#395,#396,#397,#398,#399,#400));
#93=EDGE_LOOP('',(#401,#402,#403,#404));
#94=EDGE_LOOP('',(#405));
#95=EDGE_LOOP('',(#406));
#96=EDGE_LOOP('',(#407));
#97=EDGE_LOOP('',(#408,#409,#410,#411));
#98=EDGE_LOOP('',(#412,#413,#414,#415));
#99=EDGE_LOOP('',(#416,#417,#418,#419));
#100=EDGE_LOOP('',(#420,#421,#422,#423));
#101=EDGE_LOOP('',(#424));
#102=EDGE_LOOP('',(#425));
#103=EDGE_LOOP('',(#426));
#104=EDGE_LOOP('',(#427));
#105=EDGE_LOOP('',(#428,#429,#430,#431));
#106=EDGE_LOOP('',(#432,#433,#434,#435,#436,#437,#438,#439));
#107=EDGE_LOOP('',(#440,#441,#442,#443));
#108=EDGE_LOOP('',(#444,#445,#446,#447,#448,#449,#450,#451));
#109=EDGE_LOOP('',(#452,#453,#454,#455));
#110=EDGE_LOOP('',(#456));
#111=EDGE_LOOP('',(#457,#458,#459,#460));
#112=EDGE_LOOP('',(#461,#462,#463,#464));
#113=EDGE_LOOP('',(#465,#466,#467,#468));
#114=EDGE_LOOP('',(#469,#470,#471,#472));
#115=EDGE_LOOP('',(#473,#474,#475,#476));
#116=EDGE_LOOP('',(#477,#478,#479,#480));
#117=EDGE_LOOP('',(#481,#482,#483,#484));
#118=EDGE_LOOP('',(#485,#486,#487,#488));
#119=EDGE_LOOP('',(#489,#490,#491,#492));
#120=EDGE_LOOP('',(#493));
#121=EDGE_LOOP('',(#494));
#122=EDGE_LOOP('',(#495));
#123=EDGE_LOOP('',(#496));
#124=EDGE_LOOP('',(#497,#498,#499,#500));
#125=EDGE_LOOP('',(#501));
#126=EDGE_LOOP('',(#502));
#127=EDGE_LOOP('',(#503));
#128=EDGE_LOOP('',(#504));
#129=LINE('',#782,#185);
#130=LINE('',#784,#186);
#131=LINE('',#786,#187);
#132=LINE('',#787,#188);
#133=LINE('',#790,#189);
#134=LINE('',#792,#190);
#135=LINE('',#793,#191);
#136=LINE('',#796,#192);
#137=LINE('',#798,#193);
#138=LINE('',#799,#194);
#139=LINE('',#801,#195);
#140=LINE('',#804,#196);
#141=LINE('',#806,#197);
#142=LINE('',#808,#198);
#143=LINE('',#810,#199);
#144=LINE('',#811,#200);
#145=LINE('',#816,#201);
#146=LINE('',#822,#202);
#147=LINE('',#826,#203);
#148=LINE('',#828,#204);
#149=LINE('',#829,#205);
#150=LINE('',#832,#206);
#151=LINE('',#834,#207);
#152=LINE('',#835,#208);
#153=LINE('',#841,#209);
#154=LINE('',#847,#210);
#155=LINE('',#851,#211);
#156=LINE('',#853,#212);
#157=LINE('',#854,#213);
#158=LINE('',#857,#214);
#159=LINE('',#859,#215);
#160=LINE('',#860,#216);
#161=LINE('',#865,#217);
#162=LINE('',#867,#218);
#163=LINE('',#868,#219);
#164=LINE('',#871,#220);
#165=LINE('',#872,#221);
#166=LINE('',#875,#222);
#167=LINE('',#876,#223);
#168=LINE('',#878,#224);
#169=LINE('',#885,#225);
#170=LINE('',#891,#226);
#171=LINE('',#897,#227);
#172=LINE('',#903,#228);
#173=LINE('',#908,#229);
#174=LINE('',#910,#230);
#175=LINE('',#912,#231);
#176=LINE('',#913,#232);
#177=LINE('',#916,#233);
#178=LINE('',#918,#234);
#179=LINE('',#919,#235);
#180=LINE('',#922,#236);
#181=LINE('',#924,#237);
#182=LINE('',#925,#238);
#183=LINE('',#927,#239);
#184=LINE('',#928,#240);
#185=VECTOR('',#628,10.);
#186=VECTOR('',#629,10.);
#187=VECTOR('',#630,10.);
#188=VECTOR('',#631,10.);
#189=VECTOR('',#634,10.);
#190=VECTOR('',#635,10.);
#191=VECTOR('',#636,10.);
#192=VECTOR('',#639,10.);
#193=VECTOR('',#640,10.);
#194=VECTOR('',#641,10.);
#195=VECTOR('',#644,10.);
#196=VECTOR('',#647,10.);
#197=VECTOR('',#648,10.);
#198=VECTOR('',#649,10.);
#199=VECTOR('',#650,10.);
#200=VECTOR('',#651,10.);
#201=VECTOR('',#656,1.);
#202=VECTOR('',#663,1.);
#203=VECTOR('',#668,10.);
#204=VECTOR('',#669,10.);
#205=VECTOR('',#670,10.);
#206=VECTOR('',#673,10.);
#207=VECTOR('',#674,10.);
#208=VECTOR('',#675,10.);
#209=VECTOR('',#682,1.);
#210=VECTOR('',#689,1.);
#211=VECTOR('',#694,10.);
#212=VECTOR('',#695,10.);
#213=VECTOR('',#696,10.);
#214=VECTOR('',#699,10.);
#215=VECTOR('',#700,10.);
#216=VECTOR('',#701,10.);
#217=VECTOR('',#708,10.);
#218=VECTOR('',#709,10.);
#219=VECTOR('',#710,10.);
#220=VECTOR('',#713,10.);
#221=VECTOR('',#714,10.);
#222=VECTOR('',#717,10.);
#223=VECTOR('',#718,10.);
#224=VECTOR('',#721,10.);
#225=VECTOR('',#730,1.);
#226=VECTOR('',#737,1.);
#227=VECTOR('',#744,1.);
#228=VECTOR('',#751,1.);
#229=VECTOR('',#756,10.);
#230=VECTOR('',#757,10.);
#231=VECTOR('',#758,10.);
#232=VECTOR('',#759,10.);
#233=VECTOR('',#762,10.);
#234=VECTOR('',#763,10.);
#235=VECTOR('',#764,10.);
#236=VECTOR('',#767,10.);
#237=VECTOR('',#768,10.);
#238=VECTOR('',#769,10.);
#239=VECTOR('',#772,10.);
#240=VECTOR('',#773,10.);
#241=VERTEX_POINT('',#780);
#242=VERTEX_POINT('',#781);
#243=VERTEX_POINT('',#783);
#244=VERTEX_POINT('',#785);
#245=VERTEX_POINT('',#789);
#246=VERTEX_POINT('',#791);
#247=VERTEX_POINT('',#795);
#248=VERTEX_POINT('',#797);
#249=VERTEX_POINT('',#803);
#250=VERTEX_POINT('',#805);
#251=VERTEX_POINT('',#807);
#252=VERTEX_POINT('',#809);
#253=VERTEX_POINT('',#813);
#254=VERTEX_POINT('',#815);
#255=VERTEX_POINT('',#819);
#256=VERTEX_POINT('',#821);
#257=VERTEX_POINT('',#825);
#258=VERTEX_POINT('',#827);
#259=VERTEX_POINT('',#831);
#260=VERTEX_POINT('',#833);
#261=VERTEX_POINT('',#838);
#262=VERTEX_POINT('',#840);
#263=VERTEX_POINT('',#844);
#264=VERTEX_POINT('',#846);
#265=VERTEX_POINT('',#850);
#266=VERTEX_POINT('',#852);
#267=VERTEX_POINT('',#856);
#268=VERTEX_POINT('',#858);
#269=VERTEX_POINT('',#864);
#270=VERTEX_POINT('',#866);
#271=VERTEX_POINT('',#870);
#272=VERTEX_POINT('',#874);
#273=VERTEX_POINT('',#882);
#274=VERTEX_POINT('',#884);
#275=VERTEX_POINT('',#888);
#276=VERTEX_POINT('',#890);
#277=VERTEX_POINT('',#894);
#278=VERTEX_POINT('',#896);
#279=VERTEX_POINT('',#900);
#280=VERTEX_POINT('',#902);
#281=VERTEX_POINT('',#906);
#282=VERTEX_POINT('',#907);
#283=VERTEX_POINT('',#909);
#284=VERTEX_POINT('',#911);
#285=VERTEX_POINT('',#915);
#286=VERTEX_POINT('',#917);
#287=VERTEX_POINT('',#921);
#288=VERTEX_POINT('',#923);
#289=EDGE_CURVE('',#241,#242,#129,.T.);
#290=EDGE_CURVE('',#241,#243,#130,.T.);
#291=EDGE_CURVE('',#244,#243,#131,.T.);
#292=EDGE_CURVE('',#242,#244,#132,.T.);
#293=EDGE_CURVE('',#242,#245,#133,.T.);
#294=EDGE_CURVE('',#246,#244,#134,.T.);
#295=EDGE_CURVE('',#245,#246,#135,.T.);
#296=EDGE_CURVE('',#247,#241,#136,.T.);
#297=EDGE_CURVE('',#248,#247,#137,.T.);
#298=EDGE_CURVE('',#243,#248,#138,.T.);
#299=EDGE_CURVE('',#246,#248,#139,.T.);
#300=EDGE_CURVE('',#245,#249,#140,.T.);
#301=EDGE_CURVE('',#249,#250,#141,.T.);
#302=EDGE_CURVE('',#250,#251,#142,.T.);
#303=EDGE_CURVE('',#251,#252,#143,.T.);
#304=EDGE_CURVE('',#252,#247,#144,.T.);
#305=EDGE_CURVE('',#253,#253,#29,.T.);
#306=EDGE_CURVE('',#253,#254,#145,.T.);
#307=EDGE_CURVE('',#254,#254,#30,.T.);
#308=EDGE_CURVE('',#255,#255,#31,.T.);
#309=EDGE_CURVE('',#255,#256,#146,.T.);
#310=EDGE_CURVE('',#256,#256,#32,.T.);
#311=EDGE_CURVE('',#252,#257,#147,.T.);
#312=EDGE_CURVE('',#258,#257,#148,.T.);
#313=EDGE_CURVE('',#249,#258,#149,.T.);
#314=EDGE_CURVE('',#257,#259,#150,.T.);
#315=EDGE_CURVE('',#259,#260,#151,.T.);
#316=EDGE_CURVE('',#260,#258,#152,.T.);
#317=EDGE_CURVE('',#261,#261,#33,.T.);
#318=EDGE_CURVE('',#261,#262,#153,.T.);
#319=EDGE_CURVE('',#262,#262,#34,.T.);
#320=EDGE_CURVE('',#263,#263,#35,.T.);
#321=EDGE_CURVE('',#263,#264,#154,.T.);
#322=EDGE_CURVE('',#264,#264,#36,.T.);
#323=EDGE_CURVE('',#250,#265,#155,.T.);
#324=EDGE_CURVE('',#266,#265,#156,.T.);
#325=EDGE_CURVE('',#251,#266,#157,.T.);
#326=EDGE_CURVE('',#267,#266,#158,.T.);
#327=EDGE_CURVE('',#265,#268,#159,.T.);
#328=EDGE_CURVE('',#268,#267,#160,.T.);
#329=EDGE_CURVE('',#259,#269,#161,.T.);
#330=EDGE_CURVE('',#270,#269,#162,.T.);
#331=EDGE_CURVE('',#260,#270,#163,.T.);
#332=EDGE_CURVE('',#271,#270,#164,.T.);
#333=EDGE_CURVE('',#268,#271,#165,.T.);
#334=EDGE_CURVE('',#272,#271,#166,.T.);
#335=EDGE_CURVE('',#267,#272,#167,.T.);
#336=EDGE_CURVE('',#269,#272,#168,.T.);
#337=EDGE_CURVE('',#273,#273,#37,.T.);
#338=EDGE_CURVE('',#273,#274,#169,.T.);
#339=EDGE_CURVE('',#274,#274,#38,.T.);
#340=EDGE_CURVE('',#275,#275,#39,.T.);
#341=EDGE_CURVE('',#275,#276,#170,.T.);
#342=EDGE_CURVE('',#276,#276,#40,.T.);
#343=EDGE_CURVE('',#277,#277,#41,.T.);
#344=EDGE_CURVE('',#277,#278,#171,.T.);
#345=EDGE_CURVE('',#278,#278,#42,.T.);
#346=EDGE_CURVE('',#279,#279,#43,.T.);
#347=EDGE_CURVE('',#279,#280,#172,.T.);
#348=EDGE_CURVE('',#280,#280,#44,.T.);
#349=EDGE_CURVE('',#281,#282,#173,.T.);
#350=EDGE_CURVE('',#282,#283,#174,.T.);
#351=EDGE_CURVE('',#284,#283,#175,.T.);
#352=EDGE_CURVE('',#281,#284,#176,.T.);
#353=EDGE_CURVE('',#285,#281,#177,.T.);
#354=EDGE_CURVE('',#286,#284,#178,.T.);
#355=EDGE_CURVE('',#285,#286,#179,.T.);
#356=EDGE_CURVE('',#287,#285,#180,.T.);
#357=EDGE_CURVE('',#288,#286,#181,.T.);
#358=EDGE_CURVE('',#287,#288,#182,.T.);
#359=EDGE_CURVE('',#282,#287,#183,.T.);
#360=EDGE_CURVE('',#283,#288,#184,.T.);
#361=ORIENTED_EDGE('',*,*,#289,.F.);
#362=ORIENTED_EDGE('',*,*,#290,.T.);
#363=ORIENTED_EDGE('',*,*,#291,.F.);
#364=ORIENTED_EDGE('',*,*,#292,.F.);
#365=ORIENTED_EDGE('',*,*,#293,.F.);
#366=ORIENTED_EDGE('',*,*,#292,.T.);
#367=ORIENTED_EDGE('',*,*,#294,.F.);
#368=ORIENTED_EDGE('',*,*,#295,.F.);
#369=ORIENTED_EDGE('',*,*,#296,.F.);
#370=ORIENTED_EDGE('',*,*,#297,.F.);
#371=ORIENTED_EDGE('',*,*,#298,.F.);
#372=ORIENTED_EDGE('',*,*,#290,.F.);
#373=ORIENTED_EDGE('',*,*,#298,.T.);
#374=ORIENTED_EDGE('',*,*,#299,.F.);
#375=ORIENTED_EDGE('',*,*,#294,.T.);
#376=ORIENTED_EDGE('',*,*,#291,.T.);
#377=ORIENTED_EDGE('',*,*,#296,.T.);
#378=ORIENTED_EDGE('',*,*,#289,.T.);
#379=ORIENTED_EDGE('',*,*,#293,.T.);
#380=ORIENTED_EDGE('',*,*,#300,.T.);
#381=ORIENTED_EDGE('',*,*,#301,.T.);
#382=ORIENTED_EDGE('',*,*,#302,.T.);
#383=ORIENTED_EDGE('',*,*,#303,.T.);
#384=ORIENTED_EDGE('',*,*,#304,.T.);
#385=ORIENTED_EDGE('',*,*,#305,.F.);
#386=ORIENTED_EDGE('',*,*,#306,.T.);
#387=ORIENTED_EDGE('',*,*,#307,.F.);
#388=ORIENTED_EDGE('',*,*,#306,.F.);
#389=ORIENTED_EDGE('',*,*,#308,.F.);
#390=ORIENTED_EDGE('',*,*,#309,.T.);
#391=ORIENTED_EDGE('',*,*,#310,.F.);
#392=ORIENTED_EDGE('',*,*,#309,.F.);
#393=ORIENTED_EDGE('',*,*,#297,.T.);
#394=ORIENTED_EDGE('',*,*,#304,.F.);
#395=ORIENTED_EDGE('',*,*,#311,.T.);
#396=ORIENTED_EDGE('',*,*,#312,.F.);
#397=ORIENTED_EDGE('',*,*,#313,.F.);
#398=ORIENTED_EDGE('',*,*,#300,.F.);
#399=ORIENTED_EDGE('',*,*,#295,.T.);
#400=ORIENTED_EDGE('',*,*,#299,.T.);
#401=ORIENTED_EDGE('',*,*,#312,.T.);
#402=ORIENTED_EDGE('',*,*,#314,.T.);
#403=ORIENTED_EDGE('',*,*,#315,.T.);
#404=ORIENTED_EDGE('',*,*,#316,.T.);
#405=ORIENTED_EDGE('',*,*,#308,.T.);
#406=ORIENTED_EDGE('',*,*,#305,.T.);
#407=ORIENTED_EDGE('',*,*,#310,.T.);
#408=ORIENTED_EDGE('',*,*,#317,.F.);
#409=ORIENTED_EDGE('',*,*,#318,.T.);
#410=ORIENTED_EDGE('',*,*,#319,.F.);
#411=ORIENTED_EDGE('',*,*,#318,.F.);
#412=ORIENTED_EDGE('',*,*,#320,.F.);
#413=ORIENTED_EDGE('',*,*,#321,.T.);
#414=ORIENTED_EDGE('',*,*,#322,.F.);
#415=ORIENTED_EDGE('',*,*,#321,.F.);
#416=ORIENTED_EDGE('',*,*,#302,.F.);
#417=ORIENTED_EDGE('',*,*,#323,.T.);
#418=ORIENTED_EDGE('',*,*,#324,.F.);
#419=ORIENTED_EDGE('',*,*,#325,.F.);
#420=ORIENTED_EDGE('',*,*,#326,.T.);
#421=ORIENTED_EDGE('',*,*,#324,.T.);
#422=ORIENTED_EDGE('',*,*,#327,.T.);
#423=ORIENTED_EDGE('',*,*,#328,.T.);
#424=ORIENTED_EDGE('',*,*,#320,.T.);
#425=ORIENTED_EDGE('',*,*,#317,.T.);
#426=ORIENTED_EDGE('',*,*,#322,.T.);
#427=ORIENTED_EDGE('',*,*,#307,.T.);
#428=ORIENTED_EDGE('',*,*,#329,.T.);
#429=ORIENTED_EDGE('',*,*,#330,.F.);
#430=ORIENTED_EDGE('',*,*,#331,.F.);
#431=ORIENTED_EDGE('',*,*,#315,.F.);
#432=ORIENTED_EDGE('',*,*,#331,.T.);
#433=ORIENTED_EDGE('',*,*,#332,.F.);
#434=ORIENTED_EDGE('',*,*,#333,.F.);
#435=ORIENTED_EDGE('',*,*,#327,.F.);
#436=ORIENTED_EDGE('',*,*,#323,.F.);
#437=ORIENTED_EDGE('',*,*,#301,.F.);
#438=ORIENTED_EDGE('',*,*,#313,.T.);
#439=ORIENTED_EDGE('',*,*,#316,.F.);
#440=ORIENTED_EDGE('',*,*,#333,.T.);
#441=ORIENTED_EDGE('',*,*,#334,.F.);
#442=ORIENTED_EDGE('',*,*,#335,.F.);
#443=ORIENTED_EDGE('',*,*,#328,.F.);
#444=ORIENTED_EDGE('',*,*,#335,.T.);
#445=ORIENTED_EDGE('',*,*,#336,.F.);
#446=ORIENTED_EDGE('',*,*,#329,.F.);
#447=ORIENTED_EDGE('',*,*,#314,.F.);
#448=ORIENTED_EDGE('',*,*,#311,.F.);
#449=ORIENTED_EDGE('',*,*,#303,.F.);
#450=ORIENTED_EDGE('',*,*,#325,.T.);
#451=ORIENTED_EDGE('',*,*,#326,.F.);
#452=ORIENTED_EDGE('',*,*,#336,.T.);
#453=ORIENTED_EDGE('',*,*,#334,.T.);
#454=ORIENTED_EDGE('',*,*,#332,.T.);
#455=ORIENTED_EDGE('',*,*,#330,.T.);
#456=ORIENTED_EDGE('',*,*,#319,.T.);
#457=ORIENTED_EDGE('',*,*,#337,.F.);
#458=ORIENTED_EDGE('',*,*,#338,.T.);
#459=ORIENTED_EDGE('',*,*,#339,.T.);
#460=ORIENTED_EDGE('',*,*,#338,.F.);
#461=ORIENTED_EDGE('',*,*,#340,.F.);
#462=ORIENTED_EDGE('',*,*,#341,.T.);
#463=ORIENTED_EDGE('',*,*,#342,.T.);
#464=ORIENTED_EDGE('',*,*,#341,.F.);
#465=ORIENTED_EDGE('',*,*,#343,.F.);
#466=ORIENTED_EDGE('',*,*,#344,.T.);
#467=ORIENTED_EDGE('',*,*,#345,.T.);
#468=ORIENTED_EDGE('',*,*,#344,.F.);
#469=ORIENTED_EDGE('',*,*,#346,.F.);
#470=ORIENTED_EDGE('',*,*,#347,.T.);
#471=ORIENTED_EDGE('',*,*,#348,.T.);
#472=ORIENTED_EDGE('',*,*,#347,.F.);
#473=ORIENTED_EDGE('',*,*,#349,.T.);
#474=ORIENTED_EDGE('',*,*,#350,.T.);
#475=ORIENTED_EDGE('',*,*,#351,.F.);
#476=ORIENTED_EDGE('',*,*,#352,.F.);
#477=ORIENTED_EDGE('',*,*,#353,.T.);
#478=ORIENTED_EDGE('',*,*,#352,.T.);
#479=ORIENTED_EDGE('',*,*,#354,.F.);
#480=ORIENTED_EDGE('',*,*,#355,.F.);
#481=ORIENTED_EDGE('',*,*,#356,.T.);
#482=ORIENTED_EDGE('',*,*,#355,.T.);
#483=ORIENTED_EDGE('',*,*,#357,.F.);
#484=ORIENTED_EDGE('',*,*,#358,.F.);
#485=ORIENTED_EDGE('',*,*,#359,.T.);
#486=ORIENTED_EDGE('',*,*,#358,.T.);
#487=ORIENTED_EDGE('',*,*,#360,.F.);
#488=ORIENTED_EDGE('',*,*,#350,.F.);
#489=ORIENTED_EDGE('',*,*,#360,.T.);
#490=ORIENTED_EDGE('',*,*,#357,.T.);
#491=ORIENTED_EDGE('',*,*,#354,.T.);
#492=ORIENTED_EDGE('',*,*,#351,.T.);
#493=ORIENTED_EDGE('',*,*,#346,.T.);
#494=ORIENTED_EDGE('',*,*,#343,.T.);
#495=ORIENTED_EDGE('',*,*,#340,.T.);
#496=ORIENTED_EDGE('',*,*,#337,.T.);
#497=ORIENTED_EDGE('',*,*,#359,.F.);
#498=ORIENTED_EDGE('',*,*,#349,.F.);
#499=ORIENTED_EDGE('',*,*,#353,.F.);
#500=ORIENTED_EDGE('',*,*,#356,.F.);
#501=ORIENTED_EDGE('',*,*,#348,.F.);
#502=ORIENTED_EDGE('',*,*,#345,.F.);
#503=ORIENTED_EDGE('',*,*,#342,.F.);
#504=ORIENTED_EDGE('',*,*,#339,.F.);
#505=PLANE('',#576);
#506=PLANE('',#577);
#507=PLANE('',#578);
#508=PLANE('',#579);
#509=PLANE('',#580);
#510=PLANE('',#587);
#511=PLANE('',#588);
#512=PLANE('',#589);
#513=PLANE('',#596);
#514=PLANE('',#597);
#515=PLANE('',#598);
#516=PLANE('',#599);
#517=PLANE('',#600);
#518=PLANE('',#601);
#519=PLANE('',#602);
#520=PLANE('',#603);
#521=PLANE('',#604);
#522=PLANE('',#605);
#523=PLANE('',#618);
#524=PLANE('',#619);
#525=PLANE('',#620);
#526=PLANE('',#621);
#527=PLANE('',#622);
#528=PLANE('',#623);
#529=ADVANCED_FACE('',(#53),#505,.T.);
#530=ADVANCED_FACE('',(#54),#506,.T.);
#531=ADVANCED_FACE('',(#55),#507,.T.);
#532=ADVANCED_FACE('',(#56),#508,.T.);
#533=ADVANCED_FACE('',(#57),#509,.F.);
#534=ADVANCED_FACE('',(#58),#45,.F.);
#535=ADVANCED_FACE('',(#59),#46,.F.);
#536=ADVANCED_FACE('',(#60),#510,.T.);
#537=ADVANCED_FACE('',(#61,#17,#18),#511,.F.);
#538=ADVANCED_FACE('',(#62),#512,.F.);
#539=ADVANCED_FACE('',(#63),#47,.F.);
#540=ADVANCED_FACE('',(#64),#48,.F.);
#541=ADVANCED_FACE('',(#65),#513,.T.);
#542=ADVANCED_FACE('',(#66,#19,#20),#514,.F.);
#543=ADVANCED_FACE('',(#67),#515,.F.);
#544=ADVANCED_FACE('',(#68),#516,.F.);
#545=ADVANCED_FACE('',(#69),#517,.T.);
#546=ADVANCED_FACE('',(#70),#518,.T.);
#547=ADVANCED_FACE('',(#71),#519,.T.);
#548=ADVANCED_FACE('',(#72),#520,.T.);
#549=ADVANCED_FACE('',(#73),#521,.T.);
#550=ADVANCED_FACE('',(#74),#522,.F.);
#551=ADVANCED_FACE('',(#75),#49,.F.);
#552=ADVANCED_FACE('',(#76),#50,.F.);
#553=ADVANCED_FACE('',(#77),#51,.F.);
#554=ADVANCED_FACE('',(#78),#52,.F.);
#555=ADVANCED_FACE('',(#79),#523,.T.);
#556=ADVANCED_FACE('',(#80),#524,.T.);
#557=ADVANCED_FACE('',(#81),#525,.T.);
#558=ADVANCED_FACE('',(#82),#526,.T.);
#559=ADVANCED_FACE('',(#83,#21,#22,#23,#24),#527,.T.);
#560=ADVANCED_FACE('',(#84,#25,#26,#27,#28),#528,.F.);
#561=CLOSED_SHELL('',(#529,#530,#531,#532,#533,#534,#535,#536,#537,#538,
#539,#540,#541,#542,#543,#544,#545,#546,#547,#548,#549,#550));
#562=CLOSED_SHELL('',(#551,#552,#553,#554,#555,#556,#557,#558,#559,#560));
#563=DERIVED_UNIT_ELEMENT(#565,1.);
#564=DERIVED_UNIT_ELEMENT(#936,-3.);
#565=(
MASS_UNIT()
NAMED_UNIT(*)
SI_UNIT(.KILO.,.GRAM.)
);
#566=DERIVED_UNIT((#563,#564));
#567=MEASURE_REPRESENTATION_ITEM('density measure',
POSITIVE_RATIO_MEASURE(7850.),#566);
#568=PROPERTY_DEFINITION_REPRESENTATION(#573,#570);
#569=PROPERTY_DEFINITION_REPRESENTATION(#574,#571);
#570=REPRESENTATION('material name',(#572),#933);
#571=REPRESENTATION('density',(#567),#933);
#572=DESCRIPTIVE_REPRESENTATION_ITEM('Steel','Steel');
#573=PROPERTY_DEFINITION('material property','material name',#943);
#574=PROPERTY_DEFINITION('material property','density of part',#943);
#575=AXIS2_PLACEMENT_3D('',#778,#624,#625);
#576=AXIS2_PLACEMENT_3D('',#779,#626,#627);
#577=AXIS2_PLACEMENT_3D('',#788,#632,#633);
#578=AXIS2_PLACEMENT_3D('',#794,#637,#638);
#579=AXIS2_PLACEMENT_3D('',#800,#642,#643);
#580=AXIS2_PLACEMENT_3D('',#802,#645,#646);
#581=AXIS2_PLACEMENT_3D('',#812,#652,#653);
#582=AXIS2_PLACEMENT_3D('',#814,#654,#655);
#583=AXIS2_PLACEMENT_3D('',#817,#657,#658);
#584=AXIS2_PLACEMENT_3D('',#818,#659,#660);
#585=AXIS2_PLACEMENT_3D('',#820,#661,#662);
#586=AXIS2_PLACEMENT_3D('',#823,#664,#665);
#587=AXIS2_PLACEMENT_3D('',#824,#666,#667);
#588=AXIS2_PLACEMENT_3D('',#830,#671,#672);
#589=AXIS2_PLACEMENT_3D('',#836,#676,#677);
#590=AXIS2_PLACEMENT_3D('',#837,#678,#679);
#591=AXIS2_PLACEMENT_3D('',#839,#680,#681);
#592=AXIS2_PLACEMENT_3D('',#842,#683,#684);
#593=AXIS2_PLACEMENT_3D('',#843,#685,#686);
#594=AXIS2_PLACEMENT_3D('',#845,#687,#688);
#595=AXIS2_PLACEMENT_3D('',#848,#690,#691);
#596=AXIS2_PLACEMENT_3D('',#849,#692,#693);
#597=AXIS2_PLACEMENT_3D('',#855,#697,#698);
#598=AXIS2_PLACEMENT_3D('',#861,#702,#703);
#599=AXIS2_PLACEMENT_3D('',#862,#704,#705);
#600=AXIS2_PLACEMENT_3D('',#863,#706,#707);
#601=AXIS2_PLACEMENT_3D('',#869,#711,#712);
#602=AXIS2_PLACEMENT_3D('',#873,#715,#716);
#603=AXIS2_PLACEMENT_3D('',#877,#719,#720);
#604=AXIS2_PLACEMENT_3D('',#879,#722,#723);
#605=AXIS2_PLACEMENT_3D('',#880,#724,#725);
#606=AXIS2_PLACEMENT_3D('',#881,#726,#727);
#607=AXIS2_PLACEMENT_3D('',#883,#728,#729);
#608=AXIS2_PLACEMENT_3D('',#886,#731,#732);
#609=AXIS2_PLACEMENT_3D('',#887,#733,#734);
#610=AXIS2_PLACEMENT_3D('',#889,#735,#736);
#611=AXIS2_PLACEMENT_3D('',#892,#738,#739);
#612=AXIS2_PLACEMENT_3D('',#893,#740,#741);
#613=AXIS2_PLACEMENT_3D('',#895,#742,#743);
#614=AXIS2_PLACEMENT_3D('',#898,#745,#746);
#615=AXIS2_PLACEMENT_3D('',#899,#747,#748);
#616=AXIS2_PLACEMENT_3D('',#901,#749,#750);
#617=AXIS2_PLACEMENT_3D('',#904,#752,#753);
#618=AXIS2_PLACEMENT_3D('',#905,#754,#755);
#619=AXIS2_PLACEMENT_3D('',#914,#760,#761);
#620=AXIS2_PLACEMENT_3D('',#920,#765,#766);
#621=AXIS2_PLACEMENT_3D('',#926,#770,#771);
#622=AXIS2_PLACEMENT_3D('',#929,#774,#775);
#623=AXIS2_PLACEMENT_3D('',#930,#776,#777);
#624=DIRECTION('axis',(0.,0.,1.));
#625=DIRECTION('refdir',(1.,0.,0.));
#626=DIRECTION('center_axis',(-1.,0.,-1.38777878078145E-16));
#627=DIRECTION('ref_axis',(1.38777878078145E-16,0.,-1.));
#628=DIRECTION('',(-1.38777878078145E-16,0.,1.));
#629=DIRECTION('',(0.,-1.,0.));
#630=DIRECTION('',(1.38777878078145E-16,0.,-1.));
#631=DIRECTION('',(0.,-1.,0.));
#632=DIRECTION('center_axis',(-2.08166817117217E-16,0.,1.));
#633=DIRECTION('ref_axis',(-1.,0.,-2.08166817117217E-16));
#634=DIRECTION('',(1.,0.,2.08166817117217E-16));
#635=DIRECTION('',(-1.,0.,-2.08166817117217E-16));
#636=DIRECTION('',(0.,-1.,0.));
#637=DIRECTION('center_axis',(0.,0.,-1.));
#638=DIRECTION('ref_axis',(1.,0.,0.));
#639=DIRECTION('',(-1.,0.,0.));
#640=DIRECTION('',(0.,1.,0.));
#641=DIRECTION('',(1.,0.,0.));
#642=DIRECTION('center_axis',(0.,-1.,0.));
#643=DIRECTION('ref_axis',(0.,0.,-1.));
#644=DIRECTION('',(-1.11022302462516E-16,0.,-1.));
#645=DIRECTION('center_axis',(0.,1.,0.));
#646=DIRECTION('ref_axis',(1.,0.,0.));
#647=DIRECTION('',(1.11022302462516E-16,0.,1.));
#648=DIRECTION('',(-1.,0.,-5.0927661680053E-17));
#649=DIRECTION('',(2.22044604925031E-16,0.,-1.));
#650=DIRECTION('',(1.,0.,1.01855323360106E-16));
#651=DIRECTION('',(1.11022302462516E-16,0.,1.));
#652=DIRECTION('center_axis',(0.,-1.,0.));
#653=DIRECTION('ref_axis',(1.,0.,0.));
#654=DIRECTION('center_axis',(0.,1.,0.));
#655=DIRECTION('ref_axis',(1.,0.,0.));
#656=DIRECTION('',(0.,1.,0.));
#657=DIRECTION('center_axis',(0.,-1.,0.));
#658=DIRECTION('ref_axis',(1.,0.,0.));
#659=DIRECTION('center_axis',(0.,-1.,0.));
#660=DIRECTION('ref_axis',(1.,0.,0.));
#661=DIRECTION('center_axis',(0.,1.,0.));
#662=DIRECTION('ref_axis',(1.,0.,0.));
#663=DIRECTION('',(0.,1.,0.));
#664=DIRECTION('center_axis',(0.,-1.,0.));
#665=DIRECTION('ref_axis',(1.,0.,0.));
#666=DIRECTION('center_axis',(-1.,0.,1.11022302462516E-16));
#667=DIRECTION('ref_axis',(-1.11022302462516E-16,0.,-1.));
#668=DIRECTION('',(0.,-1.,0.));
#669=DIRECTION('',(-1.11022302462516E-16,0.,-1.));
#670=DIRECTION('',(0.,-1.,0.));
#671=DIRECTION('center_axis',(0.,1.,0.));
#672=DIRECTION('ref_axis',(1.,0.,0.));
#673=DIRECTION('',(1.,0.,1.01855323360106E-16));
#674=DIRECTION('',(-4.44089209850063E-16,0.,1.));
#675=DIRECTION('',(-1.,0.,-5.0927661680053E-17));
#676=DIRECTION('center_axis',(0.,1.,0.));
#677=DIRECTION('ref_axis',(1.,0.,0.));
#678=DIRECTION('center_axis',(0.,-1.,0.));
#679=DIRECTION('ref_axis',(1.,0.,0.));
#680=DIRECTION('center_axis',(0.,1.,0.));
#681=DIRECTION('ref_axis',(1.,0.,0.));
#682=DIRECTION('',(0.,1.,0.));
#683=DIRECTION('center_axis',(0.,-1.,0.));
#684=DIRECTION('ref_axis',(1.,0.,0.));
#685=DIRECTION('center_axis',(0.,-1.,0.));
#686=DIRECTION('ref_axis',(1.,0.,0.));
#687=DIRECTION('center_axis',(0.,1.,0.));
#688=DIRECTION('ref_axis',(1.,0.,0.));
#689=DIRECTION('',(0.,1.,0.));
#690=DIRECTION('center_axis',(0.,-1.,0.));
#691=DIRECTION('ref_axis',(1.,0.,0.));
#692=DIRECTION('center_axis',(1.,0.,2.22044604925031E-16));
#693=DIRECTION('ref_axis',(-2.22044604925031E-16,0.,1.));
#694=DIRECTION('',(0.,-1.,0.));
#695=DIRECTION('',(-2.22044604925031E-16,0.,1.));
#696=DIRECTION('',(0.,-1.,0.));
#697=DIRECTION('center_axis',(0.,1.,0.));
#698=DIRECTION('ref_axis',(1.,0.,0.));
#699=DIRECTION('',(1.,0.,1.01855323360106E-16));
#700=DIRECTION('',(-1.,0.,-5.0927661680053E-17));
#701=DIRECTION('',(-8.88178419700125E-16,0.,-1.));
#702=DIRECTION('center_axis',(0.,1.,0.));
#703=DIRECTION('ref_axis',(1.,0.,0.));
#704=DIRECTION('center_axis',(0.,1.,0.));
#705=DIRECTION('ref_axis',(1.,0.,0.));
#706=DIRECTION('center_axis',(1.,0.,4.44089209850063E-16));
#707=DIRECTION('ref_axis',(4.44089209850063E-16,0.,-1.));
#708=DIRECTION('',(0.,1.,0.));
#709=DIRECTION('',(4.44089209850063E-16,0.,-1.));
#710=DIRECTION('',(0.,1.,0.));
#711=DIRECTION('center_axis',(-5.0927661680053E-17,0.,1.));
#712=DIRECTION('ref_axis',(1.,0.,5.0927661680053E-17));
#713=DIRECTION('',(1.,0.,5.0927661680053E-17));
#714=DIRECTION('',(0.,1.,0.));
#715=DIRECTION('center_axis',(-1.,0.,8.88178419700125E-16));
#716=DIRECTION('ref_axis',(8.88178419700125E-16,0.,1.));
#717=DIRECTION('',(8.88178419700125E-16,0.,1.));
#718=DIRECTION('',(0.,1.,0.));
#719=DIRECTION('center_axis',(1.01855323360106E-16,0.,-1.));
#720=DIRECTION('ref_axis',(-1.,0.,-1.01855323360106E-16));
#721=DIRECTION('',(-1.,0.,-1.01855323360106E-16));
#722=DIRECTION('center_axis',(0.,1.,0.));
#723=DIRECTION('ref_axis',(0.,0.,1.));
#724=DIRECTION('center_axis',(0.,1.,0.));
#725=DIRECTION('ref_axis',(1.,0.,0.));
#726=DIRECTION('center_axis',(0.,-1.,0.));
#727=DIRECTION('ref_axis',(1.,0.,0.));
#728=DIRECTION('center_axis',(0.,1.,0.));
#729=DIRECTION('ref_axis',(1.,0.,0.));
#730=DIRECTION('',(0.,1.,0.));
#731=DIRECTION('center_axis',(0.,1.,0.));
#732=DIRECTION('ref_axis',(1.,0.,0.));
#733=DIRECTION('center_axis',(0.,-1.,0.));
#734=DIRECTION('ref_axis',(1.,0.,0.));
#735=DIRECTION('center_axis',(0.,1.,0.));
#736=DIRECTION('ref_axis',(1.,0.,0.));
#737=DIRECTION('',(0.,1.,0.));
#738=DIRECTION('center_axis',(0.,1.,0.));
#739=DIRECTION('ref_axis',(1.,0.,0.));
#740=DIRECTION('center_axis',(0.,-1.,0.));
#741=DIRECTION('ref_axis',(1.,0.,0.));
#742=DIRECTION('center_axis',(0.,1.,0.));
#743=DIRECTION('ref_axis',(1.,0.,0.));
#744=DIRECTION('',(0.,1.,0.));
#745=DIRECTION('center_axis',(0.,1.,0.));
#746=DIRECTION('ref_axis',(1.,0.,0.));
#747=DIRECTION('center_axis',(0.,-1.,0.));
#748=DIRECTION('ref_axis',(1.,0.,0.));
#749=DIRECTION('center_axis',(0.,1.,0.));
#750=DIRECTION('ref_axis',(1.,0.,0.));
#751=DIRECTION('',(0.,1.,0.));
#752=DIRECTION('center_axis',(0.,1.,0.));
#753=DIRECTION('ref_axis',(1.,0.,0.));
#754=DIRECTION('center_axis',(-1.,0.,8.88178419700125E-16));
#755=DIRECTION('ref_axis',(-8.88178419700125E-16,0.,-1.));
#756=DIRECTION('',(-8.88178419700125E-16,0.,-1.));
#757=DIRECTION('',(0.,-1.,0.));
#758=DIRECTION('',(-8.88178419700125E-16,0.,-1.));
#759=DIRECTION('',(0.,-1.,0.));
#760=DIRECTION('center_axis',(4.62592926927149E-16,0.,1.));
#761=DIRECTION('ref_axis',(-1.,0.,4.62592926927149E-16));
#762=DIRECTION('',(-1.,0.,4.62592926927149E-16));
#763=DIRECTION('',(-1.,0.,4.62592926927149E-16));
#764=DIRECTION('',(0.,-1.,0.));
#765=DIRECTION('center_axis',(1.,0.,4.44089209850063E-16));
#766=DIRECTION('ref_axis',(-4.44089209850063E-16,0.,1.));
#767=DIRECTION('',(-4.44089209850063E-16,0.,1.));
#768=DIRECTION('',(-4.44089209850063E-16,0.,1.));
#769=DIRECTION('',(0.,-1.,0.));
#770=DIRECTION('center_axis',(0.,0.,-1.));
#771=DIRECTION('ref_axis',(1.,0.,0.));
#772=DIRECTION('',(1.,0.,0.));
#773=DIRECTION('',(1.,0.,0.));
#774=DIRECTION('center_axis',(0.,-1.,0.));
#775=DIRECTION('ref_axis',(1.,0.,0.));
#776=DIRECTION('center_axis',(0.,-1.,0.));
#777=DIRECTION('ref_axis',(1.,0.,0.));
#778=CARTESIAN_POINT('',(0.,0.,0.));
#779=CARTESIAN_POINT('Origin',(-1.9,0.,2.8));
#780=CARTESIAN_POINT('',(-1.9,0.,0.799999999999997));
#781=CARTESIAN_POINT('',(-1.9,0.,2.8));
#782=CARTESIAN_POINT('',(-1.9,0.,2.3));
#783=CARTESIAN_POINT('',(-1.9,-2.,0.799999999999997));
#784=CARTESIAN_POINT('',(-1.9,0.,0.799999999999997));
#785=CARTESIAN_POINT('',(-1.9,-2.,2.8));
#786=CARTESIAN_POINT('',(-1.9,-2.,0.799999999999997));
#787=CARTESIAN_POINT('',(-1.9,0.,2.8));
#788=CARTESIAN_POINT('Origin',(6.1,0.,2.8));
#789=CARTESIAN_POINT('',(6.1,0.,2.8));
#790=CARTESIAN_POINT('',(4.1,0.,2.8));
#791=CARTESIAN_POINT('',(6.1,-2.,2.8));
#792=CARTESIAN_POINT('',(-1.9,-2.,2.8));
#793=CARTESIAN_POINT('',(6.1,0.,2.8));
#794=CARTESIAN_POINT('Origin',(-1.9,0.,0.799999999999997));
#795=CARTESIAN_POINT('',(6.1,0.,0.799999999999997));
#796=CARTESIAN_POINT('',(0.100000000000004,0.,0.799999999999997));
#797=CARTESIAN_POINT('',(6.1,-2.,0.799999999999997));
#798=CARTESIAN_POINT('',(6.1,0.,0.799999999999996));
#799=CARTESIAN_POINT('',(6.1,-2.,0.799999999999997));
#800=CARTESIAN_POINT('Origin',(2.1,-2.,1.8));
#801=CARTESIAN_POINT('',(6.1,-2.,3.4));
#802=CARTESIAN_POINT('Origin',(2.1,0.,1.8));
#803=CARTESIAN_POINT('',(6.1,0.,5.));
#804=CARTESIAN_POINT('',(6.1,0.,3.4));
#805=CARTESIAN_POINT('',(-6.1,0.,5.));
#806=CARTESIAN_POINT('',(10.9,0.,5.));
#807=CARTESIAN_POINT('',(-6.1,0.,-5.));
#808=CARTESIAN_POINT('',(-6.1,0.,-1.6));
#809=CARTESIAN_POINT('',(6.1,0.,-5.));
#810=CARTESIAN_POINT('',(-10.9,0.,-5.));
#811=CARTESIAN_POINT('',(6.1,0.,3.4));
#812=CARTESIAN_POINT('Origin',(8.5,0.,-2.6));
#813=CARTESIAN_POINT('',(7.5,-10.,-2.6));
#814=CARTESIAN_POINT('Origin',(8.5,-10.,-2.6));
#815=CARTESIAN_POINT('',(7.5,0.,-2.6));
#816=CARTESIAN_POINT('',(7.5,0.,-2.6));
#817=CARTESIAN_POINT('Origin',(8.5,0.,-2.6));
#818=CARTESIAN_POINT('Origin',(8.5,0.,2.6));
#819=CARTESIAN_POINT('',(7.5,-10.,2.6));
#820=CARTESIAN_POINT('Origin',(8.5,-10.,2.6));
#821=CARTESIAN_POINT('',(7.5,0.,2.6));
#822=CARTESIAN_POINT('',(7.5,0.,2.6));
#823=CARTESIAN_POINT('Origin',(8.5,0.,2.6));
#824=CARTESIAN_POINT('Origin',(6.1,0.,5.));
#825=CARTESIAN_POINT('',(6.1,-10.,-5.));
#826=CARTESIAN_POINT('',(6.1,0.,-5.));
#827=CARTESIAN_POINT('',(6.1,-10.,5.));
#828=CARTESIAN_POINT('',(6.1,-10.,-5.));
#829=CARTESIAN_POINT('',(6.1,0.,5.));
#830=CARTESIAN_POINT('Origin',(8.5,-10.,-1.11022302462516E-15));
#831=CARTESIAN_POINT('',(10.9,-10.,-5.));
#832=CARTESIAN_POINT('',(-10.9,-10.,-5.));
#833=CARTESIAN_POINT('',(10.9,-10.,5.));
#834=CARTESIAN_POINT('',(10.9,-10.,-5.));
#835=CARTESIAN_POINT('',(10.9,-10.,5.));
#836=CARTESIAN_POINT('Origin',(2.1,0.,1.8));
#837=CARTESIAN_POINT('Origin',(-8.5,0.,2.6));
#838=CARTESIAN_POINT('',(-9.5,-10.,2.6));
#839=CARTESIAN_POINT('Origin',(-8.5,-10.,2.6));
#840=CARTESIAN_POINT('',(-9.5,0.,2.6));
#841=CARTESIAN_POINT('',(-9.5,0.,2.6));
#842=CARTESIAN_POINT('Origin',(-8.5,0.,2.6));
#843=CARTESIAN_POINT('Origin',(-8.5,0.,-2.6));
#844=CARTESIAN_POINT('',(-9.5,-10.,-2.6));
#845=CARTESIAN_POINT('Origin',(-8.5,-10.,-2.6));
#846=CARTESIAN_POINT('',(-9.5,0.,-2.6));
#847=CARTESIAN_POINT('',(-9.5,0.,-2.6));
#848=CARTESIAN_POINT('Origin',(-8.5,0.,-2.6));
#849=CARTESIAN_POINT('Origin',(-6.1,0.,-5.));
#850=CARTESIAN_POINT('',(-6.1,-10.,5.));
#851=CARTESIAN_POINT('',(-6.1,0.,5.));
#852=CARTESIAN_POINT('',(-6.1,-10.,-5.));
#853=CARTESIAN_POINT('',(-6.1,-10.,-5.));
#854=CARTESIAN_POINT('',(-6.1,0.,-5.));
#855=CARTESIAN_POINT('Origin',(-8.5,-10.,-2.22044604925031E-15));
#856=CARTESIAN_POINT('',(-10.9,-10.,-5.));
#857=CARTESIAN_POINT('',(-10.9,-10.,-5.));
#858=CARTESIAN_POINT('',(-10.9,-10.,5.));
#859=CARTESIAN_POINT('',(10.9,-10.,5.));
#860=CARTESIAN_POINT('',(-10.9,-10.,-5.));
#861=CARTESIAN_POINT('Origin',(2.1,0.,1.8));
#862=CARTESIAN_POINT('Origin',(2.1,0.,1.8));
#863=CARTESIAN_POINT('Origin',(10.9,0.,5.));
#864=CARTESIAN_POINT('',(10.9,9.,-5.));
#865=CARTESIAN_POINT('',(10.9,0.,-5.));
#866=CARTESIAN_POINT('',(10.9,9.,5.));
#867=CARTESIAN_POINT('',(10.9,9.,-5.));
#868=CARTESIAN_POINT('',(10.9,0.,5.));
#869=CARTESIAN_POINT('Origin',(-10.9,0.,5.));
#870=CARTESIAN_POINT('',(-10.9,9.,5.));
#871=CARTESIAN_POINT('',(10.9,9.,5.));
#872=CARTESIAN_POINT('',(-10.9,0.,5.));
#873=CARTESIAN_POINT('Origin',(-10.9,0.,-5.));
#874=CARTESIAN_POINT('',(-10.9,9.,-5.));
#875=CARTESIAN_POINT('',(-10.9,9.,-5.));
#876=CARTESIAN_POINT('',(-10.9,0.,-5.));
#877=CARTESIAN_POINT('Origin',(10.9,0.,-5.));
#878=CARTESIAN_POINT('',(-10.9,9.,-5.));
#879=CARTESIAN_POINT('Origin',(2.1,9.,1.8));
#880=CARTESIAN_POINT('Origin',(2.1,0.,1.8));
#881=CARTESIAN_POINT('Origin',(8.5,-10.,-2.6));
#882=CARTESIAN_POINT('',(7.5,-11.6,-2.6));
#883=CARTESIAN_POINT('Origin',(8.5,-11.6,-2.6));
#884=CARTESIAN_POINT('',(7.5,-10.,-2.6));
#885=CARTESIAN_POINT('',(7.5,-10.,-2.6));
#886=CARTESIAN_POINT('Origin',(8.5,-10.,-2.6));
#887=CARTESIAN_POINT('Origin',(-8.5,-10.,-2.6));
#888=CARTESIAN_POINT('',(-9.5,-11.6,-2.6));
#889=CARTESIAN_POINT('Origin',(-8.5,-11.6,-2.6));
#890=CARTESIAN_POINT('',(-9.5,-10.,-2.6));
#891=CARTESIAN_POINT('',(-9.5,-10.,-2.6));
#892=CARTESIAN_POINT('Origin',(-8.5,-10.,-2.6));
#893=CARTESIAN_POINT('Origin',(8.5,-10.,2.6));
#894=CARTESIAN_POINT('',(7.5,-11.6,2.6));
#895=CARTESIAN_POINT('Origin',(8.5,-11.6,2.6));
#896=CARTESIAN_POINT('',(7.5,-10.,2.6));
#897=CARTESIAN_POINT('',(7.5,-10.,2.6));
#898=CARTESIAN_POINT('Origin',(8.5,-10.,2.6));
#899=CARTESIAN_POINT('Origin',(-8.5,-10.,2.6));
#900=CARTESIAN_POINT('',(-9.5,-11.6,2.6));
#901=CARTESIAN_POINT('Origin',(-8.5,-11.6,2.6));
#902=CARTESIAN_POINT('',(-9.5,-10.,2.6));
#903=CARTESIAN_POINT('',(-9.5,-10.,2.6));
#904=CARTESIAN_POINT('Origin',(-8.5,-10.,2.6));
#905=CARTESIAN_POINT('Origin',(-10.9,-10.,5.));
#906=CARTESIAN_POINT('',(-10.9,-10.,5.));
#907=CARTESIAN_POINT('',(-10.9,-10.,-5.));
#908=CARTESIAN_POINT('',(-10.9,-10.,5.));
#909=CARTESIAN_POINT('',(-10.9,-11.6,-5.));
#910=CARTESIAN_POINT('',(-10.9,-10.,-5.));
#911=CARTESIAN_POINT('',(-10.9,-11.6,5.));
#912=CARTESIAN_POINT('',(-10.9,-11.6,5.));
#913=CARTESIAN_POINT('',(-10.9,-10.,5.));
#914=CARTESIAN_POINT('Origin',(10.9,-10.,5.));
#915=CARTESIAN_POINT('',(10.9,-10.,5.));
#916=CARTESIAN_POINT('',(10.9,-10.,5.));
#917=CARTESIAN_POINT('',(10.9,-11.6,5.));
#918=CARTESIAN_POINT('',(10.9,-11.6,5.));
#919=CARTESIAN_POINT('',(10.9,-10.,5.));
#920=CARTESIAN_POINT('Origin',(10.9,-10.,-5.));
#921=CARTESIAN_POINT('',(10.9,-10.,-5.));
#922=CARTESIAN_POINT('',(10.9,-10.,-5.));
#923=CARTESIAN_POINT('',(10.9,-11.6,-5.));
#924=CARTESIAN_POINT('',(10.9,-11.6,-5.));
#925=CARTESIAN_POINT('',(10.9,-10.,-5.));
#926=CARTESIAN_POINT('Origin',(-10.9,-10.,-5.));
#927=CARTESIAN_POINT('',(-6.1,-10.,-5.));
#928=CARTESIAN_POINT('',(-6.1,-11.6,-5.));
#929=CARTESIAN_POINT('Origin',(0.,-11.6,-1.11022302462516E-15));
#930=CARTESIAN_POINT('Origin',(0.,-10.,-1.11022302462516E-15));
#931=UNCERTAINTY_MEASURE_WITH_UNIT(LENGTH_MEASURE(0.01),#935,
'DISTANCE_ACCURACY_VALUE',
'Maximum model space distance between geometric entities at asserted c
onnectivities');
#932=UNCERTAINTY_MEASURE_WITH_UNIT(LENGTH_MEASURE(0.01),#935,
'DISTANCE_ACCURACY_VALUE',
'Maximum model space distance between geometric entities at asserted c
onnectivities');
#933=(
GEOMETRIC_REPRESENTATION_CONTEXT(3)
GLOBAL_UNCERTAINTY_ASSIGNED_CONTEXT((#931))
GLOBAL_UNIT_ASSIGNED_CONTEXT((#935,#937,#938))
REPRESENTATION_CONTEXT('','3D')
);
#934=(
GEOMETRIC_REPRESENTATION_CONTEXT(3)
GLOBAL_UNCERTAINTY_ASSIGNED_CONTEXT((#932))
GLOBAL_UNIT_ASSIGNED_CONTEXT((#935,#937,#938))
REPRESENTATION_CONTEXT('','3D')
);
#935=(
LENGTH_UNIT()
NAMED_UNIT(*)
SI_UNIT(.MILLI.,.METRE.)
);
#936=(
LENGTH_UNIT()
NAMED_UNIT(*)
SI_UNIT($,.METRE.)
);
#937=(
NAMED_UNIT(*)
PLANE_ANGLE_UNIT()
SI_UNIT($,.RADIAN.)
);
#938=(
NAMED_UNIT(*)
SI_UNIT($,.STERADIAN.)
SOLID_ANGLE_UNIT()
);
#939=SHAPE_DEFINITION_REPRESENTATION(#940,#941);
#940=PRODUCT_DEFINITION_SHAPE('',$,#943);
#941=SHAPE_REPRESENTATION('',(#575),#933);
#942=PRODUCT_DEFINITION_CONTEXT('part definition',#947,'design');
#943=PRODUCT_DEFINITION('Turret Motor Guide2','Turret Motor Guide2 v2',
#944,#942);
#944=PRODUCT_DEFINITION_FORMATION('',$,#949);
#945=PRODUCT_RELATED_PRODUCT_CATEGORY('Turret Motor Guide2 v2',
'Turret Motor Guide2 v2',(#949));
#946=APPLICATION_PROTOCOL_DEFINITION('international standard',
'automotive_design',2009,#947);
#947=APPLICATION_CONTEXT(
'Core Data for Automotive Mechanical Design Process');
#948=PRODUCT_CONTEXT('part definition',#947,'mechanical');
#949=PRODUCT('Turret Motor Guide2','Turret Motor Guide2 v2',$,(#948));
#950=PRESENTATION_STYLE_ASSIGNMENT((#951));
#951=SURFACE_STYLE_USAGE(.BOTH.,#952);
#952=SURFACE_SIDE_STYLE('',(#953));
#953=SURFACE_STYLE_FILL_AREA(#954);
#954=FILL_AREA_STYLE('Steel - Satin',(#955));
#955=FILL_AREA_STYLE_COLOUR('Steel - Satin',#956);
#956=COLOUR_RGB('Steel - Satin',0.627450980392157,0.627450980392157,0.627450980392157);
ENDSEC;
END-ISO-10303-21;
